<svg id="eQWHM5GinEr1" xmlns="http://www.w3.org/2000/svg" xmlns:xlink="http://www.w3.org/1999/xlink" viewBox="0 0 500 333.33" shape-rendering="geometricPrecision" text-rendering="geometricPrecision">
<style><![CDATA[
#eQWHM5GinEr3_tr {animation: eQWHM5GinEr3_tr__tr 6500ms linear infinite normal forwards}@keyframes eQWHM5GinEr3_tr__tr { 0% {transform: translate(266.821594px,187.015007px) rotate(0deg)} 92.307692% {transform: translate(266.821594px,187.015007px) rotate(270deg)} 100% {transform: translate(266.821594px,187.015007px) rotate(270deg)}} #eQWHM5GinEr53_tr {animation: eQWHM5GinEr53_tr__tr 6500ms linear infinite normal forwards}@keyframes eQWHM5GinEr53_tr__tr { 0% {transform: translate(139.465px,139.794907px) rotate(0deg)} 46.153846% {transform: translate(139.465px,139.794907px) rotate(210deg)} 100% {transform: translate(139.465px,139.794907px) rotate(510deg)}} #eQWHM5GinEr60_to {animation: eQWHM5GinEr60_to__to 6500ms linear infinite normal forwards}@keyframes eQWHM5GinEr60_to__to { 0% {transform: translate(257.458092px,83.629387px)} 15.384615% {transform: translate(257.458092px,82.140004px)} 30.769231% {transform: translate(257.458092px,83.740601px)} 47.692308% {transform: translate(257.458092px,82.120012px)} 61.538462% {transform: translate(257.458092px,83.740601px)} 76.923077% {transform: translate(257.458092px,81.951176px)} 92.307692% {transform: translate(257.458092px,83.740601px)} 100% {transform: translate(257.458092px,83.740601px)}} #eQWHM5GinEr62_to {animation: eQWHM5GinEr62_to__to 6500ms linear infinite normal forwards}@keyframes eQWHM5GinEr62_to__to { 0% {transform: translate(173.433929px,240.694794px)} 38.461538% {transform: translate(173.433929px,240.694794px)} 46.153846% {transform: translate(173.433929px,236.158277px)} 53.846154% {transform: translate(173.433929px,239.560873px)} 61.538462% {transform: translate(173.433929px,245.900659px)} 69.230769% {transform: translate(173.43393px,241.950659px)} 76.923077% {transform: translate(173.43393px,238.00066px)} 84.615385% {transform: translate(173.43393px,241.95066px)} 92.307692% {transform: translate(173.43393px,246.703928px)} 100% {transform: translate(173.43393px,241.95066px)}} #eQWHM5GinEr62_ts {animation: eQWHM5GinEr62_ts__ts 6500ms linear infinite normal forwards}@keyframes eQWHM5GinEr62_ts__ts { 0% {transform: scale(0.010357,0.010357)} 23.076923% {transform: scale(1.028796,1.028796)} 30.769231% {transform: scale(0.617469,0.617469)} 38.461538% {transform: scale(1.17852,1.17852)} 100% {transform: scale(1.17852,1.17852)}} #eQWHM5GinEr63_to {animation: eQWHM5GinEr63_to__to 6500ms linear infinite normal forwards}@keyframes eQWHM5GinEr63_to__to { 0% {transform: translate(373.014313px,134.182602px)} 38.461538% {transform: translate(373.014313px,134.182602px)} 46.153846% {transform: translate(373.014313px,127.834805px)} 53.846154% {transform: translate(373.014313px,134.016591px)} 61.538462% {transform: translate(373.014313px,140.382748px)} 69.230769% {transform: translate(373.014313px,134.016591px)} 76.923077% {transform: translate(373.014313px,127.834805px)} 84.615385% {transform: translate(373.014313px,134.107127px)} 92.307692% {transform: translate(373.014314px,140.382748px)} 98.461538% {transform: translate(373.014314px,134.016591px)} 100% {transform: translate(373.014314px,134.016591px)}} #eQWHM5GinEr63_ts {animation: eQWHM5GinEr63_ts__ts 6500ms linear infinite normal forwards}@keyframes eQWHM5GinEr63_ts__ts { 0% {transform: scale(0.010357,0.010357)} 23.076923% {transform: scale(1.028796,1.028796)} 30.769231% {transform: scale(0.617469,0.617469)} 38.461538% {transform: scale(1.17852,1.17852)} 100% {transform: scale(1.17852,1.17852)}} #eQWHM5GinEr66_to {animation: eQWHM5GinEr66_to__to 6500ms linear infinite normal forwards}@keyframes eQWHM5GinEr66_to__to { 0% {transform: translate(41.185008px,83.620071px)} 38.461538% {transform: translate(41.185008px,83.620071px)} 46.153846% {transform: translate(41.185008px,79.083554px)} 53.846154% {transform: translate(41.185008px,82.48615px)} 61.538462% {transform: translate(41.185008px,88.825935px)} 69.230769% {transform: translate(41.185009px,84.875935px)} 76.923077% {transform: translate(41.185009px,80.925935px)} 84.615385% {transform: translate(41.185009px,84.875935px)} 92.307692% {transform: translate(41.185009px,89.629203px)} 100% {transform: translate(41.185009px,84.875935px)}} #eQWHM5GinEr66_ts {animation: eQWHM5GinEr66_ts__ts 6500ms linear infinite normal forwards}@keyframes eQWHM5GinEr66_ts__ts { 0% {transform: scale(0.010357,0.010357)} 23.076923% {transform: scale(1.028796,1.028796)} 30.769231% {transform: scale(0.617469,0.617469)} 38.461538% {transform: scale(1.17852,1.17852)} 100% {transform: scale(1.17852,1.17852)}} #eQWHM5GinEr71_to {animation: eQWHM5GinEr71_to__to 6500ms linear infinite normal forwards}@keyframes eQWHM5GinEr71_to__to { 0% {transform: translate(470.05954px,234.754997px)} 38.461538% {transform: translate(470.05954px,234.754997px)} 46.153846% {transform: translate(470.059541px,230.21848px)} 53.846154% {transform: translate(470.059541px,233.621076px)} 61.538462% {transform: translate(470.059541px,239.960862px)} 69.230769% {transform: translate(470.059542px,236.010862px)} 76.923077% {transform: translate(470.059542px,232.060863px)} 84.615385% {transform: translate(470.059542px,236.010863px)} 92.307692% {transform: translate(470.059542px,240.764131px)} 100% {transform: translate(470.059542px,236.010863px)}} #eQWHM5GinEr71_ts {animation: eQWHM5GinEr71_ts__ts 6500ms linear infinite normal forwards}@keyframes eQWHM5GinEr71_ts__ts { 0% {transform: scale(0.010357,0.010357)} 23.076923% {transform: scale(1.028796,1.028796)} 30.769231% {transform: scale(0.617469,0.617469)} 38.461538% {transform: scale(1.17852,1.17852)} 100% {transform: scale(1.17852,1.17852)}} #eQWHM5GinEr79_to {animation: eQWHM5GinEr79_to__to 6500ms linear infinite normal forwards}@keyframes eQWHM5GinEr79_to__to { 0% {transform: translate(256.030289px,280.460449px)} 38.461538% {transform: translate(256.030289px,280.460449px)} 46.153846% {transform: translate(256.030289px,275.923933px)} 53.846154% {transform: translate(256.030289px,279.32653px)} 61.538462% {transform: translate(256.030289px,285.666316px)} 69.230769% {transform: translate(256.030289px,281.716317px)} 76.923077% {transform: translate(256.030289px,277.766318px)} 84.615385% {transform: translate(256.030289px,281.716318px)} 92.307692% {transform: translate(256.030289px,286.469587px)} 100% {transform: translate(256.030289px,281.716319px)}} #eQWHM5GinEr79_ts {animation: eQWHM5GinEr79_ts__ts 6500ms linear infinite normal forwards}@keyframes eQWHM5GinEr79_ts__ts { 0% {transform: scale(0.010357,0.010357)} 23.076923% {transform: scale(1.028796,1.028796)} 30.769231% {transform: scale(0.617469,0.617469)} 38.461538% {transform: scale(1.178519,1.178519)} 100% {transform: scale(1.178519,1.178519)}}
]]></style>
<path d="M482.67,258.37h-27.42l-13.71-23.75l13.71-23.74h27.42l13.71,23.74Zm-26.8-1.08h26.18l13.08-22.67L482.05,212h-26.18l-13.08,22.66Z" fill="#31544e"/><g id="eQWHM5GinEr3_tr" transform="translate(266.821594,187.015007) rotate(0)"><g transform="translate(-266.821594,-187.015007)"><path d="M262.57,224.85c-15.30737-.064917-29.067817-9.345936-34.862986-23.514062s-2.483385-30.432175,8.390619-41.206023s27.168-13.935001,41.281897-8.008983s23.267194,19.771753,23.19047,35.079068c-.126661,20.877564-17.122158,37.716523-38,37.65Zm.35-71.6c-13.659354-.068609-26.014879,8.098226-31.304617,20.691929s-2.471831,27.13384,7.139599,36.839667s24.123332,12.665704,36.768131,7.499299s20.931997-17.441523,20.996887-31.100895c.072019-18.640083-14.960103-33.819842-33.6-33.93Z" fill="#fdd639"/><path d="M262.54,232.82c-25.270765-.159667-45.652126-20.728833-45.58-46h3.51c-.110054,23.350506,18.726027,42.371151,42.076496,42.48878s42.377223-18.712282,42.502426-42.062712-18.698534-42.383291-42.048922-42.516068v-3.52c25.046143.470307,45.069736,20.971678,44.94942,46.021947s-20.339915,45.358354-45.38942,45.588053Z" fill="#31544e"/><path d="M300.7,225.59l-2.47-2.49c19.770182-19.626212,19.926741-51.55083.35-71.37l2.49-2.47c20.961451,21.18597,20.795854,55.348237-.37,76.33Z" fill="#fdd639"/></g></g><polygon points="361.95,281.5 334.84,281.5 321.13,257.76 334.69,234.28 335.62,234.82 322.38,257.76 335.47,280.42 361.95,280.42 361.95,281.5" fill="#31544e"/><path d="M402.36,304.71h-27.42L361.23,281l13.71-23.74h27.42L416.06,281Zm-26.8-1.08h26.17L414.82,281l-13.09-22.7h-26.17L362.47,281Z" fill="#31544e"/><rect width="1.08" height="26.79" rx="0" ry="0" transform="matrix(.866025-.5 0.5 0.866025 401.576582 304.439996)" fill="#31544e"/><polygon points="442.65,327.64 441.71,327.1 454.95,304.17 441.54,280.96 442.48,280.42 456.2,304.17 442.65,327.64" fill="#31544e"/><rect width="27.11" height="1.08" rx="0" ry="0" transform="matrix(.5-.866025 0.866025 0.5 441.556243 280.971198)" fill="#31544e"/><rect width="28.83" height="1.08" rx="0" ry="0" transform="translate(455.58 303.63)" fill="#31544e"/><path d="M185.85,218l13.1,22.7-13.1,22.7h-26.21l-13.11-22.7L159.64,218Zm.67-1.17h-27.52L145.22,240.7L159,264.56h27.56l13.79-23.87-13.79-23.87Z" fill="#31544e"/><path d="M323.55,257.7c-.000012.712761-.429912,1.355145-1.088807,1.626963s-1.416681.119398-1.919241-.386034-.650661-1.264074-.375092-1.92141.92039-1.083569,1.63314-1.079519c.465867-.000008.912508.185739,1.240986.516094s.511676.778047.509014,1.243906Z" fill="#31544e"/><circle r="1.75" transform="translate(335.48 234.62)" fill="#31544e"/><path d="M377.37,257.7c-.000012.712761-.429912,1.355145-1.088807,1.626963s-1.416681.119398-1.919241-.386034-.650661-1.264074-.375092-1.92141.92039-1.083569,1.63314-1.079519c.968114.005501,1.750016.791871,1.75,1.76Z" fill="#31544e"/><path d="M457.33,257.7c-.000012.712761-.429912,1.355145-1.088807,1.626963s-1.416681.119398-1.919241-.386034-.650661-1.264074-.375092-1.92141.92039-1.083569,1.63314-1.079519c.465867-.000008.912508.185739,1.240986.516094s.511676.778047.509014,1.243906Z" fill="#31544e"/><path d="M417.2,328c0,.711854-.42881,1.353613-1.086477,1.626028s-1.414674.121836-1.918031-.38152-.653935-1.260364-.38152-1.918031.914174-1.086477,1.626028-1.086477c.467597-.00268.916819.181888,1.247466.512534s.515214.779869.512534,1.247466Z" fill="#31544e"/><path d="M377,304.17c-.000012.712761-.429912,1.355145-1.088807,1.626963s-1.416681.119398-1.919241-.386034-.650661-1.264074-.375092-1.92141.92039-1.083569,1.63314-1.079519c.465867-.000008.912508.185739,1.240986.516094s.511676.778047.509014,1.243906Z" fill="#31544e"/><path d="M484.41,304.17c0,.711854-.42881,1.353613-1.086477,1.626028s-1.414674.121836-1.918031-.38152-.653935-1.260364-.38152-1.918031.914174-1.086477,1.626028-1.086477c.467597-.00268.916819.181888,1.247466.512534s.515214.779869.512534,1.247466Z" fill="#31544e"/><path d="M457.33,304.17c-.000012.712761-.429912,1.355145-1.088807,1.626963s-1.416681.119398-1.919241-.386034-.650661-1.264074-.375092-1.92141.92039-1.083569,1.63314-1.079519c.465867-.000008.912508.185739,1.240986.516094s.511676.778047.509014,1.243906Z" fill="#31544e"/><polygon points="106.47,80.94 72.05,80.94 54.69,50.87 71.89,21.07 72.8,21.59 55.9,50.87 72.65,79.89 106.47,79.89 106.47,80.94" fill="#31544e"/><rect width="34.12" height="1.05" rx="0" ry="0" transform="matrix(.5-.866025 0.866025 0.5 106.021115 198.326515)" fill="#31544e"/><path d="M157.82,110.49h-34.73L105.73,80.42l17.36-30.07h34.73l17.36,30.07Zm-34.12-1h33.51l16.76-29-16.76-29h-33.51l-16.76,29Z" fill="#31544e"/><polygon points="157.82,169.58 123.09,169.58 105.89,139.77 106.79,139.25 123.7,168.53 157.21,168.53 173.97,139.51 157.06,110.23 157.97,109.7 175.18,139.51 157.82,169.58" fill="#31544e"/><polygon points="106.77,140.03 72.05,140.03 54.69,109.97 72.05,79.89 106.47,79.89 106.47,80.94 72.65,80.94 55.9,109.97 72.65,138.99 106.16,138.99 123.07,109.7 123.98,110.23 106.77,140.03" fill="#31544e"/><polygon points="209.07,139.77 208.16,139.25 225.07,109.97 208.31,80.94 174.5,80.94 174.5,79.89 208.92,79.89 226.28,109.97 209.07,139.77" fill="#31544e"/><rect width="34.12" height="1.05" rx="0" ry="0" transform="matrix(.5-.866025 0.866025 0.5 208.170604 80.15701)" fill="#31544e"/><rect width="58.3" height="1.05" rx="0" ry="0" transform="translate(225.67 109.44)" fill="#31544e"/><rect width="52.31" height="1.05" rx="0" ry="0" transform="translate(2.98 109.44)" fill="#31544e"/><circle r="1.7" transform="translate(106.46 139.51)" fill="#31544e"/><circle r="1.7" transform="translate(72.35 139.51)" fill="#31544e"/><path d="M108.17,198.6c.00405.692526-.410001,1.319117-1.048653,1.586946s-1.375787.124007-1.866919-.364253-.639275-1.224539-.375196-1.864751.88823-1.05793,1.580768-1.057942c.940515-.000016,1.7045.759501,1.71,1.7Z" fill="#31544e"/><path d="M125.23,110c.00405.692526-.410001,1.319117-1.048653,1.586946s-1.375787.124007-1.866919-.364253-.639275-1.224539-.375196-1.864751.88823-1.05793,1.580768-1.057942c.940515-.000016,1.7045.759501,1.71,1.7Z" fill="#31544e"/><path d="M125.23,169.06c0,.944407-.765593,1.71-1.71,1.71s-1.71-.765593-1.71-1.71.765593-1.71,1.71-1.71c.45352,0,.888465.18016,1.209153.500847s.500847.755633.500847,1.209153Z" fill="#31544e"/><circle r="1.7" transform="translate(157.79 109.96)" fill="#31544e"/><circle r="1.7" transform="translate(157.79 50.87)" fill="#31544e"/><path d="M125.1,50.87c.004043.693434-.411095,1.320654-1.050979,1.58789s-1.377804.121574-1.868145-.368766-.636003-1.228261-.368766-1.868145.894456-1.055022,1.58789-1.050979c.936613.005461,1.694539.763387,1.7,1.7Z" fill="#31544e"/><circle r="1.7" transform="translate(225.67 109.96)" fill="#31544e"/><path d="M285.68,110c.00405.692526-.410001,1.319117-1.048653,1.586946s-1.375787.124007-1.866919-.364253-.639275-1.224539-.375196-1.864751.88823-1.05793,1.580768-1.057942c.452598-.002662.887573.175268,1.208551.494369s.501457.753025.501449,1.205631Z" fill="#31544e"/><path d="M57,110c0,.938884-.761116,1.7-1.7,1.7s-1.7-.761116-1.7-1.7.761116-1.7,1.7-1.7c.450868,0,.88327.179107,1.202082.497918s.497918.751214.497918,1.202082Z" fill="#31544e"/><path d="M4.68,110c0,.938884-.761116,1.7-1.7,1.7s-1.7-.761116-1.7-1.7.761116-1.7,1.7-1.7c.450868,0,.88327.179107,1.202082.497918s.497918.751214.497918,1.202082Z" fill="#31544e"/><circle r="1.7" transform="translate(106.46 80.42)" fill="#31544e"/><circle r="1.7" transform="translate(72.35 80.42)" fill="#31544e"/><circle r="1.7" transform="translate(208.56 80.42)" fill="#31544e"/><circle r="1.7" transform="translate(225.67 50.87)" fill="#31544e"/><path d="M176.15,80.42c.004043.693434-.411095,1.320654-1.050979,1.58789s-1.377804.121574-1.868145-.368766-.636003-1.228261-.368766-1.868145.894456-1.055022,1.58789-1.050979c.938884,0,1.7.761116,1.7,1.7Z" fill="#31544e"/><path d="M159.49,169.06c-.005515.937563-.769056,1.693658-1.706627,1.689987s-1.695168-.765724-1.69334-1.703301.762388-1.69667,1.699967-1.696686c.452606-.000008.88653.180471,1.205631.501449s.497031.755953.494369,1.208551Z" fill="#31544e"/><path d="M176.15,139.51c.004043.693434-.411095,1.320654-1.050979,1.58789s-1.377804.121574-1.868145-.368766-.636003-1.228261-.368766-1.868145.894456-1.055022,1.58789-1.050979c.938884,0,1.7.761116,1.7,1.7Z" fill="#31544e"/><circle r="1.7" transform="translate(208.56 139.51)" fill="#31544e"/><path d="M57,50.87c0,.938884-.761116,1.7-1.7,1.7s-1.7-.761116-1.7-1.7.761116-1.7,1.7-1.7c.936613.005461,1.694539.763387,1.7,1.7Z" fill="#31544e"/><circle r="1.7" transform="translate(72.35 21.81)" fill="#31544e"/><g id="eQWHM5GinEr53_tr" transform="translate(139.465,139.794907) rotate(0)"><g transform="translate(-139.465,-139.794907)"><path d="M139.23,125.29c-.100771-.070961-.232686-.079854-.342069-.023059s-.178.16981-.177931.293059v2.79c-6.119265.346478-10.925697,5.371384-11,11.5.008712,2.844267,1.078497,5.582917,3,7.68.061122.061425.143391.097194.23.1.07019.0033.138728-.021951.19-.07l2.72-2.12c.06904-.056498.109355-.140791.11-.23.012306-.090049-.021518-.180246-.09-.24-1.350328-1.362083-2.108583-3.202018-2.11-5.12.04305-3.884758,3.0641-7.084286,6.94-7.35v2.8c.000554.120363.07073.229526.18.28.103959.065188.236041.065188.34,0l3.18-2.51h.06l1.22-1l1.88-1.49c.081227-.061885.129228-.157888.13-.26-.000768-.099351-.049108-.192314-.13-.25Z" fill="#fdd639"/><path d="M147.31,131.71l-2.9,2.29c-.06888.060747-.10834.14816-.10834.24s.03946.179253.10834.24c1.512722,1.375118,2.373582,3.325675,2.37,5.37-.032822,4.062834-3.327066,7.343705-7.39,7.36v-2.88c-.003577-.12145-.073602-.23111-.182277-.285447s-.238417-.044561-.337723.025447l-3.1,2.39c-.054688.020368-.102996.054874-.14.1v0l-2.89,2.23c-.072187.059393-.115798.146615-.12.24.001347.096912.045228.188332.12.25l6.15,5c.055842.048287.126262.076455.2.08h.14c.10927-.050474.179446-.159637.18-.28v-2.71c3.09734.050763,6.086735-1.137317,8.304236-3.300367s3.479521-5.121988,3.505764-8.219633c-.000053-3.056771-1.233076-5.9843-3.42-8.12-.061335-.069302-.14827-.110608-.24074-.114382s-.182481.030309-.24926.094382Z" fill="#31544e"/></g></g><g opacity="0.4"><path d="M269.59,81.34l1.22,1.27c.109429.119805.267707.182883.429543.171184s.309397-.096886.400457-.231184c3.924982-5.850723,4.241007-13.407279.818247-19.565294s-10.007176-9.879155-17.048247-9.634706c-.713284.01857-1.424691.082029-2.13.19-6.585362.968124-12.164657,5.353215-14.66149,11.523311s-1.537302,13.20123,2.52149,18.476689c.102521.126863.256891.200589.42.200589s.317479-.073726.42-.200589l1.13-1.34c.155298-.196336.155298-.473664,0-.67-2.00373-2.707086-3.093056-5.982068-3.11-9.35-.043922-6.825118,4.246514-12.926672,10.684105-15.194178s13.604818-.201673,17.847931,5.144368s4.627804,12.795122.957964,18.54981c-.130911.215184-.088779.493253.1.66Z" fill="#fdd639"/></g><g opacity="0.6"><path d="M265.18,76.48L266.64,78c.142135.143326.345144.208488.544142.174659s.36907-.162416.455858-.344659c.838165-1.797523,1.239088-3.767871,1.17-5.75-.220743-6.032969-4.617512-11.095915-10.56-12.16-1.739437-.308989-3.524248-.251085-5.24.17-5.857375,1.455686-9.908175,6.79708-9.73,12.83.064363,1.982308.595409,3.921482,1.55,5.66.0968.175886.273947.29288.473714.312857s.396574-.059622.526286-.212857l1.35-1.61c.147244-.183632.181809-.433268.09-.65-.521282-1.134594-.810288-2.362017-.85-3.61-.005444-5.194202,4.113419-9.454752,9.304836-9.624918s9.580447,3.811509,9.915164,8.994918c.046945,1.247859-.157085,2.492446-.6,3.66-.084197.222233-.029295.473218.14.64Z" fill="#fdd639"/></g><g id="eQWHM5GinEr60_to" transform="translate(257.458092,83.629387)"><path d="M267.15,88.4L267,83.16c.029427-.798066-.418735-1.537141-1.14-1.88-.441269-.13306-.916587-.093748-1.33.11h-.12c-.14645-.615829-.661462-1.074948-1.29-1.15-.572455-.102248-1.161779.03514-1.63.38-.351555-.691425-1.118322-1.066652-1.88-.92-.589952.072895-1.124551.383541-1.48.86L258,76.09c0-.87-.09-1.75-.09-2.63-.113782-.959931-.943902-1.672705-1.91-1.64-.548391.017727-1.065416.259969-1.43.67-.322323.422045-.469208.952261-.41,1.48v8.09c0,.18.08,4.31.08,4.31-.36-.34-.76-.73-1.13-1.11-.925891-.858709-2.104403-1.395352-3.36-1.53-.410766-.067572-.831928.021657-1.18.25l-.24.23c-.566177.472651-.760459,1.257872-.48,1.94.193326.247579.439254.449103.72.59.570835.251024,1.087162.611094,1.52,1.06.83,1,2.75,3.21,3.92,4.39.24.13.75.62,1,.73.554283.30777,1.076819.669526,1.56,1.08.352954.244333.727908.455245,1.12.63c1.15816.591062,2.45146.866967,3.75.8c1.58,0,3,0,4.06-1h.06v-.07c1.088801-1.039941,1.681839-2.495248,1.63-4c.01-.31-.04-1.7-.04-1.96Z" transform="translate(-257.458092,-83.629387)" fill="#31544e"/></g><path d="M255.9,67.78c-1.175107.036549-2.287492.538712-3.092146,1.395884s-1.235577,1.999046-1.197854,3.174116c-.001841,1.233024.504595,2.412296,1.4,3.26v-1.87c-.204345-1.654093.970907-3.160655,2.625-3.365s3.160655.970907,3.365,2.625c.055116.232801.085287.47081.09.71v1.94c1.358888-1.291349,1.793642-3.280441,1.09743-5.020972s-2.382822-2.881077-4.25743-2.879028Z" fill="#fdd639"/><g id="eQWHM5GinEr62_to" transform="translate(173.433929,240.694794)"><g id="eQWHM5GinEr62_ts" transform="scale(0.010357,0.010357)"><path d="M185.54,237.85v0c-.15277-.478161-.598031-.801987-1.1-.8h-7.59l-2.35-7.22c-.158327-.472953-.60125-.791761-1.1-.791761s-.941673.318808-1.1.791761l-2.3,7.22h-7.59c-.497472.005672-.935934.327933-1.089859.801027s.010966.991661.409859,1.288973l6.14,4.47-2.34,7.22c-.160452.478548.009887,1.005788.42,1.3.401623.295092.948377.295092,1.35,0l6.15-4.46l6.15,4.46c.192426.146235.428342.2237.67.22.247585.002184.489373-.074908.69-.22.404785-.293551.57103-.816617.41-1.29L179,243.61l6.14-4.47c.403906-.29425.566574-.818857.4-1.29Z" transform="translate(-173.433929,-240.694794)" fill="#fdd639"/></g></g><g id="eQWHM5GinEr63_to" transform="translate(373.014313,134.182602)"><g id="eQWHM5GinEr63_ts" transform="scale(0.010357,0.010357)"><path d="M380,125.26c-1.371308-2.319679-3.81829-3.793131-6.51-3.92-.303004-.019995-.606996-.019995-.91,0-2.69171.126869-5.138692,1.600321-6.51,3.92-1.456345,2.392672-1.632378,5.35153-.47,7.9l7,13.63c.07165.155555.228778.25376.4.25.169133.005129.324044-.094172.39-.25l7-13.64c1.191933-2.530861,1.045712-5.489022-.39-7.89Zm-7,8c-1.481235.004047-2.81887-.885113-3.388521-2.252436s-.258989-2.943191.786972-3.992018s2.620975-1.363799,3.989851-.797891s2.261692,1.901104,2.261698,3.382345c-.016473,2.004114-1.645819,3.620068-3.65,3.62Z" transform="translate(-373.014313,-134.182602)" fill="#31544e"/></g></g><path d="M206.06,141.62c0,0-.07,0-.07,0Z" fill="#31544e"/><path d="M100.56,146.63l12.7,22-12.7,22h-25.4l-12.7-22l12.7-22Zm.68-1.17h-26.76L61.11,168.62l13.37,23.17h26.76l13.37-23.17-13.37-23.16Z" fill="#31544e"/><g id="eQWHM5GinEr66_to" transform="translate(41.185008,83.620071)"><g id="eQWHM5GinEr66_ts" transform="scale(0.010357,0.010357)"><g transform="translate(-41.185008,-83.620071)"><path d="M41.17,72.44c-6.65,0-12,4.53-12,10.12s5.39,10.12,12,10.12c1.294921-.000335,2.58365-.178671,3.83-.53l2.54,2.54c.099059.100396.246579.135742.380381.091142s.230609-.16139.249619-.301142l.55-4c2.714795-1.714438,4.39528-4.670291,4.48-7.88.01-5.6-5.38-10.16-12.03-10.16Z" fill="#31544e"/><path d="M33.87,84.49c-.659273,0-1.253631-.397137-1.505924-1.006226s-.112837-1.310181.35334-1.776358s1.167269-.605633,1.776358-.35334s1.006226.846651,1.006226,1.505924c-.005459.897953-.732047,1.624541-1.63,1.63Z" fill="#fdd639"/><path d="M40.66,84.49c-.659273,0-1.253631-.397137-1.505924-1.006226s-.112837-1.310181.35334-1.776358s1.167269-.605633,1.776358-.35334s1.006226.846651,1.006226,1.505924c0,.900224-.729776,1.63-1.63,1.63Z" fill="#fdd639"/><path d="M47.66,84.49c-.898902-.005515-1.623657-.737715-1.619986-1.636626s.734382-1.625167,1.633299-1.62334s1.62667.731047,1.626687,1.629966c.000008.434041-.173096.850161-.480946,1.156134s-.725021.476529-1.159054.473866Z" fill="#fdd639"/></g></g></g><g id="eQWHM5GinEr71_to" transform="translate(470.05954,234.754997)"><g id="eQWHM5GinEr71_ts" transform="scale(0.010357,0.010357)"><g transform="translate(-470.059539,-234.754997)"><path d="M472.15,222.07c.137629.08596.268057.182945.39.29l2.45,2.42l3.93,3.94c.16.16.29.34.47.56h-.35-5.1c-.489479.054736-.977276-.11618-1.325548-.464452s-.519188-.836069-.464452-1.325548c0-1.7,0-3.4,0-5.1Z" fill="#fdd639"/><path d="M479.18,230.37h-5.29c-.251906.006944-.503729-.01656-.75-.07-1.234173-.278189-2.095395-1.395677-2.05-2.66c0-1.78,0-3.56,0-5.34v-.35h-8.71c-.479709-.047229-.955343.122966-1.296188.463812s-.511041.816479-.463812,1.296188v22.08c-.049964.479443.117525.95605.456436,1.298834s.813584.515679,1.293564.471166h15.37c.479709.047229.955343-.122966,1.296188-.463812s.511041-.816479.463812-1.296188v-15.43Z" fill="#31544e"/><path d="M463.49,238.12c.05435-.071543.114558-.13844.18-.2l4.67-4.67c.39-.39.62-.39,1,0l2.47,2.46.21.21.22-.21L475,233c.058375-.065026.121916-.125223.19-.18.198507-.170217.491493-.170217.69,0c.191321.18997.216728.490618.06.71l-.16.17-3.23,3.22c-.37.37-.61.37-1,0l-2.46-2.47c-.074486-.07946-.14459-.162916-.21-.25l-1.59,1.6-2.85,2.85c-.062514.071145-.132974.134894-.21.19-.209188.15946-.504509.137599-.687938-.050925s-.197192-.484333-.032062-.689075Z" fill="#fdd639"/><path d="M465.06,245.39h-2.29v-4.76h2.29Z" fill="#fdd639"/><path d="M469.16,245.4h-2.3v-5.8h2.3Z" fill="#fdd639"/><path d="M473.26,245.39h-2.26v-3h2.31Z" fill="#fdd639"/><path d="M477.35,245.4h-2.29v-8.5h2.29Z" fill="#fdd639"/></g></g></g><g id="eQWHM5GinEr79_to" transform="translate(256.030289,280.460449)"><g id="eQWHM5GinEr79_ts" transform="scale(0.010357,0.010357)"><g transform="translate(-256.030289,-280.460449)"><path d="M245.18,276.22h21.7v12.12c.025661,1.118257-.791856,2.077765-1.9,2.23-.176368.014519-.353632.014519-.53,0h-17.31c-.515405.037238-1.022342-.146374-1.394354-.505032s-.574025-.858547-.555646-1.374968c0-.18,0-.36,0-.54v-12Z" fill="#31544e"/><path d="M260.85,278.71h-.76c-.140893-.017929-.282493.027459-.386708.123955s-.160346.234191-.153292.376045q0,.79,0,1.59c-.011701.132326.034376.26325.126374.359081s.220933.147211.353626.140919h1.65c.129333.006746.25507-.043829.343711-.138251s.131182-.223099.116289-.351749c0-.53,0-1.07,0-1.6.005951-.136113-.04622-.268342-.143508-.363722s-.230524-.144923-.366492-.136278Z" fill="#fdd639"/><path d="M260.85,287.48h.78c.34,0,.51-.17.51-.51q0-.78,0-1.56c.014745-.139276-.032075-.278046-.128183-.379921s-.231918-.156693-.371817-.150079h-1.58c-.137802-.008919-.272769.041942-.370413.139587s-.148506.232611-.139587.370413c0,.53,0,1.05,0,1.58-.010168.143544.044601.284076.149221.382884s.24805.145464.390779.127116Z" fill="#fdd639"/><path d="M255.76,287.57h.83c.36,0,.55-.17.55-.53c0-.56,0-1.12,0-1.68.009153-.150265-.047265-.297122-.15467-.402609s-.255254-.15925-.40533-.147391h-1.66c-.152164-.009531-.300845.048196-.406711.157911s-.158247.260362-.143289.412089v1.62c-.015832.15549.039113.309854.14963.42037s.26488.165462.42037.14963Z" fill="#fdd639"/><path d="M254.47,280c0,.24,0,.49,0,.73-.021607.146979.024634.295825.125721.404688s.246104.165987.394279.155312c.52,0,1.05,0,1.58,0c.136286.017041.272712-.030536.368845-.128632s.140945-.235454.121155-.371368c0-.53,0-1.06,0-1.58.014087-.144574-.039466-.287539-.145071-.387277s-.251395-.145042-.394929-.122723c-.51,0-1,0-1.52,0-.146854-.016677-.293202.035229-.396729.14071s-.15269.252774-.133271.39929c-.01.27,0,.52,0,.76Z" fill="#fdd639"/><path d="M249,286.18v.82c-.012182.154587.043947.306756.153595.416405s.261818.165777.416405.153595h1.57c.15861.017095.316983-.034268.43537-.141198s.185549-.259276.18463-.418802q0-.84,0-1.68c.005546-.137793-.046065-.271758-.142626-.370213s-.2295-.152657-.367374-.149787h-1.72c-.144999-.003032-.284677.054628-.385313.159062s-.153086.24615-.144687.390938Z" fill="#fdd639"/><path d="M250.75,278.71h-.75c-.143102-.008878-.28313.044104-.384513.145487s-.154365.241411-.145487.384513v1.54c-.014745.139276.032075.278046.128183.379921s.231918.156693.371817.150079h1.56c.144041.002744.282992-.053267.384863-.155137s.157881-.240822.155137-.384863c0-.52,0-1,0-1.58.000479-.131902-.054491-.257935-.151487-.347323s-.227089-.133904-.358513-.122677Z" fill="#fdd639"/><path d="M250.32,270.34h10.82v.66c0,.44,0,.88,0,1.32-.031799.260771.089455.516534.311465.656978s.50506.140443.72707,0s.343264-.396207.311465-.656978c0-.58,0-1.15,0-1.73v-.23h.06c.78,0,1.57,0,2.35.05.936806.10951,1.698267.806509,1.89,1.73.015167.179681.015167.360319,0,.54c0,.7,0,1.4,0,2.12h-21.6v0c0-.93,0-1.87.05-2.8.069318-.963595.906363-1.688736,1.87-1.62.53,0,1.07,0,1.61,0h.28v.3c0,.56,0,1.11,0,1.66-.031799.260771.089455.516534.311465.656978s.50506.140443.72707,0s.343264-.396207.311465-.656978v-2Z" fill="#31544e"/></g></g></g></svg>
