<svg id="mobileloop" xmlns="http://www.w3.org/2000/svg" xmlns:xlink="http://www.w3.org/1999/xlink" viewBox="0 0 450.99 440.33" shape-rendering="geometricPrecision" text-rendering="geometricPrecision">
<style><![CDATA[
#mobileloop-s-g21_to {animation: mobileloop-s-g21_to__to 9000ms linear infinite normal forwards}@keyframes mobileloop-s-g21_to__to { 0% {transform: translate(196.370003px,317.095001px)} 33.333333% {transform: translate(196.370003px,317.095001px);animation-timing-function: cubic-bezier(0.455,0.03,0.515,0.955)} 44.444444% {transform: translate(160.54px,306.51px);animation-timing-function: cubic-bezier(0.455,0.03,0.515,0.955)} 55.555556% {transform: translate(196.370003px,317.095001px);animation-timing-function: cubic-bezier(0.455,0.03,0.515,0.955)} 66.666667% {transform: translate(196.370003px,290.255798px);animation-timing-function: cubic-bezier(0.455,0.03,0.515,0.955)} 77.777778% {transform: translate(196.370003px,317.095001px)} 100% {transform: translate(196.370003px,317.095001px)}} #mobileloop-s-g21_tr {animation: mobileloop-s-g21_tr__tr 9000ms linear infinite normal forwards}@keyframes mobileloop-s-g21_tr__tr { 0% {transform: rotate(0deg)} 22.222222% {transform: rotate(0deg);animation-timing-function: cubic-bezier(0.455,0.03,0.515,0.955)} 33.333333% {transform: rotate(360deg)} 77.777778% {transform: rotate(360deg)} 88.888889% {transform: rotate(0deg)} 100% {transform: rotate(0deg)}} #mobileloop-s-g21_ts {animation: mobileloop-s-g21_ts__ts 9000ms linear infinite normal forwards}@keyframes mobileloop-s-g21_ts__ts { 0% {transform: scale(0,0)} 22.222222% {transform: scale(0,0);animation-timing-function: cubic-bezier(0.455,0.03,0.515,0.955)} 33.333333% {transform: scale(1,1)} 77.777778% {transform: scale(1,1)} 88.888889% {transform: scale(0,0)} 100% {transform: scale(0,0)}} #mobileloop-s-path190_ts {animation: mobileloop-s-path190_ts__ts 9000ms linear infinite normal forwards}@keyframes mobileloop-s-path190_ts__ts { 0% {transform: translate(181.8px,114.86px) scale(0,0);animation-timing-function: cubic-bezier(0.455,0.03,0.515,0.955)} 5.555556% {transform: translate(181.8px,114.86px) scale(1,1)} 94.444444% {transform: translate(181.8px,114.86px) scale(1,1)} 100% {transform: translate(181.8px,114.86px) scale(0,0)}} #mobileloop-s-g28_to {animation: mobileloop-s-g28_to__to 9000ms linear infinite normal forwards}@keyframes mobileloop-s-g28_to__to { 0% {transform: translate(112.674995px,37.994999px)} 11.111111% {transform: translate(112.674995px,37.994999px);animation-timing-function: cubic-bezier(0.455,0.03,0.515,0.955)} 22.222222% {transform: translate(112.674996px,62.23px);animation-timing-function: cubic-bezier(0.455,0.03,0.515,0.955)} 33.333333% {transform: translate(112.674995px,37.994999px);animation-timing-function: cubic-bezier(0.455,0.03,0.515,0.955)} 44.444444% {transform: translate(112.674996px,62.23px);animation-timing-function: cubic-bezier(0.455,0.03,0.515,0.955)} 55.555556% {transform: translate(112.674995px,37.994999px);animation-timing-function: cubic-bezier(0.455,0.03,0.515,0.955)} 66.666667% {transform: translate(112.674996px,62.23px);animation-timing-function: cubic-bezier(0.455,0.03,0.515,0.955)} 77.777778% {transform: translate(112.674995px,37.994999px)} 88.888889% {transform: translate(112.674996px,62.23px);animation-timing-function: cubic-bezier(0.455,0.03,0.515,0.955)} 100% {transform: translate(112.674995px,37.994999px)}} #mobileloop-s-g28_ts {animation: mobileloop-s-g28_ts__ts 9000ms linear infinite normal forwards}@keyframes mobileloop-s-g28_ts__ts { 0% {transform: scale(0,0)} 5.555556% {transform: scale(0,0);animation-timing-function: cubic-bezier(0.455,0.03,0.515,0.955)} 11.111111% {transform: scale(1,1)} 88.888889% {transform: scale(1,1)} 94.444444% {transform: scale(0,0)} 100% {transform: scale(0,0)}} #mobileloop-s-path193_ts {animation: mobileloop-s-path193_ts__ts 9000ms linear infinite normal forwards}@keyframes mobileloop-s-path193_ts__ts { 0% {transform: translate(266.3px,138.88px) scale(0,0)} 11.111111% {transform: translate(266.3px,138.88px) scale(0,0);animation-timing-function: cubic-bezier(0.455,0.03,0.515,0.955)} 16.666667% {transform: translate(266.3px,138.88px) scale(1,1)} 88.888889% {transform: translate(266.3px,138.88px) scale(1,1)} 94.444444% {transform: translate(266.3px,138.88px) scale(0,0)} 100% {transform: translate(266.3px,138.88px) scale(0,0)}} #mobileloop-s-g29_to {animation: mobileloop-s-g29_to__to 9000ms linear infinite normal forwards}@keyframes mobileloop-s-g29_to__to { 0% {transform: translate(378.099413px,-71.039734px)} 11.111111% {transform: translate(378.099413px,-71.039734px);animation-timing-function: cubic-bezier(0.455,0.03,0.515,0.955)} 22.222222% {transform: translate(378.099411px,207.842125px);animation-timing-function: cubic-bezier(0.455,0.03,0.515,0.955)} 44.444444% {transform: translate(378.099411px,234.911451px);animation-timing-function: cubic-bezier(0.455,0.03,0.515,0.955)} 55.555556% {transform: translate(378.099411px,209.528519px)} 66.666667% {transform: translate(378.099411px,234.911451px);animation-timing-function: cubic-bezier(0.455,0.03,0.515,0.955)} 77.777778% {transform: translate(378.099411px,209.528519px)} 100% {transform: translate(378.099411px,209.528519px)}} #mobileloop-s-g29_ts {animation: mobileloop-s-g29_ts__ts 9000ms linear infinite normal forwards}@keyframes mobileloop-s-g29_ts__ts { 0% {transform: scale(0,0)} 11.111111% {transform: scale(0,0);animation-timing-function: cubic-bezier(0.455,0.03,0.515,0.955)} 22.222222% {transform: scale(1,1)} 77.777778% {transform: scale(1,1)} 88.888889% {transform: scale(0,0)} 100% {transform: scale(0,0)}}
]]></style>
<g id="mobileloop-u-background-complete"><g id="mobileloop-s-g1"><g id="mobileloop-s-g2"><polygon id="mobileloop-s-polygon1" points="380.28,29.55 450.46,29.55 450.46,131.29 380.76,131.29 380.28,29.55" fill="#e0e0e0"/><g id="mobileloop-s-g3"><rect id="mobileloop-s-rect1" width="69.53" height="100.79" rx="0" ry="0" transform="matrix(-1 0 0-1 444.550007 130.809996)" fill="#fff"/><path id="mobileloop-s-path1" d="M445.03,29.55v101.74h-70.49v-101.74h70.49Zm-.96,100.79v-99.83h-68.58v99.83h68.58Z" fill="#e0e0e0"/></g><g id="mobileloop-s-g4"><rect id="mobileloop-s-rect2" width="52.26" height="78.96" rx="0" ry="0" transform="translate(383.66 40.94)" fill="#fff"/><path id="mobileloop-s-path2" d="M383.66,40.94c0,0,0,.14.01.39c0,.27,0,.64.01,1.12c0,1,.02,2.45.03,4.34.01,3.79.04,9.31.06,16.27.03,13.92.07,33.63.11,56.84l-.23-.23c15.97,0,33.66-.01,52.25-.02v0l-.25.25c.02-29.78.04-57.24.05-78.96l.2.2c-15.9-.04-28.94-.08-38.02-.1-4.54-.02-8.08-.04-10.51-.05-1.2,0-2.12-.02-2.76-.02-.63,0-.96-.02-.96-.02s.3-.01.92-.02c.63,0,1.54-.01,2.73-.02c2.42-.01,5.95-.03,10.47-.05c9.11-.03,22.19-.06,38.14-.1h.2c0,0,0,.2,0,.2.01,21.71.03,49.17.05,78.96v.25c0,0-.25,0-.25,0v0c-18.59,0-36.28-.01-52.25-.02h-.23c0,0,0-.23,0-.23.05-23.27.08-43.03.11-56.99.03-6.94.05-12.44.06-16.22.01-1.86.02-3.3.03-4.29c0-.47.01-.84.01-1.1c0-.24.01-.36.01-.36Z" fill="#e0e0e0"/></g><path id="mobileloop-s-path3" d="M374.82,130.82c-.05-.04.38-.7,1.12-1.73s1.8-2.44,3.01-3.95c1.21-1.52,2.36-2.85,3.22-3.79s1.43-1.49,1.48-1.44c.11.09-1.89,2.52-4.31,5.54-2.41,3.03-4.41,5.46-4.52,5.37Z" fill="#e0e0e0"/><path id="mobileloop-s-path4" d="M375.02,30.03c.11-.09,2.13,2.29,4.51,5.3c2.39,3.01,4.23,5.53,4.12,5.61-.11.09-2.13-2.29-4.51-5.3-2.39-3.01-4.23-5.53-4.12-5.61Z" fill="#e0e0e0"/><g id="mobileloop-s-g5"><path id="mobileloop-s-path5" d="M444.56,30.11c-3.04,3.75-6.07,7.49-9.11,11.24" fill="#fff"/><path id="mobileloop-s-path6" d="M435.45,41.35c-.11-.09,1.85-2.67,4.36-5.78c2.52-3.1,4.64-5.55,4.75-5.46s-1.85,2.67-4.36,5.78c-2.51,3.1-4.64,5.55-4.75,5.46Z" fill="#e0e0e0"/></g><path id="mobileloop-s-path7" d="M444.55,130.82c-.11.09-2.11-2.26-4.47-5.25-2.36-2.98-4.19-5.47-4.08-5.56s2.11,2.26,4.47,5.25c2.36,2.98,4.18,5.47,4.08,5.56Z" fill="#e0e0e0"/></g><path id="mobileloop-s-path8" d="M413.15,81.57h-9.2l-1.09,2.53c-.36.84-.54,1.54-.54,2.09c0,.73.29,1.27.88,1.61.35.2,1.2.36,2.55.46v.71h-8.66v-.71c.93-.14,1.7-.53,2.3-1.16s1.34-1.94,2.23-3.93l9.31-20.77h.36l9.39,21.35c.9,2.02,1.63,3.3,2.21,3.82.44.4,1.05.63,1.84.69v.71h-12.59v-.71h.52c1.01,0,1.72-.14,2.13-.42.28-.2.42-.5.42-.88c0-.23-.04-.47-.11-.71-.03-.12-.22-.6-.58-1.44l-1.38-3.24Zm-.65-1.42l-3.88-8.97-3.99,8.97h7.87Z" fill="#e0e0e0"/></g><g id="mobileloop-s-g6"><rect id="mobileloop-s-rect3" width="32.06" height="68.62" rx="0" ry="0" transform="translate(5.98 63.41)" fill="#f5f5f5"/><rect id="mobileloop-s-rect4" width="39.39" height="66.3" rx="0" ry="0" transform="translate(39.37 136.83)" fill="#f5f5f5"/><polygon id="mobileloop-s-polygon2" points="83.56,62.23 120.96,62.23 120.96,1.35 122.3,1.35 122.3,62.23 156.92,62.23 156.92,0 83.56,0 83.56,62.23" fill="#f5f5f5"/><rect id="mobileloop-s-rect5" width="32.06" height="66.3" rx="0" ry="0" transform="translate(5.98 136.83)" fill="#f5f5f5"/><rect id="mobileloop-s-rect6" width="34.62" height="66.3" rx="0" ry="0" transform="translate(122.3 136.83)" fill="#f5f5f5"/><rect id="mobileloop-s-rect7" width="39.39" height="68.62" rx="0" ry="0" transform="translate(39.37 63.41)" fill="#f5f5f5"/><rect id="mobileloop-s-rect8" width="34.62" height="68.62" rx="0" ry="0" transform="translate(122.3 63.41)" fill="#f5f5f5"/><rect id="mobileloop-s-rect9" width="32.06" height="59.75" rx="0" ry="0" transform="translate(5.98 204.32)" fill="#f5f5f5"/><polygon id="mobileloop-s-polygon3" points="38.04,62.23 38.04,1.35 39.37,1.35 39.37,62.23 78.76,62.23 78.76,0 5.98,0 5.98,62.23 38.04,62.23" fill="#f5f5f5"/><rect id="mobileloop-s-rect10" width="39.39" height="59.75" rx="0" ry="0" transform="translate(39.37 204.32)" fill="#f5f5f5"/><rect id="mobileloop-s-rect11" width="34.62" height="59.75" rx="0" ry="0" transform="translate(122.3 204.32)" fill="#f5f5f5"/><rect id="mobileloop-s-rect12" width="37.41" height="68.62" rx="0" ry="0" transform="translate(83.56 63.41)" fill="#f5f5f5"/><rect id="mobileloop-s-rect13" width="37.41" height="59.75" rx="0" ry="0" transform="translate(83.56 204.32)" fill="#f5f5f5"/><rect id="mobileloop-s-rect14" width="37.41" height="66.3" rx="0" ry="0" transform="translate(83.56 136.83)" fill="#f5f5f5"/></g><g id="mobileloop-s-g7"><rect id="mobileloop-s-rect15" width="106.94" height="28.34" rx="13.94" ry="13.94" transform="translate(0 284.64)" fill="#e0e0e0"/><g id="mobileloop-s-g8"><path id="mobileloop-s-path9" d="M23.12,297.46c-.06,0-.03-.62-.32-1.68-.28-1.04-.99-2.55-2.55-3.72-.77-.57-1.74-1.05-2.86-1.24-1.11-.18-2.36-.14-3.54.31-1.19.43-2.32,1.24-3.12,2.35-.83,1.1-1.29,2.51-1.3,3.97.01,1.46.48,2.87,1.3,3.97.8,1.12,1.93,1.93,3.12,2.35c1.19.46,2.43.5,3.54.31c1.12-.19,2.09-.67,2.86-1.24c1.56-1.17,2.27-2.68,2.55-3.72.28-1.06.26-1.68.32-1.68.02,0,.03.15.03.45c0,.29-.03.73-.15,1.28-.23,1.08-.91,2.69-2.52,3.96-.8.62-1.82,1.15-3.01,1.37-1.18.21-2.51.19-3.79-.29-1.28-.45-2.5-1.31-3.37-2.5-.89-1.18-1.4-2.71-1.41-4.27.01-1.57.52-3.09,1.41-4.27.87-1.2,2.09-2.06,3.36-2.5c1.28-.47,2.61-.5,3.78-.29c1.18.22,2.2.75,3.01,1.37c1.62,1.27,2.29,2.88,2.52,3.96.12.55.16.99.15,1.28c0,.29-.01.45-.03.45Z" fill="#fff"/><path id="mobileloop-s-path10" d="M28.34,307.13c-.08.12-1.72-.91-3.66-2.29s-3.44-2.6-3.36-2.72s1.72.91,3.66,2.29s3.44,2.6,3.36,2.72Z" fill="#fff"/></g></g><g id="mobileloop-s-g9"><g id="mobileloop-s-g10"><path id="mobileloop-s-path11" d="M245.96,36.55c1.79-1.08,3.69-1.9,5.66-2.46l1.17-5.6l9.46-.17l1.36,5.56c1.98.49,3.92,1.24,5.74,2.26L274.13,33l6.81,6.57-2.96,4.89c1.08,1.79,1.9,3.7,2.46,5.66l5.6,1.17.17,9.46-5.56,1.36c-.49,1.98-1.24,3.91-2.26,5.74l3.13,4.78-6.57,6.81-4.89-2.96c-1.79,1.08-3.69,1.9-5.66,2.46l-1.17,5.6-9.46.17-1.36-5.56c-1.98-.49-3.92-1.24-5.74-2.26l-4.78,3.14-6.81-6.57l2.96-4.89c-1.08-1.79-1.9-3.69-2.46-5.66l-5.6-1.17-.17-9.46l5.56-1.36c.49-1.98,1.24-3.92,2.26-5.74L234.5,40.4l6.57-6.81l4.89,2.97v0ZM251,49.16c-3.89,4.03-3.78,10.46.25,14.36c4.03,3.89,10.46,3.78,14.36-.25c3.89-4.03,3.78-10.46-.25-14.36-4.03-3.89-10.46-3.78-14.36.25Z" fill="#e0e0e0"/><path id="mobileloop-s-path12" d="M251,49.16c0,0,.53-.75,1.89-1.66c1.33-.89,3.67-1.88,6.62-1.57c1.46.16,3.05.64,4.5,1.6c1.44.96,2.79,2.33,3.64,4.1.45.87.76,1.84.92,2.85.18,1.01.21,2.07.06,3.13-.26,2.12-1.26,4.21-2.82,5.85-1.59,1.62-3.64,2.69-5.75,3.02-1.05.19-2.11.2-3.13.05-1.02-.13-1.99-.41-2.88-.82-1.8-.78-3.22-2.09-4.23-3.49-1.01-1.42-1.54-2.99-1.76-4.44-.42-2.94.49-5.31,1.33-6.67.86-1.39,1.59-1.95,1.59-1.95.05.05-.61.67-1.4,2.06-.76,1.37-1.57,3.68-1.12,6.5.23,1.39.76,2.89,1.74,4.23.98,1.32,2.34,2.56,4.05,3.28.84.39,1.77.64,2.73.76.96.13,1.97.12,2.96-.06c2-.32,3.93-1.34,5.43-2.87c1.47-1.55,2.42-3.52,2.67-5.53.15-1,.13-2-.04-2.96-.15-.96-.44-1.88-.86-2.71-.79-1.69-2.07-3-3.42-3.93-1.37-.93-2.89-1.41-4.28-1.59-2.83-.35-5.11.54-6.46,1.35-1.37.83-1.96,1.52-2.01,1.47Z" fill="#e0e0e0"/><path id="mobileloop-s-path13" d="M245.96,36.55c0,0-.11-.05-.32-.17-.23-.13-.54-.31-.94-.54-.85-.5-2.09-1.23-3.69-2.18h.11c-1.67,1.74-3.87,4.04-6.53,6.83l.02-.18c.96,1.45,2.02,3.05,3.15,4.77l.06.09-.05.09c-.93,1.68-1.71,3.6-2.22,5.7l-.03.11-.11.03c-1.73.43-3.6.89-5.55,1.38l.16-.2c.06,2.98.12,6.14.19,9.46l-.18-.22c1.73.36,3.64.75,5.6,1.15l.14.03.04.14c.52,1.83,1.33,3.77,2.44,5.6l.08.13-.08.13c-.92,1.52-1.93,3.19-2.96,4.89l-.04-.32c2.14,2.06,4.45,4.29,6.82,6.57l-.34-.03c1.49-.98,3.12-2.05,4.78-3.14l.14-.09.15.08c1.67.93,3.62,1.72,5.67,2.23l.17.04.04.17c.43,1.74.89,3.64,1.37,5.56l-.28-.22c3-.05,6.21-.11,9.46-.17l-.28.23c.37-1.77.76-3.68,1.16-5.6l.04-.17.17-.05c1.86-.53,3.79-1.34,5.58-2.43v0c0,0,.15-.09.15-.09l.15.09c1.64,1,3.27,1.98,4.89,2.97l-.36.05c2.22-2.3,4.41-4.57,6.58-6.81l-.03.36c-1.05-1.61-2.1-3.21-3.13-4.78l-.09-.14.08-.15c1.01-1.8,1.75-3.72,2.23-5.67l.04-.17.17-.04c1.88-.46,3.73-.91,5.56-1.36l-.21.27c-.05-3.23-.11-6.39-.16-9.46l.21.26c-1.9-.4-3.77-.79-5.6-1.17l-.16-.03-.04-.15c-.57-2.01-1.39-3.89-2.42-5.6l-.08-.13.08-.13c1.02-1.67,2.01-3.3,2.97-4.88l.04.3c-2.39-2.32-4.65-4.51-6.8-6.59l.28.03c-1.68,1.1-3.27,2.13-4.79,3.12l-.11.07-.11-.06c-1.91-1.07-3.82-1.79-5.69-2.26l-.11-.03-.03-.11c-.49-2.02-.93-3.84-1.34-5.56l.17.13c-3.67.05-6.79.09-9.46.12l.13-.1c-.48,2.23-.87,4.07-1.2,5.59v.06c0,0-.07.02-.07.02-2,.56-3.41,1.21-4.33,1.66-.44.23-.77.4-1.02.53-.23.13-.34.18-.34.17c0,0,.11-.08.32-.21.22-.13.54-.33,1-.57.91-.48,2.31-1.17,4.32-1.76l-.07.07c.31-1.53.68-3.37,1.13-5.61l.02-.1h.11c2.67-.06,5.8-.13,9.46-.21h.14c0,0,.03.13.03.13.43,1.72.88,3.53,1.38,5.55l-.14-.14c1.9.46,3.85,1.19,5.8,2.26h-.22c1.52-.99,3.1-2.03,4.78-3.14l.15-.1.13.12c2.16,2.07,4.42,4.25,6.82,6.56l.14.13-.1.17c-.96,1.59-1.94,3.22-2.96,4.89v-.26c1.06,1.74,1.91,3.67,2.49,5.72l-.2-.18c1.83.38,3.7.77,5.6,1.16l.21.04v.21c.06,3.08.12,6.23.18,9.46v.22c0,0-.21.05-.21.05-1.83.45-3.68.9-5.56,1.37l.21-.21c-.49,2-1.25,3.97-2.28,5.81v-.3c1.02,1.58,2.07,3.17,3.13,4.78l.13.19-.16.17c-2.16,2.24-4.35,4.51-6.57,6.81l-.16.17-.2-.12c-1.62-.98-3.25-1.97-4.89-2.96h.3c0,0,0,0,0,0-1.84,1.11-3.81,1.95-5.73,2.49l.2-.22c-.4,1.92-.8,3.83-1.17,5.6l-.05.23h-.23c-3.26.06-6.47.11-9.46.17h-.23c0,0-.05-.22-.05-.22-.47-1.92-.93-3.82-1.36-5.56l.21.21c-2.1-.52-4.1-1.33-5.81-2.29h.29c-1.66,1.07-3.3,2.15-4.79,3.12l-.18.12-.16-.15c-2.36-2.29-4.66-4.52-6.8-6.58l-.15-.14.11-.18c1.03-1.7,2.05-3.37,2.97-4.88v.26c-1.13-1.87-1.95-3.86-2.48-5.72l.18.17c-1.96-.41-3.87-.81-5.6-1.18l-.18-.04v-.18c-.05-3.32-.1-6.48-.15-9.46v-.17c0,0,.16-.04.16-.04c1.95-.47,3.83-.93,5.56-1.35l-.14.14c.53-2.14,1.34-4.08,2.29-5.78v.18c-1.12-1.73-2.17-3.34-3.11-4.8l-.06-.1.08-.08c2.69-2.76,4.92-5.04,6.61-6.77l.05-.05.06.04c1.56.97,2.77,1.72,3.6,2.24.39.25.7.44.93.59.21.13.31.21.31.21Z" fill="#e0e0e0"/></g><g id="mobileloop-s-g11"><path id="mobileloop-s-path14" d="M294.15,18.91c.72-.44,1.49-.77,2.28-.99l.47-2.26l3.81-.07.55,2.24c.8.2,1.58.5,2.31.91l1.93-1.26l2.74,2.65-1.19,1.97c.44.72.77,1.49.99,2.28l2.25.47.07,3.81-2.24.55c-.2.8-.5,1.58-.91,2.31l1.26,1.93-2.65,2.74L303.85,35c-.72.44-1.49.77-2.28.99l-.47,2.26-3.81.07-.55-2.24c-.8-.2-1.58-.5-2.31-.91l-1.93,1.26-2.74-2.65l1.19-1.97c-.44-.72-.77-1.49-.99-2.28l-2.26-.47-.07-3.81l2.24-.55c.2-.8.5-1.58.91-2.31l-1.26-1.93l2.65-2.74l1.97,1.19v0Zm2.03,5.08c-1.57,1.62-1.52,4.21.1,5.78s4.21,1.52,5.78-.1s1.52-4.21-.1-5.78-4.21-1.52-5.78.1Z" fill="#f5f5f5"/><path id="mobileloop-s-path15" d="M296.18,23.98c0,0,.21-.3.76-.67.54-.36,1.48-.76,2.67-.63.59.07,1.23.26,1.81.64.58.39,1.12.94,1.47,1.65.18.35.3.74.37,1.15s.08.83.02,1.26c-.1.85-.51,1.7-1.13,2.36-.64.65-1.47,1.08-2.32,1.22-.42.08-.85.08-1.26.02-.41-.05-.8-.16-1.16-.33-.73-.32-1.3-.84-1.7-1.41-.41-.57-.62-1.21-.71-1.79-.17-1.19.2-2.14.54-2.69.35-.56.64-.78.64-.78.02.02-.25.27-.56.83-.31.55-.63,1.48-.45,2.62.09.56.31,1.16.7,1.7.39.53.94,1.03,1.63,1.32.34.16.71.26,1.1.31s.79.05,1.19-.03c.8-.13,1.58-.54,2.19-1.15.59-.63.98-1.42,1.08-2.22.06-.4.05-.81-.02-1.19-.06-.39-.18-.76-.34-1.09-.32-.68-.83-1.21-1.38-1.58-.55-.38-1.16-.57-1.72-.64-1.14-.14-2.06.22-2.6.54-.55.33-.79.61-.81.59Z" fill="#f5f5f5"/><path id="mobileloop-s-path16" d="M294.15,18.91c0,0-.04-.02-.13-.07s-.22-.13-.38-.22c-.34-.2-.84-.5-1.48-.88h.05c-.67.7-1.56,1.63-2.63,2.75v-.07c.39.58.82,1.23,1.28,1.92l.02.03-.02.04c-.37.68-.69,1.45-.89,2.3v.05c0,0-.06.01-.06.01-.7.17-1.45.36-2.24.55l.06-.08c.02,1.2.05,2.47.08,3.81l-.07-.09c.7.14,1.47.3,2.26.46h.06c0,0,.02.07.02.07.21.74.54,1.52.98,2.25l.03.05-.03.05c-.37.61-.78,1.28-1.19,1.97l-.02-.13c.86.83,1.79,1.73,2.74,2.64h-.14c.6-.41,1.26-.84,1.92-1.28l.06-.04.06.03c.67.37,1.46.69,2.28.9l.07.02.02.07c.17.7.36,1.46.55,2.24l-.11-.09c1.21-.02,2.5-.04,3.81-.07l-.11.09c.15-.71.31-1.48.47-2.26v-.07c0,0,.08-.02.08-.02.75-.21,1.53-.54,2.25-.98v0c0,0,.06-.04.06-.04l.06.04c.66.4,1.32.8,1.97,1.19l-.14.02c.89-.93,1.78-1.84,2.65-2.74v.14c-.44-.65-.86-1.29-1.27-1.93l-.04-.06.03-.06c.4-.72.71-1.5.9-2.28l.02-.07.07-.02c.76-.18,1.5-.37,2.24-.55l-.08.11c-.02-1.3-.04-2.57-.06-3.81l.09.1c-.76-.16-1.52-.32-2.25-.47h-.06c0,0-.02-.07-.02-.07-.23-.81-.56-1.57-.98-2.25l-.03-.05.03-.05c.41-.67.81-1.33,1.2-1.97l.02.12c-.96-.93-1.87-1.81-2.74-2.65h.11c-.68.45-1.31.87-1.93,1.27l-.04.03-.04-.02c-.77-.43-1.54-.72-2.29-.91h-.05c0,0-.01-.06-.01-.06-.2-.81-.37-1.55-.54-2.24l.07.05c-1.48.02-2.73.04-3.81.05l.05-.04c-.19.9-.35,1.64-.48,2.25v.02c0,0-.03,0-.03,0-.81.23-1.37.49-1.74.67-.18.09-.31.16-.41.21-.09.05-.14.07-.14.07s.04-.03.13-.09c.09-.05.22-.13.4-.23.36-.19.93-.47,1.74-.71l-.03.03c.12-.62.27-1.36.45-2.26v-.04c0,0,.05,0,.05,0c1.08-.02,2.33-.05,3.81-.08h.06c0,0,.01.05.01.05.17.69.35,1.42.56,2.23l-.06-.06c.77.19,1.55.48,2.33.91h-.09c.61-.4,1.25-.82,1.92-1.26l.06-.04.05.05c.87.83,1.78,1.71,2.75,2.64l.06.05-.04.07c-.39.64-.78,1.29-1.19,1.97v-.1c.43.7.77,1.48,1,2.3l-.08-.07c.74.15,1.49.31,2.26.47l.08.02v.09c.02,1.24.05,2.51.07,3.81v.09c0,0-.09.02-.09.02-.74.18-1.48.36-2.24.55l.08-.08c-.2.81-.51,1.6-.92,2.34v-.12c.41.64.83,1.28,1.26,1.93l.05.08-.06.07c-.87.9-1.75,1.82-2.65,2.74l-.06.07-.08-.05c-.65-.39-1.31-.79-1.97-1.19h.12c0,0,0,0,0,0-.74.45-1.54.78-2.31,1l.08-.09c-.16.77-.32,1.54-.47,2.25l-.02.09h-.09c-1.31.02-2.6.05-3.81.07h-.09c0,0-.02-.09-.02-.09-.19-.77-.38-1.54-.55-2.24l.08.08c-.85-.21-1.65-.54-2.34-.92h.12c-.67.43-1.33.86-1.93,1.26l-.07.05-.06-.06c-.95-.92-1.88-1.82-2.74-2.65l-.06-.06.04-.07c.42-.68.83-1.36,1.2-1.97v.1c-.45-.75-.79-1.55-1-2.3l.07.07c-.79-.17-1.56-.33-2.25-.47l-.07-.02v-.07c-.02-1.34-.04-2.61-.06-3.81v-.07c0,0,.06-.02.06-.02.79-.19,1.54-.37,2.24-.54l-.06.06c.21-.86.54-1.64.92-2.33v.07c-.45-.7-.87-1.35-1.25-1.93l-.03-.04.03-.03c1.08-1.11,1.98-2.03,2.66-2.73l.02-.02.02.02c.63.39,1.11.69,1.45.9.16.1.28.18.37.24.08.05.13.08.13.09Z" fill="#f5f5f5"/></g><g id="mobileloop-s-g12"><path id="mobileloop-s-path17" d="M320.04,110.95v-.02c0,0-1.74-7.07-1.74-7.07-2.55-.63-5.01-1.6-7.3-2.87l-6.11,4h-.01c0,0-8.7-8.42-8.7-8.42v-.02c0,0,3.78-6.22,3.78-6.22-1.36-2.25-2.41-4.67-3.13-7.2l-7.15-1.49v-.02c0,0-.21-12.09-.21-12.09h.02c0,0,7.07-1.74,7.07-1.74.63-2.55,1.6-5.01,2.87-7.3l-4-6.11h.01c0,0,8.4-8.72,8.4-8.72h.02c0,0,6.23,3.79,6.23,3.79c2.24-1.35,4.67-2.41,7.2-3.13l1.49-7.15h.02c0,0,12.09-.21,12.09-.21v.02c0,0,1.74,7.07,1.74,7.07c2.56.63,5.01,1.6,7.3,2.87l6.11-4h.01c0,0,8.7,8.42,8.7,8.42v.02c0,0-3.78,6.22-3.78,6.22c1.36,2.25,2.41,4.67,3.13,7.2l7.15,1.49v.02c0,0,.21,12.09.21,12.09h-.02c0,0-7.07,1.74-7.07,1.74-.63,2.55-1.6,5.01-2.87,7.3l4,6.11h-.01c0,0-8.4,8.72-8.4,8.72h-.02c0,0-6.23-3.78-6.23-3.78-2.25,1.36-4.67,2.41-7.2,3.13l-1.49,7.15h-.02c0,0-12.09.21-12.09.21ZM311,100.92h.01c2.3,1.29,4.76,2.26,7.32,2.89h.01c0,0,0,.02,0,.02l1.73,7.07l12.03-.21l1.49-7.14h.01c2.54-.72,4.96-1.78,7.21-3.14h.01c0,0,.01,0,.01,0l6.22,3.77l8.36-8.66-4-6.1v0c1.28-2.31,2.25-4.77,2.88-7.33v0c0,0,.01-.02.01-.02l7.07-1.73-.21-12.03-7.14-1.49v0c-.72-2.55-1.78-4.98-3.13-7.23v0c0,0,0-.03,0-.03l3.77-6.22L346,44.98l-6.1,4h-.01c-2.3-1.29-4.76-2.26-7.32-2.89h-.01c0,0,0-.02,0-.02L330.83,39l-12.03.21-1.49,7.14h-.01c-2.54.73-4.96,1.78-7.21,3.14h-.01c0,0-.01,0-.01,0l-6.22-3.77-8.36,8.66l4,6.1v0c-1.28,2.31-2.25,4.77-2.88,7.33v0c0,0-.01.02-.01.02l-7.07,1.73.21,12.03l7.14,1.49v0c.72,2.55,1.77,4.98,3.13,7.23v0c0,0,0,.03,0,.03l-3.77,6.22l8.66,8.36l6.1-4Zm14.84-13.39c-3.38,0-6.57-1.29-9.01-3.64-5.15-4.97-5.29-13.2-.32-18.35c2.41-2.49,5.64-3.9,9.11-3.96.08,0,.16,0,.23,0c3.38,0,6.57,1.29,9.01,3.64c2.49,2.41,3.9,5.64,3.96,9.11s-1.23,6.75-3.64,9.24-5.64,3.9-9.11,3.96c-.08,0-.16,0-.23,0Zm-9.31-21.98l.02.02c-4.95,5.13-4.81,13.33.32,18.28c2.43,2.34,5.61,3.63,8.97,3.63.08,0,.16,0,.23,0c3.45-.06,6.68-1.46,9.07-3.95c2.4-2.48,3.69-5.75,3.62-9.21-.06-3.45-1.46-6.68-3.95-9.07-2.43-2.34-5.61-3.63-8.97-3.63-.08,0-.15,0-.23,0-3.45.06-6.68,1.46-9.07,3.95l-.02-.02Z" fill="#e0e0e0"/><path id="mobileloop-s-path18" d="M316.53,65.57c0,0,.68-.95,2.41-2.12c1.7-1.13,4.68-2.4,8.45-2c1.86.21,3.89.81,5.74,2.04c1.83,1.23,3.56,2.97,4.64,5.23.57,1.11.96,2.35,1.18,3.64.23,1.29.27,2.64.07,3.99-.33,2.71-1.61,5.37-3.6,7.47-2.02,2.06-4.64,3.43-7.34,3.86-1.34.24-2.69.26-3.99.07-1.3-.17-2.54-.52-3.68-1.05-2.3-1-4.1-2.67-5.39-4.46-1.29-1.81-1.97-3.82-2.24-5.67-.53-3.76.63-6.77,1.7-8.52c1.1-1.77,2.03-2.48,2.03-2.48.07.06-.78.85-1.78,2.63-.98,1.75-2.01,4.7-1.43,8.29.3,1.77.97,3.68,2.22,5.39c1.25,1.69,2.98,3.26,5.17,4.19c1.08.5,2.26.82,3.49.97c1.23.17,2.51.15,3.77-.08c2.55-.41,5.01-1.71,6.93-3.66c1.88-1.98,3.09-4.49,3.41-7.05.19-1.27.16-2.55-.05-3.77-.2-1.22-.56-2.39-1.09-3.45-1.01-2.15-2.64-3.83-4.37-5.02-1.75-1.19-3.68-1.8-5.47-2.03-3.61-.45-6.52.69-8.24,1.72-1.74,1.06-2.5,1.94-2.56,1.87Z" fill="#ebebeb"/><path id="mobileloop-s-path19" d="M310.1,49.48c0,0-.13-.06-.4-.21-.29-.17-.69-.4-1.2-.69-1.09-.64-2.66-1.57-4.7-2.78l.15-.02c-2.13,2.24-4.94,5.18-8.34,8.74l.02-.23c1.22,1.84,2.57,3.89,4.02,6.09l.07.11-.06.12c-1.19,2.15-2.18,4.59-2.84,7.28l-.03.14-.14.04c-2.21.55-4.6,1.14-7.08,1.76l.2-.26c.08,3.8.16,7.84.24,12.07l-.23-.28c2.21.46,4.65.96,7.15,1.47l.18.04.05.18c.66,2.33,1.7,4.81,3.12,7.14l.1.17-.1.17c-1.17,1.94-2.46,4.07-3.77,6.24l-.05-.41c2.73,2.63,5.68,5.47,8.7,8.38l-.43-.04c1.9-1.25,3.99-2.62,6.1-4.01l.18-.12.19.1c2.13,1.19,4.62,2.2,7.24,2.84l.21.05.05.21c.55,2.22,1.14,4.64,1.74,7.09l-.36-.28c3.82-.07,7.92-.14,12.07-.22l-.35.29c.47-2.26.98-4.69,1.49-7.15l.05-.22.22-.06c2.38-.67,4.84-1.71,7.12-3.09v0c0,0,.19-.12.19-.12l.19.12c2.09,1.27,4.18,2.53,6.24,3.78l-.46.06c2.83-2.93,5.63-5.83,8.39-8.68l-.04.46c-1.35-2.05-2.68-4.09-4-6.1l-.12-.18.11-.19c1.28-2.3,2.24-4.74,2.85-7.23l.05-.21.21-.05c2.4-.59,4.76-1.16,7.09-1.73l-.27.35c-.07-4.12-.13-8.15-.2-12.07l.27.33c-2.42-.51-4.8-1.01-7.14-1.5l-.2-.04-.05-.19c-.72-2.56-1.78-4.96-3.09-7.14l-.1-.17.1-.17c1.3-2.14,2.56-4.21,3.79-6.23l.05.38c-3.05-2.96-5.93-5.75-8.67-8.4l.35.03c-2.15,1.4-4.17,2.72-6.11,3.98l-.14.09-.14-.08c-2.43-1.36-4.87-2.28-7.25-2.88l-.14-.04-.03-.14c-.62-2.58-1.18-4.9-1.71-7.09l.22.17c-4.68.06-8.66.11-12.07.16l.16-.13c-.61,2.85-1.11,5.19-1.53,7.14l-.02.07-.07.02c-2.56.71-4.35,1.55-5.52,2.12-.56.29-.99.51-1.3.68-.29.16-.43.23-.43.22c0,0,.14-.1.4-.27.28-.17.69-.42,1.27-.73c1.16-.61,2.95-1.49,5.51-2.24l-.08.09c.39-1.95.87-4.3,1.44-7.16l.03-.13h.13c3.41-.08,7.4-.17,12.07-.27h.17c0,0,.04.17.04.17.54,2.19,1.12,4.51,1.76,7.08l-.18-.18c2.43.59,4.91,1.51,7.4,2.89h-.28c1.94-1.27,3.95-2.59,6.09-4l.19-.12.16.16c2.75,2.65,5.64,5.43,8.7,8.37l.18.17-.13.21c-1.22,2.03-2.48,4.1-3.77,6.24v-.33c1.35,2.22,2.44,4.68,3.18,7.3l-.25-.23c2.34.48,4.72.98,7.15,1.48l.27.06v.27c.08,3.93.15,7.95.23,12.07v.28c0,0-.27.07-.27.07-2.33.57-4.69,1.15-7.09,1.74l.26-.26c-.63,2.56-1.6,5.06-2.91,7.42v-.38c1.31,2.01,2.64,4.05,3.99,6.1l.16.25-.2.21c-2.76,2.86-5.55,5.75-8.38,8.69l-.21.21-.25-.15c-2.06-1.25-4.14-2.51-6.24-3.78h.38c0,0,0,0,0,0-2.34,1.42-4.87,2.48-7.3,3.17l.26-.28c-.51,2.45-1.02,4.89-1.49,7.15l-.06.29h-.29c-4.15.08-8.25.15-12.07.21h-.29c0,0-.07-.28-.07-.28-.6-2.45-1.19-4.87-1.73-7.09l.26.26c-2.68-.66-5.23-1.7-7.41-2.92h.36c-2.12,1.37-4.2,2.74-6.11,3.98l-.23.15-.2-.19c-3.01-2.92-5.95-5.76-8.68-8.4l-.19-.18.14-.23c1.32-2.17,2.62-4.3,3.79-6.23v.33c-1.44-2.39-2.49-4.92-3.16-7.3l.23.22c-2.5-.52-4.93-1.04-7.14-1.5l-.23-.05v-.23c-.07-4.24-.13-8.27-.19-12.07v-.21c0,0,.2-.05.2-.05c2.49-.6,4.88-1.18,7.09-1.72l-.18.18c.68-2.72,1.71-5.2,2.93-7.37v.23c-1.42-2.2-2.76-4.26-3.97-6.12l-.08-.13.1-.11c3.44-3.52,6.28-6.43,8.44-8.64l.07-.07.08.05c1.99,1.24,3.53,2.2,4.6,2.86.5.32.89.57,1.18.75.27.17.4.26.4.27Z" fill="#ebebeb"/></g></g><g id="mobileloop-s-g13"><path id="mobileloop-s-path20" d="M397.37,440.07c0,0-15.04-77.94-15.08-93.97-.05-22.19,16.94-31.02,16.94-31.02l-6.6-18.82h36.3l-5.73,18.69c0,0,19.11,10.13,16.45,33.15-4.98,43.03-12.93,91.98-12.93,91.98h-29.35Z" fill="#ebebeb"/><path id="mobileloop-s-path21" d="M431.99,323.92c0,0-.14,0-.4-.03-.27-.03-.66-.06-1.18-.05-1.03,0-2.59.19-4.41.97-1.82.76-3.84,2.18-5.65,4.32-.91,1.06-1.78,2.3-2.6,3.66-.81,1.37-1.63,2.85-2.28,4.48-.64,1.63-1.12,3.44-1.06,5.35.06,1.88.77,3.86,2.15,5.35.7.73,1.57,1.33,2.57,1.61.99.29,2.08.27,3.09-.08c2.02-.72,3.69-2.54,4.35-4.7.72-2.18,0-4.68-1.52-6.51-1.51-1.86-3.78-3.15-6.22-3.61-2.47-.43-5.08-.03-7.5.9-2.43.94-4.71,2.36-6.74,4.11-4.06,3.49-6.97,8.19-7.93,13.15-.49,2.47-.48,5,.15,7.35.55,2.35,1.8,4.49,3.58,5.93.88.72,1.92,1.23,3.01,1.38c1.08.17,2.2-.06,3.1-.61c1.83-1.13,2.73-3.32,2.77-5.32.02-1.01-.17-2.01-.58-2.9-.41-.88-1.03-1.65-1.73-2.28-1.42-1.27-3.19-1.96-4.9-2.28-3.47-.65-6.71.28-9.15,1.58-2.47,1.32-4.22,3.08-5.4,4.65-1.19,1.58-1.82,3-2.18,3.97-.36.98-.48,1.52-.51,1.51c0,0,.08-.55.42-1.54.33-.99.94-2.44,2.12-4.06c1.17-1.61,2.92-3.41,5.42-4.78c2.47-1.35,5.78-2.33,9.36-1.69c1.76.32,3.6,1.02,5.1,2.34.74.66,1.39,1.46,1.85,2.4.44.94.65,2.01.63,3.08-.04,2.12-.96,4.44-2.96,5.7-.99.61-2.22.87-3.4.68-1.19-.16-2.3-.71-3.24-1.47-1.88-1.52-3.18-3.76-3.76-6.18-.65-2.42-.66-5.03-.17-7.57.99-5.1,3.95-9.88,8.1-13.45c2.07-1.79,4.4-3.23,6.89-4.2c2.49-.96,5.2-1.38,7.78-.92c2.57.49,4.92,1.84,6.52,3.8.79.98,1.39,2.11,1.69,3.32.32,1.2.26,2.49-.1,3.64-.72,2.31-2.47,4.22-4.66,5-1.09.38-2.29.4-3.37.08s-2.02-.97-2.76-1.74c-1.46-1.59-2.18-3.66-2.24-5.63-.05-1.98.45-3.84,1.12-5.5s1.51-3.15,2.34-4.52c.84-1.37,1.72-2.61,2.66-3.68c1.86-2.15,3.94-3.57,5.8-4.32c1.86-.76,3.44-.91,4.49-.88s1.59.19,1.59.19Z" fill="#e0e0e0"/><path id="mobileloop-s-path22" d="M432.93,382.79c0,0,.19,1.43-.33,3.96-.27,1.26-.74,2.78-1.59,4.4-.84,1.62-2.06,3.36-3.8,4.89-1.72,1.54-4,2.82-6.64,3.49-2.63.67-5.65.76-8.6-.13-2.95-.87-5.76-2.77-7.75-5.46-2-2.66-3.26-6.13-2.97-9.7.16-1.76.78-3.58,2.15-4.78c1.35-1.23,3.33-1.47,4.95-.98c1.64.47,3.08,1.58,3.83,3.07.75,1.48.84,3.18.5,4.69-.34,1.52-1.08,2.9-2.08,3.98-1,1.09-2.23,1.86-3.48,2.4-2.54,1.06-5.16,1.22-7.44.94-2.3-.27-4.3-.99-5.92-1.82-1.64-.83-2.9-1.8-3.85-2.66-1.89-1.75-2.57-3.04-2.57-3.04s.07.06.18.19c.13.16.28.36.48.6.45.5,1.08,1.27,2.05,2.09.96.83,2.22,1.76,3.84,2.55c1.61.8,3.58,1.47,5.83,1.72c2.24.26,4.79.07,7.23-.97c1.21-.53,2.38-1.28,3.32-2.31.93-1.03,1.63-2.34,1.95-3.77.31-1.43.21-3.01-.48-4.36-.68-1.35-2.02-2.38-3.53-2.81-1.5-.44-3.27-.22-4.47.88-1.22,1.08-1.82,2.76-1.97,4.44-.27,3.41.93,6.78,2.86,9.35c1.92,2.61,4.63,4.46,7.48,5.31c2.85.87,5.79.8,8.36.17c2.58-.63,4.81-1.86,6.5-3.35c1.72-1.48,2.94-3.17,3.79-4.75.86-1.58,1.35-3.07,1.65-4.31.31-1.24.38-2.23.46-2.89.02-.31.03-.56.04-.76.01-.17.02-.26.03-.26Z" fill="#e0e0e0"/><path id="mobileloop-s-path23" d="M426.17,419.52c-.05.1-1.63-.75-4.37-1.55-.69-.19-1.44-.4-2.27-.54-.82-.19-1.71-.28-2.65-.4-1.88-.17-3.96-.2-6.12.03-2.16.26-4.19.74-5.98,1.32-.89.33-1.74.61-2.49.97-.78.32-1.47.69-2.1,1.03-2.5,1.38-3.86,2.56-3.92,2.47-.02-.03.31-.33.93-.84.31-.27.69-.58,1.17-.89.48-.32,1-.72,1.64-1.06.63-.37,1.32-.76,2.1-1.1.76-.39,1.62-.69,2.52-1.04c1.82-.61,3.88-1.12,6.08-1.38c2.21-.23,4.32-.19,6.23,0c.95.14,1.86.24,2.68.46.84.16,1.6.39,2.29.61.7.19,1.3.46,1.83.67.54.2.98.42,1.34.61.72.37,1.11.59,1.09.62Z" fill="#e0e0e0"/><path id="mobileloop-s-path24" d="M423.63,316.06c0,0-.41.33-1.2.84-.79.52-1.97,1.21-3.46,2-2.98,1.59-7.28,3.46-12.27,4.8-4.99,1.33-9.65,1.87-13.03,1.98-1.69.06-3.05.05-3.99,0s-1.46-.09-1.46-.13.52-.06,1.46-.08c.94,0,2.3-.05,3.97-.16c3.35-.21,7.96-.8,12.91-2.12c4.94-1.33,9.23-3.13,12.24-4.63c1.5-.74,2.7-1.38,3.52-1.85.82-.46,1.29-.7,1.3-.67Z" fill="#e0e0e0"/><path id="mobileloop-s-path25" d="M428.21,297.16c0,.05-.89-.08-2.5-.08-1.6,0-3.95.18-6.67,1.09-1.36.45-2.8,1.08-4.25,1.94-.72.43-1.44.92-2.14,1.48-.71.55-1.39,1.16-1.95,1.9-.57.73-1.04,1.58-1.2,2.51-.16.92.13,1.91.84,2.57.69.68,1.68,1.07,2.68,1.35c1.01.26,2.1.58,3.07.35c1-.22,1.57-1.2,1.65-2.2.1-1.02-.17-2.02-.61-2.92-.87-1.83-2.41-3.19-4.05-4.07-1.65-.89-3.43-1.3-5.09-1.38-1.67-.04-3.22.25-4.58.68-2.73.88-4.68,2.22-5.98,3.15-.64.48-1.13.87-1.46,1.14s-.5.41-.52.39c-.01-.01.14-.18.45-.47.31-.3.78-.71,1.41-1.22c1.27-.99,3.21-2.39,5.99-3.34c1.38-.46,2.97-.78,4.71-.76c1.72.06,3.58.47,5.3,1.39c1.71.9,3.34,2.32,4.28,4.27.47.95.78,2.06.67,3.2-.07.56-.22,1.14-.57,1.64-.34.5-.88.87-1.47,1.01-1.21.26-2.3-.1-3.34-.36-1.04-.3-2.1-.7-2.9-1.49-.82-.77-1.17-1.97-.97-3.01.18-1.05.7-1.96,1.31-2.73.6-.78,1.33-1.41,2.05-1.96.72-.56,1.46-1.06,2.2-1.49c1.48-.86,2.96-1.48,4.35-1.92c2.79-.87,5.17-1,6.79-.94.81.03,1.44.09,1.86.16.42.06.64.11.64.12Z" fill="#e0e0e0"/></g></g><g id="mobileloop-u-floor"><path id="mobileloop-s-path26" d="M438.49,440.07c0,.14-93.4.26-208.58.26s-208.6-.12-208.6-.26s93.38-.26,208.6-.26s208.58.12,208.58.26Z" fill="#263238"/></g><g id="mobileloop-u-device"><g id="mobileloop-s-g14"><path id="mobileloop-s-path27" d="M304.22,439.43l-129.45-.08c-15.57,0-28.18-12.63-28.18-28.2l.06-324.52c0-15.58,12.64-28.2,28.21-28.19l129.45.08c15.57,0,28.18,12.63,28.18,28.2l-.06,324.52c0,15.58-12.64,28.2-28.21,28.19Z" fill="#31544e"/><path id="mobileloop-s-path28" d="M304.18,69.99h-25.1c-3.37-.02-6.1,2.83-6.09,6.35v4.55c0,3.52-2.73,6.37-6.1,6.37l-48.92-.03c-3.37,0-6.09-2.86-6.09-6.37v-4.55c0-3.52-2.73-6.37-6.09-6.37h-8.83c0,0-21.97-.02-21.97-.02-10.91,0-19.76,8.83-19.76,19.74l-.06,316.76c0,10.9,8.83,19.75,19.74,19.75l129.19.08c10.91,0,19.76-8.83,19.76-19.74l.06-316.76c0-10.9-8.83-19.74-19.74-19.75Z" fill="#fff"/></g><g id="mobileloop-s-g15"><path id="mobileloop-s-path29" d="M306.42,249.45c0-.14,1.55-.26,3.46-.26.56,0,1.08,0,1.54.03l-.23.23c.04-1.14.13-1.92.23-1.92s.19.78.23,1.92v.22c0,0-.23,0-.23,0-.46.02-.98.03-1.54.03-1.91,0-3.46-.12-3.46-.26Z" fill="#e0e0e0"/><path id="mobileloop-s-path30" d="M296.42,249.45c0-.14,1.12-.26,2.5-.26s2.5.12,2.5.26-1.12.26-2.5.26-2.5-.12-2.5-.26Z" fill="#e0e0e0"/><path id="mobileloop-s-path31" d="M286.42,249.45c0-.14,1.12-.26,2.5-.26s2.5.12,2.5.26-1.12.26-2.5.26-2.5-.12-2.5-.26Z" fill="#e0e0e0"/><path id="mobileloop-s-path32" d="M276.42,249.45c0-.14,1.12-.26,2.5-.26s2.5.12,2.5.26-1.12.26-2.5.26-2.5-.12-2.5-.26Z" fill="#e0e0e0"/><path id="mobileloop-s-path33" d="M266.42,249.45c0-.14,1.12-.26,2.5-.26s2.5.12,2.5.26-1.12.26-2.5.26-2.5-.12-2.5-.26Z" fill="#e0e0e0"/><path id="mobileloop-s-path34" d="M256.42,249.45c0-.14,1.12-.26,2.5-.26s2.5.12,2.5.26-1.12.26-2.5.26-2.5-.12-2.5-.26Z" fill="#e0e0e0"/><path id="mobileloop-s-path35" d="M246.42,249.45c0-.14,1.12-.26,2.5-.26s2.5.12,2.5.26-1.12.26-2.5.26-2.5-.12-2.5-.26Z" fill="#e0e0e0"/><path id="mobileloop-s-path36" d="M236.42,249.45c0-.14,1.12-.26,2.5-.26s2.5.12,2.5.26-1.12.26-2.5.26-2.5-.12-2.5-.26Z" fill="#e0e0e0"/><path id="mobileloop-s-path37" d="M226.42,249.45c0-.14,1.12-.26,2.5-.26s2.5.12,2.5.26-1.12.26-2.5.26-2.5-.12-2.5-.26Z" fill="#e0e0e0"/><path id="mobileloop-s-path38" d="M216.42,249.45c0-.14,1.12-.26,2.5-.26s2.5.12,2.5.26-1.12.26-2.5.26-2.5-.12-2.5-.26Z" fill="#e0e0e0"/><path id="mobileloop-s-path39" d="M206.42,249.45c0-.14,1.12-.26,2.5-.26s2.5.12,2.5.26-1.12.26-2.5.26-2.5-.12-2.5-.26Z" fill="#e0e0e0"/><path id="mobileloop-s-path40" d="M200.5,245.37c.14,0,.26,1.12.26,2.5c0,.6-.02,1.15-.06,1.58l-.2-.2c.57.05.92.12.92.2s-.36.15-.92.2l-.18.02-.02-.22c-.04-.42-.06-.98-.06-1.58c0-1.38.12-2.5.26-2.5Z" fill="#e0e0e0"/><path id="mobileloop-s-path41" d="M200.5,235.37c.14,0,.26,1.12.26,2.5s-.12,2.5-.26,2.5-.26-1.12-.26-2.5.12-2.5.26-2.5Z" fill="#e0e0e0"/><path id="mobileloop-s-path42" d="M200.5,225.37c.14,0,.26,1.12.26,2.5s-.12,2.5-.26,2.5-.26-1.12-.26-2.5.12-2.5.26-2.5Z" fill="#e0e0e0"/><path id="mobileloop-s-path43" d="M200.5,215.37c.14,0,.26,1.12.26,2.5s-.12,2.5-.26,2.5-.26-1.12-.26-2.5.12-2.5.26-2.5Z" fill="#e0e0e0"/><path id="mobileloop-s-path44" d="M200.5,205.37c.14,0,.26,1.12.26,2.5s-.12,2.5-.26,2.5-.26-1.12-.26-2.5.12-2.5.26-2.5Z" fill="#e0e0e0"/><path id="mobileloop-s-path45" d="M204.54,199.41c0,.14-1.12.26-2.5.26-.58,0-1.12-.02-1.54-.06l.2-.2c-.05.59-.12.96-.2.96s-.16-.37-.2-.96l-.02-.19.22-.02c.42-.03.96-.06,1.54-.06c1.38,0,2.5.12,2.5.26Z" fill="#e0e0e0"/><path id="mobileloop-s-path46" d="M214.54,199.41c0,.14-1.12.26-2.5.26s-2.5-.12-2.5-.26s1.12-.26,2.5-.26s2.5.12,2.5.26Z" fill="#e0e0e0"/><path id="mobileloop-s-path47" d="M224.54,199.41c0,.14-1.12.26-2.5.26s-2.5-.12-2.5-.26s1.12-.26,2.5-.26s2.5.12,2.5.26Z" fill="#e0e0e0"/><path id="mobileloop-s-path48" d="M234.54,199.41c0,.14-1.12.26-2.5.26s-2.5-.12-2.5-.26s1.12-.26,2.5-.26s2.5.12,2.5.26Z" fill="#e0e0e0"/><path id="mobileloop-s-path49" d="M244.54,199.41c0,.14-1.12.26-2.5.26s-2.5-.12-2.5-.26s1.12-.26,2.5-.26s2.5.12,2.5.26Z" fill="#e0e0e0"/><path id="mobileloop-s-path50" d="M254.54,199.41c0,.14-1.12.26-2.5.26s-2.5-.12-2.5-.26s1.12-.26,2.5-.26s2.5.12,2.5.26Z" fill="#e0e0e0"/><path id="mobileloop-s-path51" d="M264.54,199.41c0,.14-1.12.26-2.5.26s-2.5-.12-2.5-.26s1.12-.26,2.5-.26s2.5.12,2.5.26Z" fill="#e0e0e0"/><path id="mobileloop-s-path52" d="M274.54,199.41c0,.14-1.12.26-2.5.26s-2.5-.12-2.5-.26s1.12-.26,2.5-.26s2.5.12,2.5.26Z" fill="#e0e0e0"/><path id="mobileloop-s-path53" d="M284.54,199.41c0,.14-1.12.26-2.5.26s-2.5-.12-2.5-.26s1.12-.26,2.5-.26s2.5.12,2.5.26Z" fill="#e0e0e0"/><path id="mobileloop-s-path54" d="M294.54,199.41c0,.14-1.12.26-2.5.26s-2.5-.12-2.5-.26s1.12-.26,2.5-.26s2.5.12,2.5.26Z" fill="#e0e0e0"/><path id="mobileloop-s-path55" d="M304.54,199.41c0,.14-1.12.26-2.5.26s-2.5-.12-2.5-.26s1.12-.26,2.5-.26s2.5.12,2.5.26Z" fill="#e0e0e0"/><path id="mobileloop-s-path56" d="M311.42,202.53c-.14,0-.26-1.12-.26-2.5c0-.21,0-.41,0-.62l.25.25c-1.08-.03-1.88-.13-1.88-.25s.8-.22,1.88-.25h.25c0,0,0,.25,0,.25c0,.21,0,.41,0,.62c0,1.38-.12,2.5-.26,2.5Z" fill="#e0e0e0"/><path id="mobileloop-s-path57" d="M311.42,212.53c-.14,0-.26-1.12-.26-2.5s.12-2.5.26-2.5.26,1.12.26,2.5-.12,2.5-.26,2.5Z" fill="#e0e0e0"/><path id="mobileloop-s-path58" d="M311.42,222.53c-.14,0-.26-1.12-.26-2.5s.12-2.5.26-2.5.26,1.12.26,2.5-.12,2.5-.26,2.5Z" fill="#e0e0e0"/><path id="mobileloop-s-path59" d="M311.42,232.53c-.14,0-.26-1.12-.26-2.5s.12-2.5.26-2.5.26,1.12.26,2.5-.12,2.5-.26,2.5Z" fill="#e0e0e0"/><path id="mobileloop-s-path60" d="M311.42,242.53c-.14,0-.26-1.12-.26-2.5s.12-2.5.26-2.5.26,1.12.26,2.5-.12,2.5-.26,2.5Z" fill="#e0e0e0"/></g><g id="mobileloop-s-g16"><path id="mobileloop-s-path61" d="M294.21,227.3c0,1.77-1.44,3.21-3.21,3.21s-3.21-1.44-3.21-3.21s1.44-3.21,3.21-3.21s3.21,1.44,3.21,3.21Z" fill="#263238"/><path id="mobileloop-s-path62" d="M291.5,227.3h-1v-7.41c0-6.1-4.96-11.06-11.06-11.06h-116.73v-1h116.73c6.65,0,12.06,5.41,12.06,12.06v7.41Z" fill="#263238"/></g><g id="mobileloop-s-g17"><path id="mobileloop-s-path63" d="M212.27,158.65c0-.14,1.12-.26,2.5-.26-.52.52-.14.14-.26.26v0-.06c0,0,0-.06,0-.06v-.13c0,0,0-.25,0-.25c0-.15,0-.3.02-.47.01-.3.03-.57.06-.79.05-.45.11-.73.18-.73s.14.28.18.73c.02.23.04.5.06.79c0,.17.01.32.02.47v.25c0,0,0,.13,0,.13v.06c0,0,0,.03,0,.03v.02c0,0,0,0,0,0v0c-.12.12.26-.25-.26.27-1.38,0-2.5-.12-2.5-.26Z" fill="#e0e0e0"/><path id="mobileloop-s-path64" d="M202.29,158.65c0-.14,1.12-.26,2.5-.26s2.5.12,2.5.26-1.12.26-2.5.26-2.5-.12-2.5-.26Z" fill="#e0e0e0"/><path id="mobileloop-s-path65" d="M192.31,158.65c0-.14,1.12-.26,2.5-.26s2.5.12,2.5.26-1.12.26-2.5.26-2.5-.12-2.5-.26Z" fill="#e0e0e0"/><path id="mobileloop-s-path66" d="M182.33,158.65c0-.14,1.12-.26,2.5-.26s2.5.12,2.5.26-1.12.26-2.5.26-2.5-.12-2.5-.26Z" fill="#e0e0e0"/><path id="mobileloop-s-path67" d="M172.35,158.65c0-.14,1.12-.26,2.5-.26s2.5.12,2.5.26-1.12.26-2.5.26-2.5-.12-2.5-.26Z" fill="#e0e0e0"/><path id="mobileloop-s-path68" d="M164.85,156.15c.14,0,.26,1.12.26,2.5-.52-.52-.14-.14-.26-.26h.06c0,0,.06,0,.06,0h.13c0,0,.25,0,.25,0c.15,0,.3,0,.47.02.3.01.57.03.79.06.45.05.73.11.73.18s-.28.14-.73.18c-.23.02-.5.04-.79.06-.17,0-.32.01-.47.02h-.25c0,0-.13,0-.13,0h-.06c0,0-.03,0-.03,0h-.03c-.12-.12.26.26-.26-.26c0-1.38.12-2.5.26-2.5Z" fill="#e0e0e0"/><path id="mobileloop-s-path69" d="M164.85,146.69c.14,0,.26,1.06.26,2.36s-.12,2.37-.26,2.37-.26-1.06-.26-2.37.12-2.36.26-2.36Z" fill="#e0e0e0"/><path id="mobileloop-s-path70" d="M164.85,137.23c.14,0,.26,1.06.26,2.36s-.12,2.37-.26,2.37-.26-1.06-.26-2.37.12-2.36.26-2.36Z" fill="#e0e0e0"/><path id="mobileloop-s-path71" d="M164.85,127.77c.14,0,.26,1.06.26,2.36s-.12,2.37-.26,2.37-.26-1.06-.26-2.37.12-2.36.26-2.36Z" fill="#e0e0e0"/><path id="mobileloop-s-path72" d="M164.85,118.31c.14,0,.26,1.06.26,2.36s-.12,2.37-.26,2.37-.26-1.06-.26-2.37.12-2.36.26-2.36Z" fill="#e0e0e0"/><path id="mobileloop-s-path73" d="M167.35,111.07c0,.14-1.12.26-2.5.26.52-.52.14-.14.26-.26v0v.06c0,0,0,.06,0,.06v.13c0,0,0,.25,0,.25c0,.15,0,.3-.02.47-.01.3-.03.57-.06.79-.05.45-.11.73-.18.73s-.14-.28-.18-.73c-.02-.23-.04-.5-.06-.79c0-.17-.01-.32-.02-.47v-.25c0,0,0-.13,0-.13v-.06c0,0,0-.03,0-.03v-.02v0-.02c.12-.12-.26.26.26-.26c1.38,0,2.5.12,2.5.26Z" fill="#e0e0e0"/><path id="mobileloop-s-path74" d="M177.34,111.07c0,.14-1.12.26-2.5.26s-2.5-.12-2.5-.26s1.12-.26,2.5-.26s2.5.12,2.5.26Z" fill="#e0e0e0"/><path id="mobileloop-s-path75" d="M187.32,111.07c0,.14-1.12.26-2.5.26s-2.5-.12-2.5-.26s1.12-.26,2.5-.26s2.5.12,2.5.26Z" fill="#e0e0e0"/><path id="mobileloop-s-path76" d="M197.3,111.07c0,.14-1.12.26-2.5.26s-2.5-.12-2.5-.26s1.12-.26,2.5-.26s2.5.12,2.5.26Z" fill="#e0e0e0"/><path id="mobileloop-s-path77" d="M207.28,111.07c0,.14-1.12.26-2.5.26s-2.5-.12-2.5-.26s1.12-.26,2.5-.26s2.5.12,2.5.26Z" fill="#e0e0e0"/><path id="mobileloop-s-path78" d="M214.77,113.57c-.14,0-.26-1.12-.26-2.5.52.52.14.14.26.26h-.06c0,0-.06,0-.06,0h-.13c0,0-.25,0-.25,0-.15,0-.3,0-.47-.02-.3-.01-.57-.03-.79-.06-.45-.05-.73-.11-.73-.18s.28-.14.73-.18c.23-.02.5-.04.79-.06.17,0,.32-.01.47-.02h.25c0,0,.13,0,.13,0h.06c0,0,.03,0,.03,0h.02c0,0,0,0,0,0v0c.12.12-.26-.26.26.26c0,1.38-.12,2.5-.26,2.5Z" fill="#e0e0e0"/><path id="mobileloop-s-path79" d="M214.77,123.04c-.14,0-.26-1.06-.26-2.37s.12-2.37.26-2.37.26,1.06.26,2.37-.12,2.37-.26,2.37Z" fill="#e0e0e0"/><path id="mobileloop-s-path80" d="M214.77,132.5c-.14,0-.26-1.06-.26-2.36s.12-2.37.26-2.37.26,1.06.26,2.37-.12,2.36-.26,2.36Z" fill="#e0e0e0"/><path id="mobileloop-s-path81" d="M214.77,141.96c-.14,0-.26-1.06-.26-2.36s.12-2.37.26-2.37.26,1.06.26,2.37-.12,2.36-.26,2.36Z" fill="#e0e0e0"/><path id="mobileloop-s-path82" d="M214.77,151.42c-.14,0-.26-1.06-.26-2.36s.12-2.37.26-2.37.26,1.06.26,2.37-.12,2.36-.26,2.36Z" fill="#e0e0e0"/></g><g id="mobileloop-s-g18"><path id="mobileloop-s-path83" d="M312.33,190.34c0-.14,1.12-.26,2.5-.26-.52.52-.14.14-.26.26v0-.06c0,0,0-.06,0-.06v-.13c0,0,0-.25,0-.25c0-.15,0-.3.02-.47.01-.3.03-.57.06-.79.05-.45.11-.73.18-.73s.14.28.18.73c.02.23.04.5.06.79c0,.17.01.32.02.47v.25c0,0,0,.13,0,.13v.06c0,0,0,.03,0,.03v.02v0v.02c-.12.12.26-.26-.26.26-1.38,0-2.5-.12-2.5-.26Z" fill="#e0e0e0"/><path id="mobileloop-s-path84" d="M302.1,190.34c0-.14,1.15-.26,2.56-.26s2.56.12,2.56.26-1.15.26-2.56.26-2.56-.12-2.56-.26Z" fill="#e0e0e0"/><path id="mobileloop-s-path85" d="M291.87,190.34c0-.14,1.15-.26,2.56-.26s2.56.12,2.56.26-1.15.26-2.56.26-2.56-.12-2.56-.26Z" fill="#e0e0e0"/><path id="mobileloop-s-path86" d="M281.64,190.34c0-.14,1.15-.26,2.56-.26s2.56.12,2.56.26-1.15.26-2.56.26-2.56-.12-2.56-.26Z" fill="#e0e0e0"/><path id="mobileloop-s-path87" d="M271.41,190.34c0-.14,1.15-.26,2.56-.26s2.56.12,2.56.26-1.15.26-2.56.26-2.56-.12-2.56-.26Z" fill="#e0e0e0"/><path id="mobileloop-s-path88" d="M261.18,190.34c0-.14,1.15-.26,2.56-.26s2.56.12,2.56.26-1.14.26-2.56.26-2.56-.12-2.56-.26Z" fill="#e0e0e0"/><path id="mobileloop-s-path89" d="M250.94,190.34c0-.14,1.15-.26,2.56-.26s2.56.12,2.56.26-1.14.26-2.56.26-2.56-.12-2.56-.26Z" fill="#e0e0e0"/><path id="mobileloop-s-path90" d="M240.71,190.34c0-.14,1.15-.26,2.56-.26s2.56.12,2.56.26-1.14.26-2.56.26-2.56-.12-2.56-.26Z" fill="#e0e0e0"/><path id="mobileloop-s-path91" d="M230.48,190.34c0-.14,1.15-.26,2.56-.26s2.56.12,2.56.26-1.15.26-2.56.26-2.56-.12-2.56-.26Z" fill="#e0e0e0"/><path id="mobileloop-s-path92" d="M222.86,187.84c.14,0,.26,1.12.26,2.5-.52-.52-.14-.14-.26-.26h.03c0,0,.03,0,.03,0h.06c0,0,.13,0,.13,0h.25c.15,0,.3.01.47.02.3.01.57.03.79.06.45.05.73.11.73.18s-.28.14-.73.18c-.23.02-.5.04-.79.06-.17,0-.32.01-.47.02h-.25c0,0-.13,0-.13,0h-.06c0,0-.03,0-.03,0h-.03c-.12-.12.26.26-.26-.26c0-1.38.12-2.5.26-2.5Z" fill="#e0e0e0"/><path id="mobileloop-s-path93" d="M222.86,177.89c.14,0,.26,1.11.26,2.49s-.12,2.49-.26,2.49-.26-1.11-.26-2.49.12-2.49.26-2.49Z" fill="#e0e0e0"/><path id="mobileloop-s-path94" d="M222.86,167.94c.14,0,.26,1.11.26,2.49s-.12,2.49-.26,2.49-.26-1.11-.26-2.49.12-2.49.26-2.49Z" fill="#e0e0e0"/><path id="mobileloop-s-path95" d="M222.86,157.98c.14,0,.26,1.11.26,2.49s-.12,2.49-.26,2.49-.26-1.11-.26-2.49.12-2.49.26-2.49Z" fill="#e0e0e0"/><path id="mobileloop-s-path96" d="M222.86,148.03c.14,0,.26,1.11.26,2.49s-.12,2.49-.26,2.49-.26-1.11-.26-2.49.12-2.49.26-2.49Z" fill="#e0e0e0"/><path id="mobileloop-s-path97" d="M222.86,138.08c.14,0,.26,1.11.26,2.49s-.12,2.49-.26,2.49-.26-1.11-.26-2.49.12-2.49.26-2.49Z" fill="#e0e0e0"/><path id="mobileloop-s-path98" d="M222.86,128.13c.14,0,.26,1.11.26,2.49s-.12,2.49-.26,2.49-.26-1.11-.26-2.49.12-2.49.26-2.49Z" fill="#e0e0e0"/><path id="mobileloop-s-path99" d="M222.86,118.18c.14,0,.26,1.11.26,2.49s-.12,2.49-.26,2.49-.26-1.11-.26-2.49.12-2.49.26-2.49Z" fill="#e0e0e0"/><path id="mobileloop-s-path100" d="M225.36,110.71c0,.14-1.12.26-2.5.26.52-.52.14-.14.26-.26v0v.06c0,0,0,.06,0,.06v.13c0,0,0,.25,0,.25c0,.15,0,.3-.02.47-.01.3-.03.57-.06.79-.05.45-.11.73-.18.73s-.14-.28-.18-.73c-.02-.23-.04-.5-.06-.79c0-.17-.01-.32-.02-.47v-.25c0,0,0-.13,0-.13v-.06c0,0,0-.03,0-.03v-.02v0-.02c.12-.12-.26.26.26-.26c1.38,0,2.5.12,2.5.26Z" fill="#e0e0e0"/><path id="mobileloop-s-path101" d="M235.6,110.71c0,.14-1.15.26-2.56.26s-2.56-.12-2.56-.26s1.15-.26,2.56-.26s2.56.12,2.56.26Z" fill="#e0e0e0"/><path id="mobileloop-s-path102" d="M245.83,110.71c0,.14-1.15.26-2.56.26s-2.56-.12-2.56-.26s1.15-.26,2.56-.26s2.56.12,2.56.26Z" fill="#e0e0e0"/><path id="mobileloop-s-path103" d="M256.06,110.71c0,.14-1.15.26-2.56.26s-2.56-.12-2.56-.26s1.14-.26,2.56-.26s2.56.12,2.56.26Z" fill="#e0e0e0"/><path id="mobileloop-s-path104" d="M266.29,110.71c0,.14-1.15.26-2.56.26s-2.56-.12-2.56-.26s1.15-.26,2.56-.26s2.56.12,2.56.26Z" fill="#e0e0e0"/><path id="mobileloop-s-path105" d="M276.52,110.71c0,.14-1.15.26-2.56.26s-2.56-.12-2.56-.26s1.15-.26,2.56-.26s2.56.12,2.56.26Z" fill="#e0e0e0"/><path id="mobileloop-s-path106" d="M286.76,110.71c0,.14-1.15.26-2.56.26s-2.56-.12-2.56-.26s1.15-.26,2.56-.26s2.56.12,2.56.26Z" fill="#e0e0e0"/><path id="mobileloop-s-path107" d="M296.99,110.71c0,.14-1.15.26-2.56.26s-2.56-.12-2.56-.26s1.15-.26,2.56-.26s2.56.12,2.56.26Z" fill="#e0e0e0"/><path id="mobileloop-s-path108" d="M307.22,110.71c0,.14-1.15.26-2.56.26s-2.56-.12-2.56-.26s1.14-.26,2.56-.26s2.56.12,2.56.26Z" fill="#e0e0e0"/><path id="mobileloop-s-path109" d="M314.83,113.21c-.14,0-.26-1.12-.26-2.5.52.52.14.14.26.26h-.06c0,0-.06,0-.06,0h-.13c0,0-.25,0-.25,0-.15,0-.3,0-.47-.02-.3-.01-.57-.03-.79-.06-.45-.05-.73-.11-.73-.18s.28-.14.73-.18c.23-.02.5-.04.79-.06.17,0,.32-.01.47-.02h.25c0,0,.13,0,.13,0h.06c0,0,.03,0,.03,0h.03c.12.12-.26-.26.26.26c0,1.38-.12,2.5-.26,2.5Z" fill="#e0e0e0"/><path id="mobileloop-s-path110" d="M314.83,123.16c-.14,0-.26-1.11-.26-2.49s.12-2.49.26-2.49.26,1.11.26,2.49-.12,2.49-.26,2.49Z" fill="#e0e0e0"/><path id="mobileloop-s-path111" d="M314.83,133.11c-.14,0-.26-1.11-.26-2.49s.12-2.49.26-2.49.26,1.11.26,2.49-.12,2.49-.26,2.49Z" fill="#e0e0e0"/><path id="mobileloop-s-path112" d="M314.83,143.06c-.14,0-.26-1.11-.26-2.49s.12-2.49.26-2.49.26,1.11.26,2.49-.12,2.49-.26,2.49Z" fill="#e0e0e0"/><path id="mobileloop-s-path113" d="M314.83,153.01c-.14,0-.26-1.11-.26-2.49s.12-2.49.26-2.49.26,1.11.26,2.49-.12,2.49-.26,2.49Z" fill="#e0e0e0"/><path id="mobileloop-s-path114" d="M314.83,162.96c-.14,0-.26-1.11-.26-2.49s.12-2.49.26-2.49.26,1.11.26,2.49-.12,2.49-.26,2.49Z" fill="#e0e0e0"/><path id="mobileloop-s-path115" d="M314.83,172.91c-.14,0-.26-1.11-.26-2.49s.12-2.49.26-2.49.26,1.11.26,2.49-.12,2.49-.26,2.49Z" fill="#e0e0e0"/><path id="mobileloop-s-path116" d="M314.83,182.86c-.14,0-.26-1.11-.26-2.49s.12-2.49.26-2.49.26,1.11.26,2.49-.12,2.49-.26,2.49Z" fill="#e0e0e0"/></g><g id="mobileloop-s-g19"><path id="mobileloop-s-path117" d="M307.46,410.23c0-.14,1.12-.26,2.5-.26s2.5.12,2.5.26-1.12.26-2.5.26-2.5-.12-2.5-.26Z" fill="#e0e0e0"/><path id="mobileloop-s-path118" d="M297.46,410.23c0-.14,1.12-.26,2.5-.26s2.5.12,2.5.26-1.12.26-2.5.26-2.5-.12-2.5-.26Z" fill="#e0e0e0"/><path id="mobileloop-s-path119" d="M287.46,410.23c0-.14,1.12-.26,2.5-.26s2.5.12,2.5.26-1.12.26-2.5.26-2.5-.12-2.5-.26Z" fill="#e0e0e0"/><path id="mobileloop-s-path120" d="M277.46,410.23c0-.14,1.12-.26,2.5-.26s2.5.12,2.5.26-1.12.26-2.5.26-2.5-.12-2.5-.26Z" fill="#e0e0e0"/><path id="mobileloop-s-path121" d="M267.46,410.23c0-.14,1.12-.26,2.5-.26s2.5.12,2.5.26-1.12.26-2.5.26-2.5-.12-2.5-.26Z" fill="#e0e0e0"/><path id="mobileloop-s-path122" d="M257.46,410.23c0-.14,1.12-.26,2.5-.26s2.5.12,2.5.26-1.12.26-2.5.26-2.5-.12-2.5-.26Z" fill="#e0e0e0"/><path id="mobileloop-s-path123" d="M247.46,410.23c0-.14,1.12-.26,2.5-.26s2.5.12,2.5.26-1.12.26-2.5.26-2.5-.12-2.5-.26Z" fill="#e0e0e0"/><path id="mobileloop-s-path124" d="M237.46,410.23c0-.14,1.12-.26,2.5-.26s2.5.12,2.5.26-1.12.26-2.5.26-2.5-.12-2.5-.26Z" fill="#e0e0e0"/><path id="mobileloop-s-path125" d="M227.46,410.23c0-.14,1.12-.26,2.5-.26s2.5.12,2.5.26-1.12.26-2.5.26-2.5-.12-2.5-.26Z" fill="#e0e0e0"/><path id="mobileloop-s-path126" d="M217.46,410.23c0-.14,1.12-.26,2.5-.26s2.5.12,2.5.26-1.12.26-2.5.26-2.5-.12-2.5-.26Z" fill="#e0e0e0"/><path id="mobileloop-s-path127" d="M207.46,410.23c0-.14,1.12-.26,2.5-.26s2.5.12,2.5.26-1.12.26-2.5.26-2.5-.12-2.5-.26Z" fill="#e0e0e0"/><path id="mobileloop-s-path128" d="M197.46,410.23c0-.14,1.12-.26,2.5-.26s2.5.12,2.5.26-1.12.26-2.5.26-2.5-.12-2.5-.26Z" fill="#e0e0e0"/><path id="mobileloop-s-path129" d="M187.46,410.23c0-.14,1.12-.26,2.5-.26s2.5.12,2.5.26-1.12.26-2.5.26-2.5-.12-2.5-.26Z" fill="#e0e0e0"/><path id="mobileloop-s-path130" d="M177.46,410.23c0-.14,1.12-.26,2.5-.26s2.5.12,2.5.26-1.12.26-2.5.26-2.5-.12-2.5-.26Z" fill="#e0e0e0"/><path id="mobileloop-s-path131" d="M172.08,405.61c.14,0,.26,1.12.26,2.5c0,.9-.05,1.69-.12,2.12l-.14-.14c.24.04.38.09.38.14s-.13.1-.38.14l-.11.02-.03-.15c-.07-.43-.12-1.22-.12-2.12c0-1.38.12-2.5.26-2.5Z" fill="#e0e0e0"/><path id="mobileloop-s-path132" d="M172.08,395.61c.14,0,.26,1.12.26,2.5s-.12,2.5-.26,2.5-.26-1.12-.26-2.5.12-2.5.26-2.5Z" fill="#e0e0e0"/><path id="mobileloop-s-path133" d="M172.08,385.61c.14,0,.26,1.12.26,2.5s-.12,2.5-.26,2.5-.26-1.12-.26-2.5.12-2.5.26-2.5Z" fill="#e0e0e0"/><path id="mobileloop-s-path134" d="M172.81,376.34c0,.07-.28.14-.73.18l.18-.18c.05.45.08,1.08.08,1.77c0,1.38-.12,2.5-.26,2.5s-.26-1.12-.26-2.5c0-.69.03-1.32.08-1.77l.02-.2.16.02c.45.05.73.11.73.18Z" fill="#e0e0e0"/><path id="mobileloop-s-path135" d="M182.81,376.34c0,.14-1.12.26-2.5.26s-2.5-.12-2.5-.26s1.12-.26,2.5-.26s2.5.12,2.5.26Z" fill="#e0e0e0"/><path id="mobileloop-s-path136" d="M192.81,376.34c0,.14-1.12.26-2.5.26s-2.5-.12-2.5-.26s1.12-.26,2.5-.26s2.5.12,2.5.26Z" fill="#e0e0e0"/><path id="mobileloop-s-path137" d="M202.81,376.34c0,.14-1.12.26-2.5.26s-2.5-.12-2.5-.26s1.12-.26,2.5-.26s2.5.12,2.5.26Z" fill="#e0e0e0"/><path id="mobileloop-s-path138" d="M212.81,376.34c0,.14-1.12.26-2.5.26s-2.5-.12-2.5-.26s1.12-.26,2.5-.26s2.5.12,2.5.26Z" fill="#e0e0e0"/><path id="mobileloop-s-path139" d="M222.81,376.34c0,.14-1.12.26-2.5.26s-2.5-.12-2.5-.26s1.12-.26,2.5-.26s2.5.12,2.5.26Z" fill="#e0e0e0"/><path id="mobileloop-s-path140" d="M232.81,376.34c0,.14-1.12.26-2.5.26s-2.5-.12-2.5-.26s1.12-.26,2.5-.26s2.5.12,2.5.26Z" fill="#e0e0e0"/><path id="mobileloop-s-path141" d="M242.81,376.34c0,.14-1.12.26-2.5.26s-2.5-.12-2.5-.26s1.12-.26,2.5-.26s2.5.12,2.5.26Z" fill="#e0e0e0"/><path id="mobileloop-s-path142" d="M252.81,376.34c0,.14-1.12.26-2.5.26s-2.5-.12-2.5-.26s1.12-.26,2.5-.26s2.5.12,2.5.26Z" fill="#e0e0e0"/><path id="mobileloop-s-path143" d="M262.81,376.34c0,.14-1.12.26-2.5.26s-2.5-.12-2.5-.26s1.12-.26,2.5-.26s2.5.12,2.5.26Z" fill="#e0e0e0"/><path id="mobileloop-s-path144" d="M272.81,376.34c0,.14-1.12.26-2.5.26s-2.5-.12-2.5-.26s1.12-.26,2.5-.26s2.5.12,2.5.26Z" fill="#e0e0e0"/><path id="mobileloop-s-path145" d="M282.81,376.34c0,.14-1.12.26-2.5.26s-2.5-.12-2.5-.26s1.12-.26,2.5-.26s2.5.12,2.5.26Z" fill="#e0e0e0"/><path id="mobileloop-s-path146" d="M292.81,376.34c0,.14-1.12.26-2.5.26s-2.5-.12-2.5-.26s1.12-.26,2.5-.26s2.5.12,2.5.26Z" fill="#e0e0e0"/><path id="mobileloop-s-path147" d="M302.81,376.34c0,.14-1.12.26-2.5.26s-2.5-.12-2.5-.26s1.12-.26,2.5-.26s2.5.12,2.5.26Z" fill="#e0e0e0"/><path id="mobileloop-s-path148" d="M312.46,376.7c0,0-.09-.13-.13-.36l.13.13c-.43.08-1.23.13-2.14.13-1.38,0-2.5-.12-2.5-.26s1.12-.26,2.5-.26c.92,0,1.72.05,2.14.13l.15.03-.02.11c-.04.23-.08.36-.13.36Z" fill="#e0e0e0"/><path id="mobileloop-s-path149" d="M312.46,386.7c-.14,0-.26-1.12-.26-2.5s.12-2.5.26-2.5.26,1.12.26,2.5-.12,2.5-.26,2.5Z" fill="#e0e0e0"/><path id="mobileloop-s-path150" d="M312.46,396.7c-.14,0-.26-1.12-.26-2.5s.12-2.5.26-2.5.26,1.12.26,2.5-.12,2.5-.26,2.5Z" fill="#e0e0e0"/><path id="mobileloop-s-path151" d="M312.46,406.7c-.14,0-.26-1.12-.26-2.5s.12-2.5.26-2.5.26,1.12.26,2.5-.12,2.5-.26,2.5Z" fill="#e0e0e0"/></g></g><g id="mobileloop-u-video"><g id="mobileloop-s-g20"><g id="mobileloop-s-g21_to" transform="translate(196.370003,317.095001)"><g id="mobileloop-s-g21_tr" transform="rotate(0)"><g id="mobileloop-s-g21_ts" transform="scale(0,0)"><g id="mobileloop-s-g21" transform="translate(-196.370003,-317.095001)"><rect id="mobileloop-s-rect16" width="168" height="104.13" rx="7.87" ry="7.87" transform="translate(112.37 265.03)" fill="#31544e"/><g id="mobileloop-s-g22"><circle id="mobileloop-s-circle1" r="18.36" transform="matrix(.241753-.970338 0.970338 0.241753 197.806075 314.649736)" fill="#fdd639"/><path id="mobileloop-s-path152" d="M193.37,320v-10.84c0-.53.57-.86,1.03-.6l9.68,5.46c.47.26.47.94,0,1.2l-9.68,5.38c-.46.26-1.02-.08-1.02-.6Z" fill="#fff"/></g><rect id="mobileloop-s-rect17" width="130.12" height="0.59" rx="0" ry="0" transform="translate(128.01 356.38)" fill="#fff"/><rect id="mobileloop-s-rect18" width="40.66" height="1.58" rx="0" ry="0" transform="translate(127.92 355.75)" fill="#fdd639"/><path id="mobileloop-s-path153" d="M169.89,356.68c0,1.09-.89,1.98-1.98,1.98s-1.98-.89-1.98-1.98.89-1.98,1.98-1.98s1.98.89,1.98,1.98Z" fill="#fdd639"/><polygon id="mobileloop-s-polygon4" points="268.02,356.23 267.43,356.23 267.43,354.52 269.13,354.52 269.13,355.11 268.02,355.11 268.02,356.23" fill="#fff"/><polygon id="mobileloop-s-polygon5" points="269.13,358.46 267.42,358.46 267.42,356.76 268.02,356.76 268.02,357.87 269.13,357.87 269.13,358.46" fill="#fff"/><polygon id="mobileloop-s-polygon6" points="271.86,358.46 270.15,358.46 270.15,357.87 271.26,357.87 271.26,356.75 271.86,356.75 271.86,358.46" fill="#fff"/><polygon id="mobileloop-s-polygon7" points="271.86,356.23 271.27,356.23 271.27,355.11 270.15,355.11 270.15,354.52 271.86,354.52 271.86,356.23" fill="#fff"/></g></g></g></g><rect id="mobileloop-s-rect19" width="1" height="11.91" rx="0" ry="0" transform="translate(233.86 388.88)" fill="#263238"/></g></g><g id="mobileloop-u-plant"><g id="mobileloop-s-g23"><path id="mobileloop-s-path154" d="M369.83,360.39c.32-1.7.1-3.47.45-6.68s1.74-4.49,2.51-6.76s1.81-7.58,1.81-7.58h-.84c0,0-2.75,9.87-3.54,12.11s-.76,4.26-.9,6.3-.87,5.42-.87,5.42-1.01-11.45-1.43-15.47-.23-11.84-.23-11.84l-.97-.45v5.93c0,0,.4,5.66.72,8.9s1.08,13.77.89,21.5s1.67,14.11,1.7,14.37.29,7.88.15,11.67-.22,18.75-.07,19.42l3.06.8c0,0-1.78-13.2-1.45-22.74s-.4-9.02-1.54-13.58-.78-16.94-.78-16.94s1.02-2.67,1.34-4.38Z" fill="#263238"/><g id="mobileloop-s-g24"><g id="mobileloop-s-g25"><path id="mobileloop-s-path155" d="M373.36,340.61c0,0,4.39-1.41,7.17-5.3c2.78-3.88,4.6-7.06,7.49-8.59-5.56-2.71-8.99,2.71-11.77,4.35-2.78,1.65-5.56,2.82-5.13,6s2.25,3.53,2.25,3.53Z" fill="#fdd639"/><path id="mobileloop-s-path156" d="M391.26,292.38c-.23,1.02-.56,2.21-.99,3.45-.47,1.38-1.06,2.83-1.72,4.22-.68,1.44-1.45,2.8-2.28,3.95-.87,1.22-1.79,2.2-2.74,2.76-.22.13-.43.23-.65.31-4.7,1.77-7.06,3.29-7.06,3.29-1.56-3.38-1.82-6.21-1.51-8.54.15-1.1.42-2.08.75-2.95.37-1,.81-1.85,1.21-2.56.23-.42.45-.8.63-1.13.19-.35.38-.7.59-1.05.99-1.72,2.21-3.52,3.97-5.24.35-.34.72-.68,1.11-1.01.46-.39.98-.7,1.52-.96c2.78-1.32,6.29-1.15,6.29-1.15s.64.83,1.17,3.65c0,.06.02.12.03.19.06.62-.05,1.6-.31,2.78Z" fill="#fdd639"/><path id="mobileloop-s-path157" d="M379.46,320.13c0,0,7.7-5.77,17.44-4.71-5.24-5.65-9.52-5.41-13.16-3.41s-5.88,3.53-4.28,8.12Z" fill="#fdd639"/><path id="mobileloop-s-path158" d="M370.58,310.95c0,0-3.74-5.3-8.88-6.71-5.13-1.41-11.02-1.18-11.02-1.18s2.89-4.59,9.2-4.24s8.24,2.12,9.31,4.47s2.25,4.94,1.39,7.65Z" fill="#fdd639"/><path id="mobileloop-s-path159" d="M369.83,328.13c-.02.72-.04,1.41-.08,2.07-.23,3.49-.96,5.9-3.66,6.29c0,0-3.85-1.06-5.35-5.18s-.64-4.82-2.89-7.53-3.42-9.42-3.42-9.42.01,0,.02,0c.32-.09,4.11-1.08,7.89.83.06.03.12.06.18.1c3.89,2.09,7.42,8.33,7.31,12.85Z" fill="#fdd639"/><path id="mobileloop-s-path160" d="M359.67,340.49c0,0-.64.94-4.6,1.3-3.96.35-4.92,3.88-9.42,4.71-4.49.83-5.13.71-7.06-.59.87-2.97,3.05-3.87,5.03-5.57.61-.53,1.21-1.13,1.74-1.91.07-.09.13-.19.19-.29.82-1.29,2.17-2.15,3.68-2.67v0c1.13-.38,2.36-.56,3.53-.58c1.56-.02,3.01.26,4.02.77c2.78,1.41,2.78,3.18,2.89,4.82Z" fill="#fdd639"/></g><g id="mobileloop-s-g26"><path id="mobileloop-s-path161" d="M388.93,413.76c-.82,8.11-3.03,15.67-6.8,22.62-1.01,1.86-3.27,3.07-5.77,3.07h-11.4c-2.5,0-4.77-1.21-5.77-3.07-3.77-6.95-5.98-14.51-6.8-22.62-.31-3.06-.43-6.2-.36-9.41h37.26c.07,3.22-.05,6.35-.36,9.41Z" fill="#e0e0e0"/><path id="mobileloop-s-path162" d="M389.37,413.76c-.84,8.31-3.1,16.05-6.96,23.17-1.03,1.91-3.35,3.14-5.91,3.14h-11.68c-2.57,0-4.88-1.23-5.91-3.14-3.86-7.12-6.12-14.86-6.96-23.17h37.43Z" fill="#31544e"/></g></g><path id="mobileloop-s-path163" d="M382.5,389.96c-2.19-2.52-5.33-4.1-8.5-3.95l-.08.09c-.64,3.55.84,7.33,3.33,9.7s5.85,3.44,9.14,3.51c-.4-3.46-1.69-6.84-3.88-9.36Z" fill="#fdd639"/><path id="mobileloop-s-path164" d="M363.41,393.64c-1.29-.28-2.62.06-3.86.52-2.94,1.09-5.66,2.91-7.88,5.29c2.65,1.01,5.42,1.94,8.21,1.6s5.59-2.27,6.29-5.26c-.25-1.42-1.47-1.87-2.76-2.15Z" fill="#fdd639"/><path id="mobileloop-s-path165" d="M344.71,375.28c.59,1.12,1.65,1.85,2.74,2.38c1.08.52,2.23.89,3.26,1.53c1.85,1.15,3.18,3.08,4.91,4.44c2.44,1.93,5.67,2.6,8.59,1.78.49-3.26-.55-6.7-2.58-9.13s-4.99-3.83-7.99-3.99-6,.89-8.47,2.76" fill="#fdd639"/><path id="mobileloop-s-path166" d="M372.03,379.02c-1.08-2.91,0-6.79,2.07-8.94c1.36-1.41,3.15-2.17,4.9-2.87c1.46-.59,2.93-1.16,4.41-1.71.35-.13.74-.26,1.07-.09.5.26.56,1,.53,1.6-.12,2.45-.66,4.91-1.8,7.03-1.13,2.12-2.89,3.88-5,4.68s-4.35,1.69-6.19.3" fill="#fdd639"/><path id="mobileloop-s-path167" d="M363.65,368.14c-.14-1.45-1.05-2.72-2.18-3.48s-2.48-1.06-3.8-1.18c-3.13-.28-6.32.4-9.12,1.96c2.52,1.89,5.3,3.37,8.22,4.36c1.21.41,2.48.74,3.74.59c1.26-.16,2.53-.88,3.1-2.13" fill="#fdd639"/><path id="mobileloop-s-path168" d="M363.64,352.75c-2.25-1.46-4.86-2.14-7.45-2.47.35,3.01.93,6.21,2.87,8.37c1.16,1.29,2.75,2.1,4.4,2.24s3.63-.33,4.95-1.42v-.15c-.64-2.79-2.52-5.1-4.77-6.56Z" fill="#fdd639"/><path id="mobileloop-s-path169" d="M377.62,346.58c-1.41,1.03-1.53,3.39-.71,5.02s2.31,2.69,3.74,3.69c1.86,1.3,3.74,2.61,5.77,3.58c2.6,1.24,5.46,1.91,7.77,3.72.25-3.41-.11-6.91-1.41-10.02-1.3-3.1-3.59-5.77-6.48-7.01s-6.38-.91-8.85,1.16" fill="#fdd639"/><path id="mobileloop-s-path170" d="M377.73,347.25c.02.05-.69.38-1.73,1.13-.52.37-1.11.86-1.72,1.46-.6.61-1.22,1.32-1.8,2.14-.57.83-1.04,1.67-1.41,2.47-.36.8-.65,1.56-.83,2.2-.38,1.3-.49,2.14-.54,2.13-.02,0,0-.21.05-.6.02-.19.05-.42.11-.69s.11-.58.21-.9c.17-.67.44-1.44.79-2.26.37-.82.84-1.69,1.42-2.53.59-.83,1.23-1.56,1.85-2.17.63-.6,1.24-1.08,1.78-1.43.26-.19.52-.32.74-.45s.41-.23.58-.3c.32-.15.5-.22.51-.2Z" fill="#263238"/><path id="mobileloop-s-path171" d="M391.06,356.68c0,0-.17-.21-.44-.6s-.67-.96-1.19-1.64c-1.04-1.35-2.6-3.1-4.59-4.68-.99-.79-1.98-1.48-2.95-1.94s-1.91-.68-2.7-.68c-.8-.01-1.43.17-1.85.34-.42.18-.63.32-.64.3c0,0,.04-.05.14-.13.1-.07.25-.17.46-.28.41-.21,1.06-.43,1.88-.44.82-.03,1.8.18,2.8.64s2.01,1.15,3.01,1.95c2.01,1.59,3.58,3.39,4.58,4.78.51.7.88,1.29,1.13,1.7.24.42.37.66.35.67Z" fill="#263238"/><path id="mobileloop-s-path172" d="M383.29,328.2c0,0-.72.53-1.84,1.45s-2.59,2.3-4,4.06c-1.4,1.76-2.46,3.55-3.14,4.89s-1.03,2.22-1.07,2.2c-.02,0,.06-.23.2-.63s.38-.97.7-1.66c.64-1.38,1.69-3.2,3.11-4.98s2.93-3.15,4.09-4.03c.58-.44,1.06-.78,1.41-.98.34-.21.54-.32.55-.3Z" fill="#263238"/><path id="mobileloop-s-path173" d="M359.55,317.23c0,0,.07.03.18.11s.28.19.49.35c.42.32.99.82,1.65,1.51c1.31,1.37,2.9,3.61,3.86,6.49.97,2.88,1.09,5.71.91,7.69-.09.99-.23,1.79-.36,2.33-.06.27-.12.48-.16.62s-.07.21-.07.21c-.02,0,.04-.31.13-.85.1-.54.21-1.34.27-2.32.14-1.96-.01-4.75-.97-7.58-.95-2.83-2.48-5.05-3.75-6.44-.63-.7-1.19-1.22-1.58-1.57-.39-.34-.62-.53-.61-.55Z" fill="#263238"/><path id="mobileloop-s-path174" d="M347.48,338.77c0,0,.11-.18.37-.45s.66-.63,1.21-.99c1.08-.72,2.87-1.37,4.83-1.06c1.96.32,3.5,1.51,4.35,2.54.43.52.73.99.9,1.34.17.34.25.54.23.55-.05.03-.38-.76-1.27-1.75-.86-.98-2.37-2.09-4.26-2.4-1.89-.3-3.62.29-4.7.95-1.1.66-1.63,1.32-1.67,1.27Z" fill="#263238"/><path id="mobileloop-s-path175" d="M368.21,359.05c-.03.07-1.86-.87-4.07-2.11-2.22-1.24-3.99-2.3-3.95-2.37.03-.07,1.86.87,4.07,2.11c2.22,1.24,3.98,2.3,3.95,2.37Z" fill="#263238"/><path id="mobileloop-s-path176" d="M352.77,364.79c0,0,.16-.04.45-.05.29-.02.71-.01,1.24.02c1.04.06,2.48.27,4.02.74c1.54.48,2.86,1.13,3.78,1.69.46.28.82.52,1.06.7s.37.29.36.3c-.02.04-.58-.32-1.51-.82s-2.25-1.12-3.77-1.59-2.93-.71-3.96-.82-1.67-.12-1.67-.17Z" fill="#263238"/><path id="mobileloop-s-path177" d="M383.31,366.67c0,0-.18.16-.52.4-.35.23-.84.59-1.44,1.04-1.2.9-2.81,2.25-4.4,3.95-1.59,1.71-2.85,3.44-3.7,4.74-.42.65-.76,1.19-.98,1.56s-.36.58-.37.57c-.02-.01.09-.23.29-.63s.51-.95.91-1.62c.81-1.34,2.06-3.11,3.67-4.83c1.6-1.72,3.24-3.05,4.48-3.92.62-.43,1.13-.76,1.5-.97.36-.21.57-.32.58-.3Z" fill="#263238"/><path id="mobileloop-s-path178" d="M348.37,375.09c0,0,.27-.03.77-.03s1.21,0,2.1.06c.88.06,1.94.16,3.1.44c1.15.27,2.4.74,3.57,1.52c1.17.79,2.13,1.78,2.9,2.75.78.97,1.38,1.93,1.87,2.75s.85,1.49,1.1,1.96.38.74.36.75-.17-.24-.45-.69-.67-1.11-1.17-1.91c-.51-.79-1.12-1.73-1.9-2.68-.77-.95-1.72-1.91-2.86-2.68-1.14-.76-2.36-1.23-3.49-1.51s-2.18-.41-3.06-.49-1.59-.12-2.09-.15c-.49-.03-.77-.06-.77-.08Z" fill="#263238"/><path id="mobileloop-s-path179" d="M366.19,395.61c0,0-.59.05-1.52.12-.94.07-2.23.25-3.62.62-1.39.38-2.61.88-3.47,1.29s-1.38.71-1.4.67c0-.02.11-.11.34-.26.22-.16.56-.36.99-.59.85-.46,2.08-1,3.49-1.39c1.41-.38,2.72-.52,3.67-.54.47-.01.86,0,1.12.02s.41.04.41.06Z" fill="#263238"/><path id="mobileloop-s-path180" d="M384.17,397.82c-.05.06-2.44-2.47-5.33-5.64s-5.2-5.79-5.15-5.85s2.44,2.47,5.33,5.64s5.2,5.79,5.15,5.84Z" fill="#263238"/><path id="mobileloop-s-path181" d="M374.38,386.35c0,.09-.98-.05-2.11.33-1.13.37-1.88,1.08-1.93,1.01-.05-.04.65-.89,1.85-1.28c1.2-.4,2.21-.12,2.19-.06Z" fill="#263238"/><path id="mobileloop-s-path182" d="M370.65,392.9c0,0-.29-.51-.78-1.3s-1.28-1.81-2.26-2.8c-.98-1-1.94-1.81-2.63-2.41s-1.12-.97-1.1-1s.48.29,1.21.84c.72.56,1.71,1.35,2.7,2.36s1.77,2.07,2.23,2.9c.23.42.4.76.5,1.02.1.25.15.39.13.4Z" fill="#263238"/><path id="mobileloop-s-path183" d="M369.65,395.46c.02.07-.79.39-1.85.34-1.05-.04-1.84-.44-1.82-.5.02-.08.82.18,1.83.22c1.01.05,1.82-.14,1.84-.06Z" fill="#263238"/><path id="mobileloop-s-path184" d="M373.44,376.71c0,0-.3.57-.77,1.5s-1.05,2.25-1.5,3.79-.69,2.99-.8,4.04-.13,1.72-.18,1.71c-.02,0-.03-.17-.04-.47s0-.73.03-1.27c.07-1.07.28-2.55.74-4.11s1.08-2.9,1.59-3.81c.26-.46.48-.81.65-1.05s.27-.36.28-.35Z" fill="#263238"/><path id="mobileloop-s-path185" d="M368.08,373.55c0,0-.15-.41-.46-1.03s-.84-1.4-1.57-2.12-1.48-1.26-2.01-1.67c-.54-.4-.87-.65-.85-.69.02-.03.38.16.95.52.56.36,1.34.88,2.09,1.62s1.29,1.58,1.56,2.24c.28.66.33,1.12.3,1.12Z" fill="#263238"/><path id="mobileloop-s-path186" d="M367.27,349.33c0,0-.36-.64-.96-1.66s-1.5-2.37-2.65-3.71c-1.16-1.34-2.34-2.39-3.24-3.1-.89-.71-1.48-1.09-1.46-1.13c0-.02.16.06.44.22s.66.41,1.13.74c.93.67,2.15,1.71,3.32,3.07s2.06,2.75,2.62,3.8c.28.53.49.96.62,1.28.13.31.2.48.18.49Z" fill="#263238"/><path id="mobileloop-s-path187" d="M386.19,316.63c0,0-.1.06-.3.16-.23.11-.52.24-.88.42-.76.36-1.87.87-3.2,1.59-1.32.74-2.86,1.7-4.32,3.14-1.45,1.44-2.79,3.31-3.96,5.43s-2.1,4.27-2.94,6.22-1.59,3.7-2.23,5.19c-.63,1.45-1.15,2.63-1.53,3.49-.18.39-.32.7-.43.94-.1.21-.16.32-.17.32c0,0,.03-.12.12-.34.1-.25.23-.57.38-.96.36-.86.85-2.06,1.45-3.53.63-1.49,1.36-3.26,2.18-5.21.83-1.96,1.75-4.12,2.94-6.26c1.18-2.14,2.54-4.03,4.02-5.48s3.06-2.41,4.39-3.12c1.34-.71,2.47-1.19,3.24-1.52.37-.15.67-.27.9-.37.21-.08.32-.12.32-.11Z" fill="#263238"/><path id="mobileloop-s-path188" d="M368.48,305.88c0,0,.15.25.39.73s.56,1.18.93,2.07c.74,1.77,1.65,4.29,2.37,7.16.72,2.88,1.12,5.54,1.31,7.48.1.97.15,1.76.17,2.3.02.55.02.85,0,.85s-.06-.3-.11-.84-.13-1.32-.25-2.29c-.24-1.93-.67-4.57-1.38-7.43-.72-2.86-1.59-5.37-2.29-7.16-.35-.89-.64-1.61-.85-2.1s-.32-.77-.3-.78Z" fill="#263238"/><path id="mobileloop-s-path189" d="M385.33,291.1c0,0-.04.11-.15.31-.12.22-.27.5-.46.85-.4.73-1.01,1.78-1.71,3.1-1.42,2.63-3.33,6.31-5.14,10.53-.89,2.12-1.68,4.17-2.32,6.06-.63,1.9-1.12,3.64-1.47,5.12-.36,1.48-.57,2.7-.71,3.54-.06.4-.11.72-.15.97-.04.22-.06.34-.07.34c0,0,0-.12.02-.34s.05-.56.1-.98c.11-.85.3-2.08.63-3.57s.8-3.25,1.42-5.16c.63-1.91,1.41-3.97,2.31-6.1c1.82-4.24,3.75-7.91,5.22-10.52.72-1.31,1.35-2.34,1.78-3.06.21-.33.37-.61.5-.82.12-.19.18-.28.19-.27Z" fill="#263238"/></g></g><g id="mobileloop-u-icon"><g id="mobileloop-s-g27"><circle id="mobileloop-s-circle2" r="3.56" transform="translate(181.8 115.77)" fill="#fdd639"/><g id="mobileloop-s-path190_ts" transform="translate(181.8,114.86) scale(0,0)"><path id="mobileloop-s-path190" d="M181.96,114.86c-3.27,0-6.04-1.22-8.23-3.63-7.65-8.41-5.85-28.4-5.77-29.25c0-8.26-2.37-14.62-7.04-18.86-7.45-6.77-18.32-5.8-18.43-5.79l-43.12-.36v-1c0,0,43.07.36,43.07.36.41-.04,11.37-1.01,19.15,6.05c4.89,4.44,7.37,11.05,7.37,19.65-.02.25-1.84,20.45,5.51,28.53c1.99,2.19,4.51,3.3,7.49,3.3v1Z" transform="translate(-181.8,-114.86)" fill="#ff725e"/></g><g id="mobileloop-s-g28_to" transform="translate(112.674995,37.994999)"><g id="mobileloop-s-g28_ts" transform="scale(0,0)"><g id="mobileloop-s-g28" transform="translate(-112.674995,-37.994999)"><rect id="mobileloop-s-rect20" width="51.17" height="51.17" rx="7.81" ry="7.81" transform="translate(87.09 12.41)" fill="#fdd639"/><path id="mobileloop-s-path191" d="M115.15,38.44c2.42-1.02,4.15-3.52,4.16-6.46.02-3.86-2.9-7-6.52-7.02s-6.56,3.1-6.58,6.96c-.01,2.97,1.72,5.5,4.17,6.52-10.08,1.52-9.62,12.48-9.62,12.48l23.84.11c0,0,.54-11.08-9.45-12.59Z" fill="#fff"/></g></g></g></g></g><g id="mobileloop-u-map"><path id="mobileloop-s-path192" d="M267.53,139.71c0,1.69-1.37,3.06-3.06,3.06s-3.06-1.37-3.06-3.06s1.37-3.06,3.06-3.06s3.06,1.37,3.06,3.06Z" fill="#263238"/><g id="mobileloop-s-path193_ts" transform="translate(266.3,138.88) scale(0,0)"><path id="mobileloop-s-path193" d="M370.09,225.68l-2.46-65.24c0-11.34-7.7-20.56-17.17-20.56h-84.17v-1h84.17c10.02,0,18.17,9.66,18.17,21.54l2.46,65.22-1,.04Z" transform="translate(-266.3,-138.88)" fill="#263238"/></g><g id="mobileloop-s-g29_to" transform="translate(378.099413,-71.039734)"><g id="mobileloop-s-g29_ts" transform="scale(0,0)"><g id="mobileloop-s-g29" transform="translate(-378.099411,-207.842125)"><g id="mobileloop-s-g30"><rect id="mobileloop-s-rect21" width="145.34" height="101.19" rx="12.58" ry="12.58" transform="translate(305.43 160.98)" fill="#fafafa"/><path id="mobileloop-s-path194" d="M438.19,262.17c-.02-.1,1.72.19,4.65-.96c1.44-.58,3.16-1.59,4.67-3.31c1.53-1.68,2.79-4.14,3.1-7.09.11-1.47.03-3.06.05-4.71c0-1.66,0-3.39-.01-5.21c0-3.63-.01-7.57-.02-11.81-.01-8.47-.02-18.12-.04-28.78c0-5.33-.01-10.92-.02-16.74c0-2.91,0-5.88,0-8.9.03-1.52-.04-3.01-.48-4.48-.41-1.46-1.11-2.85-2.04-4.07-1.85-2.46-4.7-4.23-7.85-4.73-1.56-.26-3.21-.15-4.85-.17-1.65,0-3.3,0-4.97,0-6.68,0-13.55,0-20.6.01-28.2,0-59.2.01-91.74.02-1.99,0-3.97.5-5.73,1.41s-3.26,2.28-4.4,3.88c-1.13,1.61-1.83,3.5-2.09,5.43-.13.96-.12,1.95-.11,2.95c0,.99,0,1.99,0,2.98c0,7.93,0,15.73,0,23.41c0,15.35-.01,30.15-.02,44.25c0,.88,0,1.76,0,2.64-.01.88,0,1.75.06,2.59.16,1.7.68,3.35,1.51,4.82c1.64,2.95,4.5,5.12,7.68,5.93c1.59.43,3.23.42,4.88.41c1.65,0,3.28,0,4.9,0c3.24,0,6.43,0,9.56,0c12.54.01,24.22.02,34.89.03c21.32.03,38.58.06,50.51.08c5.96.02,10.58.04,13.73.05c1.56.01,2.76.02,3.57.03.8,0,1.22.03,1.22.03s-.41.02-1.22.03c-.81,0-2.01.01-3.57.03-3.15.01-7.78.03-13.73.05-11.94.02-29.19.05-50.51.08-10.66,0-22.35.02-34.89.03-3.14,0-6.32,0-9.56,0-1.62,0-3.25,0-4.9,0-1.63.01-3.35.03-4.99-.42-3.3-.83-6.27-3.08-7.98-6.14-.86-1.52-1.41-3.24-1.57-5.01-.06-.89-.07-1.77-.06-2.64c0-.88,0-1.75,0-2.64c0-14.1,0-28.91-.02-44.25c0-7.67,0-15.48,0-23.41c0-.99,0-1.98,0-2.98c0-.99-.01-2,.12-3.02.27-2.01,1-3.99,2.18-5.67c1.18-1.67,2.75-3.09,4.58-4.05c1.83-.95,3.9-1.46,5.97-1.47c32.54,0,63.54.01,91.74.02c7.05,0,13.92,0,20.6.01c1.67,0,3.33,0,4.97,0c1.64.03,3.28-.09,4.92.19c3.26.52,6.21,2.36,8.12,4.91.96,1.27,1.67,2.71,2.1,4.22.45,1.5.53,3.09.49,4.59c0,3.03,0,5.99,0,8.9c0,5.82-.01,11.41-.02,16.74-.01,10.66-.03,20.31-.04,28.78c0,4.24-.01,8.18-.02,11.81c0,1.81,0,3.55-.01,5.21-.02,1.66.04,3.22-.07,4.73-.33,3-1.62,5.49-3.18,7.17-1.54,1.73-3.28,2.74-4.74,3.31-1.47.6-2.68.72-3.47.82-.81.03-1.22.03-1.22.03Z" fill="#263238"/></g><g id="mobileloop-s-g31"><path id="mobileloop-s-path195" d="M346.64,166.02h-31.34c-2.51,0-4.54,2.03-4.54,4.54v50.99h49.14l-13.25-55.53Z" fill="#31544e"/><polygon id="mobileloop-s-polygon8" points="351.02,166.02 365.37,221.55 421.34,221.55 404.01,166.02 351.02,166.02" fill="#fdd639"/><path id="mobileloop-s-path196" d="M410.62,166.02l11.11,34.6l22.55-30.07v0c0-2.5-2.03-4.53-4.53-4.53h-29.13Z" fill="#e0e0e0"/><path id="mobileloop-s-path197" d="M444.28,176.64l-20.9,28.91l16.37,49.51v0c2.5,0,4.53-2.03,4.53-4.53v-73.89Z" fill="#31544e"/><polygon id="mobileloop-s-polygon9" points="433.21,255.06 423.61,224.86 353.41,225.92 340.96,255.33 433.21,255.06" fill="#263238"/><path id="mobileloop-s-path198" d="M335.92,255.06l12.98-29.14h-38.15v24.6c0,2.51,2.03,4.54,4.54,4.54h20.63Z" fill="#e0e0e0"/></g><g id="mobileloop-s-g32" opacity="0.3"><path id="mobileloop-s-path199" d="M391.49,195.1c0,1.08-3.92,1.95-8.76,1.95s-8.76-.87-8.76-1.95s3.92-1.95,8.76-1.95s8.76.87,8.76,1.95Z"/></g><path id="mobileloop-s-path200" d="M399.25,169.83c0-10.18-9.2-18.2-19.73-16.23-6.63,1.24-11.91,6.66-13.07,13.3-.73,4.15.13,8.06,2.02,11.28v0l.05.06c.63,1.07,1.43,1.83,2.23,2.95l9.6,12.71c1.19,1.58,3.57,1.58,4.76,0l9.44-12.5c0,0,1.76-2.1,2.4-3.18l.03-.05v0c1.44-2.45,2.28-5.3,2.28-8.35Zm-16.53,7.2c-4.02,0-7.27-3.26-7.27-7.27s3.26-7.27,7.27-7.27s7.27,3.26,7.27,7.27-3.26,7.27-7.27,7.27Z" fill="#455a64"/></g></g></g></g></svg>
