<?xml version="1.0" encoding="UTF-8" standalone="no"?>
<!-- Generator: Adobe Illustrator 23.0.0, SVG Export Plug-In . SVG Version: 6.00 Build 0)  -->

<svg
   version="1.1"
   x="0px"
   y="0px"
   width="723px"
   height="810px"
   viewBox="0 0 3710 3434.15"
   style="enable-background:new 0 0 3710 3434.15;"
   xml:space="preserve"
   id="svg114"
   sodipodi:docname="person.svg"
   inkscape:version="1.1.2 (0a00cf5339, 2022-02-04)"
   xmlns:inkscape="http://www.inkscape.org/namespaces/inkscape"
   xmlns:sodipodi="http://sodipodi.sourceforge.net/DTD/sodipodi-0.dtd"
   xmlns="http://www.w3.org/2000/svg"
   xmlns:svg="http://www.w3.org/2000/svg"><defs
   id="defs118">
	

		
		
		
		
		
		
		
		
		
		
		
		
		
		
		
		
		
		
		
		
		
		
		
		
		
		
		
		
		
		
		
		
		
		
		
		
		
		
		
		
		
		
		
		
		
		
		
		
		
		
		
		
		
		
	</defs><sodipodi:namedview
   id="namedview116"
   pagecolor="#ffffff"
   bordercolor="#666666"
   borderopacity="1.0"
   inkscape:pageshadow="2"
   inkscape:pageopacity="0.0"
   inkscape:pagecheckerboard="0"
   showgrid="false"
   inkscape:zoom="0.22800402"
   inkscape:cx="1824.5292"
   inkscape:cy="1717.075"
   inkscape:window-width="2560"
   inkscape:window-height="1391"
   inkscape:window-x="0"
   inkscape:window-y="25"
   inkscape:window-maximized="1"
   inkscape:current-layer="svg114" />
<path
   style="clip-rule:evenodd;fill:#c7dcf5;fill-rule:evenodd"
   d="m 595.93,1587.45 c -35.08,-14.27 -66.65,-34.59 -93.65,-59.49 l -38.46,27.07 c -12.31,8.65 -29.37,5.71 -38.04,-6.6 l -11.1,-15.82 -22.79,-32.42 -11.1,-15.82 c -8.65,-12.31 -5.7,-29.4 6.6,-38.04 l 38.46,-27 c -14.27,-33.83 -22.71,-70.46 -24.26,-108.29 l -46.33,-8.08 c -14.78,-2.53 -24.76,-16.73 -22.15,-31.5 l 3.3,-19.05 6.83,-39.09 3.31,-19.05 c 2.59,-14.78 16.79,-24.76 31.57,-22.23 l 46.25,8.09 c 14.27,-35.09 34.59,-66.66 59.51,-93.66 l -27.07,-38.46 c -8.6,-12.22 -5.64,-29.39 6.58,-37.97 l 15.9,-11.11 32.43,-22.86 15.81,-11.1 c 12.24,-8.64 29.32,-5.62 37.96,6.6 l 27.08,38.46 c 33.84,-14.26 70.38,-22.7 108.28,-24.25 l 8.04,-46.28 c 2.57,-14.76 16.79,-24.75 31.55,-22.21 l 19.05,3.37 39.1,6.82 19.05,3.31 c 14.76,2.53 24.77,16.72 22.15,31.5 l -8.08,46.33 c 35.15,14.27 66.72,34.59 93.65,59.41 l 38.55,-27 c 12.2,-8.64 29.32,-5.69 37.95,6.62 l 11.1,15.82 22.79,32.4 11.17,15.84 c 8.59,12.3 5.63,29.39 -6.58,38.04 l -38.55,27.01 c 14.27,33.81 22.71,70.38 24.26,108.27 l 46.33,8.09 c 14.78,2.53 24.76,16.73 22.15,31.5 l -3.3,19.05 -6.83,39.1 -3.3,19.05 c -2.6,14.75 -16.78,24.74 -31.58,22.14 l -46.25,-8.02 c -14.27,35.08 -34.59,66.66 -59.49,93.66 l 27.04,38.45 c 8.68,12.31 5.64,29.33 -6.58,37.97 l -15.83,11.12 -32.49,22.86 -15.82,11.12 c -12.23,8.65 -29.32,5.63 -37.96,-6.61 l -27.08,-38.46 c -33.82,14.28 -70.38,22.72 -108.19,24.27 l -8.1,46.25 c -2.6,14.78 -16.81,24.76 -31.56,22.23 l -19.06,-3.38 -39.03,-6.82 -19.05,-3.3 c -14.83,-2.53 -24.75,-16.75 -22.22,-31.5 z M 100.16,1124.93 79.98,1088.86 c -7.31,-13.01 -2.64,-29.6 10.34,-36.85 l 22.93,-12.86 c -3.25,-18.28 -2.94,-36.77 0.69,-54.57 L 91.3,971.16 C 78.49,963.56 74.29,946.9 81.88,934.1 l 21.09,-35.57 c 7.6,-12.79 24.34,-17.08 37.13,-9.43 l 22.57,13.37 c 6.91,-5.77 14.43,-10.97 22.58,-15.54 8.08,-4.57 16.52,-8.23 25.03,-11.1 l 0.35,-26.31 c 0.14,-14.91 12.51,-26.93 27.35,-26.71 l 41.35,0.49 c 14.92,0.2 26.93,12.52 26.79,27.41 L 305.77,877 c 17.08,6.19 33.04,15.54 46.91,27.85 l 22.9,-12.87 c 13.01,-7.31 29.62,-2.6 36.84,10.34 l 20.26,36.04 c 7.3,13.03 2.6,29.62 -10.34,36.86 l -22.92,12.86 c 3.24,18.29 2.89,36.78 -0.69,54.57 l 22.57,13.42 c 12.79,7.6 17.08,24.27 9.49,37.13 l -21.16,35.51 c -7.61,12.79 -24.27,17.09 -37.06,9.49 l -22.65,-13.42 c -6.9,5.75 -14.42,10.97 -22.5,15.54 -8.15,4.57 -16.52,8.3 -25.01,11.1 l -0.38,26.29 c -0.2,14.91 -12.52,26.93 -27.4,26.72 l -41.35,-0.49 c -14.82,-0.2 -26.93,-12.51 -26.72,-27.43 l 0.35,-26.29 c -17.06,-6.19 -33.04,-15.54 -46.97,-27.84 l -22.85,12.87 c -13.02,7.32 -29.63,2.69 -36.93,-10.32 z m 101.6,-72.98 c -21.17,-30.09 -13.92,-71.64 16.16,-92.89 30.17,-21.16 71.72,-13.94 92.89,16.25 21.23,30.09 14.02,71.71 -16.18,92.88 -30.08,21.17 -71.69,13.91 -92.87,-16.24 z M 470.71,919.2 442.67,888.83 c -10.14,-10.9 -9.5,-28.13 1.48,-38.26 l 19.24,-17.85 C 456,815.77 452,797.7 451.37,779.48 l -25.1,-7.73 c -14.28,-4.42 -22.3,-19.69 -17.87,-33.88 l 12.23,-39.51 c 4.43,-14.23 19.71,-22.23 33.91,-17.8 l 25.08,7.75 c 5.34,-7.25 11.46,-14.07 18.28,-20.39 6.83,-6.34 14.14,-11.89 21.73,-16.67 l -5.76,-25.6 c -3.3,-14.55 5.91,-29.11 20.39,-32.41 l 40.35,-9.15 c 14.49,-3.3 29.05,5.91 32.34,20.46 l 5.84,25.58 c 18.09,2.06 35.72,7.47 52.1,16.2 l 19.29,-17.87 c 10.96,-10.12 28.18,-9.43 38.25,1.48 l 28.11,30.38 c 10.13,10.89 9.41,28.12 -1.48,38.24 l -19.33,17.86 c 7.46,16.95 11.47,35.02 12.02,53.15 l 25.16,7.81 c 14.22,4.43 22.23,19.68 17.87,33.88 l -12.31,39.53 c -4.33,14.19 -19.61,22.21 -33.81,17.78 l -25.11,-7.72 c -5.41,7.16 -11.44,14.06 -18.28,20.38 -6.9,6.33 -14.19,11.88 -21.81,16.6 l 5.84,25.66 c 3.3,14.55 -5.91,29.11 -20.46,32.42 l -40.29,9.13 c -14.55,3.31 -29.12,-5.91 -32.41,-20.46 l -5.84,-25.66 c -18,-1.97 -35.71,-7.39 -52.1,-16.1 l -19.28,17.85 c -10.86,10.14 -28.07,9.42 -38.21,-1.47 z M 542.07,812.89 C 520.84,782.8 528.09,741.24 558.25,720 c 30.09,-21.16 71.71,-13.93 92.9,16.24 21.15,30.1 13.9,71.65 -16.2,92.88 -30.16,21.18 -71.71,13.92 -92.88,-16.23 z m -13,615.09 c -35.86,-51.04 -47.68,-111.8 -37.76,-168.75 9.92,-56.94 41.55,-110.12 92.6,-145.96 50.98,-35.87 111.73,-47.69 168.68,-37.77 56.95,9.92 110.13,41.63 146.05,92.6 35.86,51.06 47.66,111.81 37.68,168.76 -9.9,56.96 -41.55,110.1 -92.6,145.97 -50.98,35.85 -111.74,47.66 -168.68,37.75 -56.96,-9.98 -110.12,-41.63 -145.97,-92.6 z m 22.99,-158.13 c -7.18,41.42 1.4,85.5 27.49,122.62 26.08,37.05 64.69,60.11 106.12,67.3 41.33,7.23 85.5,-1.34 122.61,-27.43 37.08,-26.08 60.04,-64.69 67.29,-106.11 7.18,-41.41 -1.4,-85.5 -27.41,-122.63 -26.09,-37.05 -64.77,-60.11 -106.11,-67.28 -41.4,-7.25 -85.58,1.33 -122.63,27.41 -37.13,26.11 -60.12,64.7 -67.36,106.12 z m 0,0"
   id="path2" /><path
   style="clip-rule:evenodd;fill:#e7f1fb;fill-rule:evenodd"
   d="m 2307.85,617.13 c -402.91,0 -461.84,639.42 -784.7,834.24 -427.3,258 -1163.8,347.93 -1236.45,790.61 -127.53,777.17 780.39,841.15 1716.6,841.15 936.15,0 1805.71,-431.01 1654.19,-1206.21 C 3505.96,1101.8 3244.05,617.13 2307.85,617.13 Z m 0,0"
   id="path4" /><path
   style="clip-rule:evenodd;fill:#6bb7bf;fill-rule:evenodd"
   d="m 937.74,286.31 h 1662.68 c 129.78,0 235.96,106.18 235.96,235.97 v 2285.45 c 0,129.8 -106.18,236.04 -235.96,236.04 H 937.74 c -129.82,0 -235.98,-106.24 -235.98,-236.04 V 522.28 c 0,-129.8 106.16,-235.97 235.98,-235.97 z m 0,0"
   id="path14" /><path
   style="clip-rule:evenodd;fill:#c7dcf5;fill-rule:evenodd"
   d="m 937.74,353.04 h 1662.68 c 93.08,0 169.23,76.15 169.23,169.24 v 2285.45 c 0,93.16 -76.15,169.31 -169.23,169.31 H 937.74 c -93.1,0 -169.33,-76.15 -169.33,-169.31 V 522.28 c 0,-93.09 76.23,-169.24 169.33,-169.24 z m 0,0"
   id="path16" /><path
   style="clip-rule:evenodd;fill:#ffffff;fill-rule:evenodd"
   d="m 807.24,469.76 1649.52,-129.8 184.99,2350.41 -1649.46,129.87 z m 0,0"
   id="path18" /><path
   style="clip-rule:evenodd;fill:#c7dcf5;fill-rule:evenodd"
   d="m 1643.73,553.99 739.76,-58.22 15.07,190.9 -739.78,58.2 z m 0,0"
   id="path20" /><path
   style="clip-rule:evenodd;fill:#c7dcf5;fill-rule:evenodd"
   d="m 1677.7,907.67 656.08,-51.82 c 17.23,-1.41 33.83,11.6 33.83,28.82 0,17.29 -11.66,32.41 -28.9,33.82 l -656.08,51.83 c -17.24,1.33 -33.85,-11.61 -33.85,-28.9 -0.01,-17.23 11.69,-32.42 28.92,-33.75 z m 8.78,111.58 248.7,-19.76 c 17.24,-1.41 32.42,11.6 33.75,28.84 1.33,17.22 -11.67,32.41 -28.82,33.79 l -248.69,19.78 c -17.22,1.33 -32.43,-11.68 -33.83,-28.9 -1.34,-17.22 11.67,-32.42 28.89,-33.75 z m 0,0"
   id="path22" /><path
   style="clip-rule:evenodd;fill:#c7dcf5;fill-rule:evenodd"
   d="m 1001.57,1260.78 187.95,-14.78 14.77,187.95 -187.86,14.76 z m 0,0"
   id="path24" /><path
   style="clip-rule:evenodd;fill:#c7dcf5;fill-rule:evenodd"
   d="m 1337.64,1241.23 1020.19,-80.29 c 17.22,-1.34 32.41,11.66 33.75,28.9 1.33,17.22 -11.61,32.41 -28.84,33.74 l -1020.14,80.31 c -17.25,1.33 -32.43,-11.6 -33.75,-28.84 -1.36,-17.22 11.58,-32.49 28.79,-33.82 z m 8.81,111.59 612.72,-48.25 c 17.23,-1.32 32.38,11.69 33.81,28.9 1.35,17.23 -11.67,32.4 -28.9,33.75 l -612.7,48.23 c -17.22,1.34 -32.41,-11.6 -33.74,-28.82 -1.35,-17.22 11.61,-32.48 28.81,-33.81 z m 0,0"
   id="path26" /><path
   style="clip-rule:evenodd;fill:#c7dcf5;fill-rule:evenodd"
   d="m 1025.62,1565.93 187.87,-14.76 14.83,187.87 -187.95,14.84 z m 0,0"
   id="path28" /><path
   style="clip-rule:evenodd;fill:#c7dcf5;fill-rule:evenodd"
   d="m 1361.71,1546.39 1020.09,-80.31 c 17.23,-1.4 32.42,11.61 33.83,28.84 1.33,17.22 -11.65,32.42 -28.88,33.83 l -1020.1,80.28 c -17.25,1.34 -32.43,-11.66 -33.75,-28.89 -1.42,-17.23 11.58,-32.42 28.81,-33.75 z m 8.79,111.58 612.73,-48.22 c 17.22,-1.34 32.37,11.6 33.74,28.81 1.32,17.24 -11.62,32.42 -28.84,33.83 l -612.72,48.23 c -17.22,1.33 -32.41,-11.67 -33.81,-28.89 -1.34,-17.24 11.65,-32.42 28.9,-33.76 z m 0,0"
   id="path30" /><path
   style="clip-rule:evenodd;fill:#c7dcf5;fill-rule:evenodd"
   d="m 1049.59,1871.09 187.96,-14.83 14.75,187.95 -187.88,14.75 z m 0,0"
   id="path32" /><path
   style="clip-rule:evenodd;fill:#c7dcf5;fill-rule:evenodd"
   d="m 1385.69,1851.47 1020.17,-80.29 c 17.23,-1.33 32.41,11.68 33.75,28.9 1.4,17.23 -11.62,32.41 -28.84,33.75 l -1020.08,80.29 c -17.24,1.33 -32.5,-11.61 -33.82,-28.82 -1.35,-17.24 11.59,-32.42 28.82,-33.83 z m 8.79,111.58 612.72,-48.22 c 17.22,-1.34 32.41,11.66 33.81,28.9 1.33,17.22 -11.68,32.41 -28.89,33.74 l -612.72,48.25 c -17.22,1.32 -32.41,-11.61 -33.74,-28.84 -1.33,-17.23 11.59,-32.42 28.82,-33.83 z m 0,0"
   id="path34" /><path
   style="clip-rule:evenodd;fill:#c7dcf5;fill-rule:evenodd"
   d="m 1073.64,2176.17 187.87,-14.77 14.83,187.88 -187.93,14.83 z m 0,0"
   id="path36" /><path
   style="clip-rule:evenodd;fill:#c7dcf5;fill-rule:evenodd"
   d="m 1409.73,2156.63 1020.1,-80.29 c 17.23,-1.34 32.47,11.6 33.82,28.82 1.33,17.23 -11.62,32.42 -28.82,33.82 l -1020.16,80.31 c -17.23,1.33 -32.43,-11.68 -33.75,-28.9 -1.42,-17.24 11.59,-32.43 28.81,-33.76 z m 8.79,111.59 612.73,-48.25 c 17.21,-1.33 32.4,11.61 33.72,28.84 1.42,17.22 -11.59,32.48 -28.81,33.82 l -612.71,48.23 c -17.23,1.34 -32.42,-11.66 -33.75,-28.9 -1.39,-17.22 11.59,-32.4 28.82,-33.74 z m 0,0"
   id="path38" /><path
   style="clip-rule:evenodd;fill:#c7dcf5;fill-rule:evenodd"
   d="m 1097.6,2481.33 187.97,-14.84 14.75,187.95 -187.86,14.78 z m 0,0"
   id="path40" /><path
   style="clip-rule:evenodd;fill:#c7dcf5;fill-rule:evenodd"
   d="m 1433.78,2461.72 1020.1,-80.31 c 17.23,-1.33 32.43,11.68 33.75,28.9 1.4,17.23 -11.61,32.42 -28.85,33.75 l -1020.06,80.29 c -17.25,1.41 -32.42,-11.6 -33.85,-28.82 -1.33,-17.22 11.68,-32.41 28.91,-33.81 z m 8.71,111.58 612.72,-48.17 c 17.24,-1.4 32.49,11.61 33.81,28.84 1.37,17.22 -11.59,32.41 -28.81,33.75 l -612.71,48.22 c -17.23,1.41 -32.48,-11.6 -33.82,-28.82 -1.33,-17.23 11.66,-32.41 28.81,-33.82 z m 0,0"
   id="path42" /><path
   style="clip-rule:evenodd;fill:#599dad;fill-rule:evenodd"
   d="m 1356.1,182.17 h 292.34 V 120.58 C 1648.44,54.28 1702.72,0 1769.02,0 c 66.38,0 120.66,54.28 120.66,120.58 v 61.59 h 292.34 c 40.1,0 72.93,32.84 72.93,72.92 v 138.78 c 0,40.1 -32.83,72.94 -72.93,72.94 H 1356.1 c -40.18,0 -72.93,-32.84 -72.93,-72.94 V 255.09 c 0,-40.07 32.76,-72.92 72.93,-72.92 z M 1769.03,72 c 29.46,0 53.37,23.91 53.37,53.37 0,29.46 -23.91,53.36 -53.37,53.36 -29.45,0 -53.38,-23.9 -53.38,-53.36 C 1715.64,95.91 1739.58,72 1769.03,72 Z m 0,0"
   id="path44" /><path
   style="clip-rule:evenodd;fill:#ed6c50;fill-rule:evenodd"
   d="m 998.82,1275.87 c -6.67,-8.91 -4.9,-21.56 4.01,-28.24 8.93,-6.68 21.66,-4.92 28.34,4.01 l 71.78,95.76 169.53,-171.77 c 7.89,-7.95 20.69,-8.03 28.62,-0.21 7.94,7.8 8.08,20.66 0.2,28.61 l -186.05,188.44 c -0.69,0.71 -1.48,1.34 -2.25,1.97 -8.93,6.68 -21.64,4.86 -28.33,-4.01 z m 0,0"
   id="path46" /><path
   style="clip-rule:evenodd;fill:#ed6c50;fill-rule:evenodd"
   d="m 1022.8,1581.04 c -6.67,-8.92 -4.84,-21.58 4.07,-28.33 8.96,-6.68 21.58,-4.85 28.28,4.08 l 71.78,95.69 169.6,-171.69 c 7.82,-7.95 20.61,-8.09 28.55,-0.29 8.03,7.88 8.09,20.67 0.28,28.62 l -186.04,188.43 c -0.68,0.72 -1.48,1.41 -2.32,1.97 -8.92,6.76 -21.57,4.92 -28.27,-4.01 z m 0,0"
   id="path48" /><path
   style="clip-rule:evenodd;fill:#ed6c50;fill-rule:evenodd"
   d="m 1046.85,1886.14 c -6.67,-8.92 -4.85,-21.59 4.03,-28.27 8.91,-6.68 21.64,-4.92 28.32,4.01 l 71.79,95.76 169.52,-171.77 c 7.89,-7.95 20.68,-8.02 28.62,-0.21 7.93,7.8 8.08,20.61 0.27,28.62 l -186.09,188.44 c -0.71,0.69 -1.48,1.32 -2.27,1.96 -8.91,6.68 -21.57,4.85 -28.32,-4.08 z m 0,0"
   id="path50" /><path
   style="clip-rule:evenodd;fill:#ed6c50;fill-rule:evenodd"
   d="m 1070.89,2191.3 c -6.67,-8.93 -4.94,-21.58 4.03,-28.28 8.91,-6.74 21.57,-4.92 28.25,4.01 l 71.85,95.71 169.52,-171.72 c 7.8,-7.94 20.68,-8.08 28.62,-0.2 7.93,7.8 8.08,20.6 0.22,28.54 l -186.04,188.51 c -0.71,0.63 -1.48,1.34 -2.34,1.97 -8.91,6.67 -21.57,4.86 -28.27,-4.07 z m 0,0"
   id="path52" /><path
   style="clip-rule:evenodd;fill:#6bb7bf;fill-rule:evenodd"
   d="m 1254.27,594.12 c 141.9,-10.39 265.45,96.28 275.85,238.17 10.39,141.95 -96.21,265.42 -238.16,275.83 -141.96,10.47 -265.43,-96.19 -275.83,-238.09 -10.41,-141.95 96.18,-265.42 238.14,-275.91 z m 0,0"
   id="path54" /><path
   style="clip-rule:evenodd;fill:#6bb7bf;fill-rule:evenodd"
   d="m 1256.24,621.71 c 126.77,-9.35 237.02,85.85 246.36,212.63 9.29,126.69 -85.9,237.02 -212.69,246.3 -126.69,9.35 -237.02,-85.85 -246.31,-212.63 -9.25,-126.77 85.95,-237.02 212.64,-246.3 z m 0,0"
   id="path56" /><path
   style="clip-rule:evenodd;fill:#ffffff;fill-rule:evenodd"
   d="m 1210.39,882.85 31.58,-2.33 c -32.49,-10.68 -56.96,-40.07 -59.58,-76.29 -3.5,-47.94 32.5,-89.65 80.45,-93.17 47.89,-3.51 89.65,32.49 93.17,80.44 2.61,36.21 -17.21,68.84 -47.79,84.17 l 31.52,-2.32 c 44.31,-3.25 83.15,30.3 86.44,74.53 l 5.1,70.39 c -37.16,35.22 -86.26,58.34 -141.38,62.36 -55.05,4.07 -106.99,-11.68 -148.91,-41.07 l -5.23,-70.38 c -3.2,-44.22 30.34,-83.11 74.63,-86.33 z m 0,0"
   id="path58" /><path
   style="clip-rule:evenodd;fill:#cce2ff;fill-rule:evenodd"
   d="m 2574.06,3144.95 c -608.43,0 -1101.59,64.68 -1101.59,144.56 0,79.87 493.16,144.64 1101.59,144.64 608.4,0 1101.57,-64.77 1101.57,-144.64 0,-79.88 -493.18,-144.56 -1101.57,-144.56 z m 0,0"
   id="path60" /><path
   style="clip-rule:evenodd;fill:#1c468a;fill-rule:evenodd"
   d="m 2073.48,3249.64 c 109.21,-1.76 190.85,-3.02 228.57,-14.97 40.66,-12.81 32.27,-37.62 8.89,-77.35 -102.95,47.32 -75.55,-9.71 -123.64,-2.46 -33.86,27.21 -83.96,45.49 -150.31,54.77 -28.05,20.67 -16.67,39.1 36.49,40.01 z m 0,0"
   id="path62" /><path
   style="clip-rule:evenodd;fill:#f99746;fill-rule:evenodd"
   d="m 2213.75,1585.54 h 674.8 c 13.35,0 27.07,10.9 30.6,24.2 l 120.02,457.23 c 3.49,13.3 -4.5,24.12 -17.83,24.12 H 2346.5 c -13.29,0 -27,-10.82 -30.52,-24.12 l -120.02,-457.23 c -3.48,-13.29 4.51,-24.2 17.79,-24.2 z m 0,0"
   id="path64" /><path
   style="clip-rule:evenodd;fill:#699dee;fill-rule:evenodd"
   d="m 2933.55,1598.77 81.5,310.35 c 97.85,-47.74 215.84,-124.38 339.46,-222.75 3.39,-44.23 7.44,-79.52 12.39,-105.9 -9.94,-19.68 -20.76,-40.7 -32.64,-63.07 114.11,-0.71 183.73,-25.24 208.85,-73.61 -30.54,-89.37 -73.22,-180.57 -128.06,-273.68 -38.33,-56.72 -113.47,-90.06 -225.28,-100.04 -13.09,150.06 -243.15,142.32 -189.08,13.23 -83.46,22.35 -154.21,63.76 -212.11,124.16 -49.87,122.84 -80.32,208.54 -91.23,257.21 54.16,37.89 105.41,62.44 153.86,73.62 2.18,10.61 3.94,22.7 5.19,36.27 h 46.63 c 13.27,0.01 27.01,10.92 30.52,24.21 z m 0,0"
   id="path66" /><path
   style="clip-rule:evenodd;fill:#ed6c50;fill-rule:evenodd"
   d="m 3015.06,1909.13 -81.5,-310.35 c -3.51,-13.3 -17.25,-24.2 -30.51,-24.2 h -674.87 c -13.29,0 -36.98,17.17 -33.04,30.31 -0.64,-10.97 6.97,-19.34 18.63,-19.34 h 674.8 c 13.35,0 27.07,10.9 30.6,24.2 l 120.02,457.23 c 2.08,7.95 0,15.04 -4.8,19.48 11.1,-7.16 21.73,-21.09 19.2,-30.51 z m 0,0"
   id="path68" /><path
   style="clip-rule:evenodd;fill:#ed6c50;fill-rule:evenodd"
   d="m 3021.35,2091.1 h -674.84 c -2.47,0 -4.9,-0.35 -7.38,-1.06 13.42,34.81 49.91,29.69 64.18,29.54 h 800.04 c 43.38,-1.82 42.24,-32.21 42.82,-61.53 h -192.23 c 0.64,9.29 -9.21,21.74 -19.55,28.41 -3.25,2.95 -7.77,4.64 -13.04,4.64 z m 0,0"
   id="path70" /><path
   style="clip-rule:evenodd;fill:#ed6c50;fill-rule:evenodd"
   d="m 2926.85,1773.56 c -72.34,36.64 -157.84,47.82 -245.87,52.32 0.99,3.16 1.76,6.47 2.25,9.71 5.89,37.13 -20.25,68.7 -57.98,68.7 -35.6,0 -67.87,-28.2 -73.44,-63.22 -0.55,-3.78 -0.84,-7.52 -0.75,-11.17 -91.34,2.46 -179.65,7.45 -252.64,36 l 50.21,191.18 h 652.71 z m 0,0"
   id="path72" /><path
   style="clip-rule:evenodd;fill:#ed6c50;fill-rule:evenodd"
   d="m 2610.61,1794.59 c 24.2,0 46.88,19.55 50.76,43.74 3.8,24.18 -12.75,43.8 -36.9,43.8 -24.21,0 -46.91,-19.62 -50.72,-43.8 -3.86,-24.19 12.64,-43.74 36.86,-43.74 z m 0,0"
   id="path74" /><path
   style="clip-rule:evenodd;fill:#699dee;fill-rule:evenodd"
   d="m 3387.07,1979.73 c -13.5,-40.99 -23.12,-83.61 -29.06,-127.7 -90.87,35.16 -194.82,69.12 -326.16,121.01 l 17.72,67.58 c 198.56,6.46 311.06,-13.78 337.5,-60.89 z m 0,0"
   id="path76" /><path
   style="clip-rule:evenodd;fill:#ffb27d;fill-rule:evenodd"
   d="m 3031.85,1973.04 c 131.34,-51.88 235.29,-85.85 326.16,-121.01 80.1,-31.08 150.07,-63 219.75,-109.12 -2.9,-89.02 -16.18,-175.07 -52.95,-274.93 -33.82,32.35 -97.39,48.87 -190.54,49.43 27,50.96 48.93,94.92 65.94,131.91 -140.19,116.22 -275.27,206.22 -385.15,259.8 z m 0,0"
   id="path78" /><path
   style="clip-rule:evenodd;fill:#ffb27d;fill-rule:evenodd"
   d="m 2714.81,1476.49 c -10.07,35.37 -19.48,68.06 -28.11,98.08 h 169.7 c -1.25,-13.57 -3.01,-25.66 -5.19,-36.27 -43.16,-9.98 -88.68,-30.59 -136.4,-61.81 z m 0,0"
   id="path80" /><path
   style="clip-rule:evenodd;fill:#163560;fill-rule:evenodd"
   d="m 2302.77,3121.39 c 100.43,-364.07 136.29,-619.72 107.72,-767.17 57.02,8.15 114.31,10.66 171.85,7.66 -8.72,-39.38 -17.51,-78.82 -26.51,-118.82 1.06,-54.28 28.82,-94.58 127.12,-123.47 H 2403.3 c -9.55,0.14 -28.95,2.38 -44.78,-6.4 -90.14,25.73 -134.08,68.27 -149.21,120.17 -10.95,142.8 18.71,305.44 -6.51,889.11 31.48,3.28 64.82,2.86 99.97,-1.08 z m 0,0"
   id="path82" /><path
   style="clip-rule:evenodd;fill:#1c468a;fill-rule:evenodd"
   d="m 2407.68,2119.58 h -4.38 c -9.55,0.14 -28.95,2.38 -44.78,-6.4 -90.14,25.73 -134.08,68.27 -149.21,120.17 -10.95,142.8 18.71,305.44 -6.51,889.11 18.77,1.96 38.23,2.6 58.34,1.96 51.82,-202.85 175.22,-700.52 36.21,-915.04 32.63,-34.6 69.41,-64.49 110.33,-89.8 z m 0,0"
   id="path84" /><path
   style="clip-rule:evenodd;fill:#ffb27d;fill-rule:evenodd"
   d="m 3189.56,1071.64 c -17.87,-22.71 -33.62,-43.88 -38.25,-58.85 3.57,-10.34 7.38,-23.28 11.32,-38.96 67.03,-45.49 76.15,-79.18 27.47,-100.97 -9.82,5.49 -21.98,22.43 -36.54,50.75 -11.61,-0.41 -20.41,-6.39 -26.37,-17.78 13.87,-47.89 22.78,-86.78 27,-116.73 -33.07,-49.01 -110.17,-56.04 -212.42,-42.74 -4.69,27.2 -8.64,55.97 -11.66,86.42 -18.07,16.66 -15.75,78.31 0.92,149.49 -8.31,40.42 16.66,62.51 74.94,66.22 0.86,14.35 -4.87,32.62 -5.27,34.81 0,0.13 -0.13,0.27 -0.13,0.41 -53.17,128.2 174.51,136.08 188.99,-12.07 z m 0,0"
   id="path86" /><path
   style="clip-rule:evenodd;fill:#b5453c;fill-rule:evenodd"
   d="m 2941.77,746.37 c 102.25,-13.3 179.35,-6.27 212.42,42.74 -4.22,29.96 -13.13,68.84 -27,116.73 5.97,11.38 14.76,17.36 26.37,17.78 14.55,-28.32 26.72,-45.27 36.54,-50.75 48.68,21.8 39.56,55.48 -27.47,100.97 -3.94,15.67 -7.75,28.61 -11.32,38.96 60.26,-13.58 110.66,-67.43 117.77,-90.78 70.31,-138.51 -8.08,-197.02 -50.06,-218.39 -18.49,-137.17 -217.77,-15.88 -317.54,-82.05 -39.65,54.83 9.37,123.52 40.29,124.79 z m 0,0"
   id="path88" /><path
   style="clip-rule:evenodd;fill:#f08261;fill-rule:evenodd"
   d="m 3081.63,1046.74 c -28.18,2.25 -53.44,2.81 -75.66,1.76 0.57,9.85 -1.97,21.58 -3.73,28.69 36.15,-0.91 62.56,-11.12 79.39,-30.45 z m 0,0"
   id="path90" /><path
   style="clip-rule:evenodd;fill:#7a361f;fill-rule:evenodd"
   d="m 2772.9,2336.07 h 608.9 c 21.73,0 39.58,17.79 39.58,39.58 0,21.73 -17.85,39.59 -39.58,39.59 h -608.9 c -21.72,0 -39.53,-17.87 -39.53,-39.59 0,-21.79 17.81,-39.58 39.53,-39.58 z m 0,0"
   id="path92" /><path
   style="clip-rule:evenodd;fill:#a34e3a;fill-rule:evenodd"
   d="m 3345.44,3085.39 c -29.1,-29.1 -69.23,-47.17 -113.53,-47.17 H 2922.8 c -44.22,0 -84.45,18.07 -113.56,47.17 -29.1,29.12 -47.17,69.34 -47.17,113.56 v 32.41 h -12.36 v 40.09 h 91.18 v -40.09 h -12.38 v -32.41 c 0,-25.88 10.6,-49.43 27.73,-66.59 17.08,-17.08 40.68,-27.71 66.57,-27.71 h 309.11 c 25.93,0 49.48,10.62 66.56,27.71 17.09,17.16 27.71,40.71 27.71,66.59 v 32.41 h -12.37 v 40.09 h 91.2 v -40.09 h -12.4 v -32.41 c -0.02,-44.23 -18.07,-84.45 -47.18,-113.56 z m 0,0"
   id="path94" /><rect
   x="3044.0801"
   y="2415.1799"
   style="clip-rule:evenodd;fill:#a34e3a;fill-rule:evenodd"
   width="66.510002"
   height="623.01001"
   id="rect96" /><path
   style="clip-rule:evenodd;fill:#1c468a;fill-rule:evenodd"
   d="m 3290.33,2333.61 c 117.69,-42.26 133.7,-159.54 81.92,-336.8 -42.56,34.87 -150.13,49.43 -322.68,43.8 l 4.01,15.33 c 0.21,0.71 0.28,1.41 0.35,2.1 h 192.23 c -0.58,29.33 0.56,59.71 -42.82,61.53 h -520.39 c -98.29,28.89 -126.06,69.19 -127.12,123.47 62.29,278.29 117.69,533.46 193.14,886.01 25.48,14.27 60.26,13.22 104.49,-3.24 35.37,-342 25.67,-590.63 -29.18,-746.02 145.62,0.57 300.94,-19.25 466.05,-46.18 z m 0,0"
   id="path98" /><path
   style="clip-rule:evenodd;fill:#163560;fill-rule:evenodd"
   d="m 3290.33,2333.61 c 117.69,-42.26 133.7,-159.54 81.92,-336.8 -9.02,7.46 -21.04,13.93 -35.97,19.48 42.91,182.1 -3.71,281.89 -142.09,291.45 -161.44,23.98 -295.24,35.44 -401.48,34.52 46.85,303.6 54.85,568.26 24.04,794.1 11.39,-2.17 23.64,-5.69 36.71,-10.54 35.37,-342 25.67,-590.63 -29.18,-746.02 145.62,0.56 300.94,-19.26 466.05,-46.19 z m 0,0"
   id="path100" /><path
   style="clip-rule:evenodd;fill:#ffb27d;fill-rule:evenodd"
   d="m 2213.35,3123.43 c -2.96,10.95 -7.75,21.23 -14.29,30.93 31.52,2.96 19.34,43.52 104.42,6.34 -3.58,-10.76 -5.62,-23.7 -6.11,-38.74 -29.25,3.02 -57.32,3.51 -84.02,1.47 z m 0,0"
   id="path102" /><path
   style="clip-rule:evenodd;fill:#1c468a;fill-rule:evenodd"
   d="m 2749.25,3313.55 c 58.01,-23.92 66.73,-62.85 98.6,-77.76 32.12,-14.98 35.78,-41.7 4.41,-70.67 -23.18,18.49 -51.95,41.27 -67.21,29.18 -10.2,-8.02 -44.72,-7.52 -51.55,4.22 -30.02,69.9 -71.85,47.74 -80.08,79.52 -0.98,42.33 59.34,50.56 95.83,35.51 z m 0,0"
   id="path104" /><path
   style="clip-rule:evenodd;fill:#ffb27d;fill-rule:evenodd"
   d="m 2759.17,3133.77 c 0.49,18.56 -2.02,37.2 -7.67,55.9 12.45,-1.9 27.43,-0.21 33.55,4.64 14.13,11.18 39.86,-7.52 62.02,-25.1 -3.59,-9.99 -6.06,-22.93 -7.33,-38.74 -32.33,10.11 -59.19,11.25 -80.57,3.3 z m 0,0"
   id="path106" /><path
   style="clip-rule:evenodd;fill:#4a75cb;fill-rule:evenodd"
   d="m 3334.27,1517.42 c -14.98,-27.13 -30.81,-63.56 -47.52,-109.41 8.93,53.37 8.49,91.77 22.97,135.64 -11.66,62.09 -16.52,125.36 -15.32,189.21 19.82,-14.91 39.94,-30.38 60.12,-46.48 3.39,-44.23 7.44,-79.52 12.39,-105.9 -9.94,-19.67 -20.77,-40.7 -32.64,-63.06 z m -517.92,10.69 c 11.73,4.15 23.38,7.52 34.86,10.2 -4.35,-67.92 -7.15,-124.03 -8.57,-168.4 -13.08,65.45 -21.88,118.26 -26.29,158.2 z m 570.72,451.62 c -13.5,-40.99 -23.12,-83.61 -29.06,-127.7 -16.79,6.47 -34.09,12.94 -51.94,19.56 7.16,48.24 17.38,96.6 30.37,144.7 25.36,-9.56 42.25,-21.73 50.63,-36.56 z m 0,0"
   id="path108" />
<g
   id="Illustration">
</g>
</svg>
