<?xml version="1.0" encoding="UTF-8"?>
<svg width="1440px" height="500px" viewBox="0 0 1440 500" version="1.1" xmlns="http://www.w3.org/2000/svg" xmlns:xlink="http://www.w3.org/1999/xlink">
    <title>0C8DD217-ED39-44B1-853A-EE318EB7EF91</title>
    <g id="Pricing" stroke="none" stroke-width="1" fill="none" fill-rule="evenodd">
        <g id="BiznetGio---PRICING-[current-web]---Tab-Compute" transform="translate(0.000000, -100.000000)">
            <g id="Group-13" transform="translate(0.000000, 100.000000)">
                <rect id="Rectangle" fill="#FFFFFF" x="0" y="0" width="1440" height="500"></rect>
                <g id="pricing-bgn" transform="translate(828.424242, 57.000000)">
                    <g id="Group" transform="translate(337.750000, 0.000000)">
                        <path d="M70.8470833,114.124409 C70.8470833,111.679742 68.8659091,109.698203 66.4205114,109.698203 C63.9751136,109.698203 61.9939394,111.679742 61.9939394,114.124409 C61.9939394,116.569076 63.9751136,118.550616 66.4205114,118.550616 C68.8659091,118.550616 70.8470833,116.569076 70.8470833,114.124409 Z" id="Path" fill="#76CC8C"></path>
                        <path d="M62.7396212,0.189819886 C75.9864394,0.189819886 86.9925568,9.7428447 89.2771212,22.3295152 C94.4055114,18.3960436 100.798636,16.0387386 107.758333,16.0387386 C124.558106,16.0387386 138.170455,29.6510871 138.170455,46.4504943 C138.170455,60.9814205 127.975814,73.1199508 114.3525,76.1366723 L107.758333,76.8779678 L25.0826894,76.8779678 C11.3606818,76.8779678 0.233939394,65.752322 0.233939394,52.0310455 C0.233939394,38.3094034 11.3606818,27.1841231 25.0826894,27.1841231 C28.9755871,27.1841231 32.6016477,28.159358 35.8804545,29.7548977 C35.8000379,28.9061364 35.7598295,28.0540852 35.7598295,27.1841231 C35.7598295,12.279625 47.8332955,0.189819886 62.7396212,0.189819886 Z" id="Path" fill="#004C6F"></path>
                        <polyline id="Path" stroke="#004C6F" stroke-linecap="round" stroke-linejoin="round" points="85.3842235 76.8779678 85.245322 98.3360587 107.400114 98.3360587"></polyline>
                        <polyline id="Path" stroke="#004C6F" stroke-linecap="round" stroke-linejoin="round" points="48.4510417 76.8779678 48.5935985 98.3360587 26.4351515 98.3360587"></polyline>
                        <line x1="66.5301705" y1="76.874678" x2="66.5301705" y2="109.117009" id="Path" stroke="#004C6F" stroke-linecap="round" stroke-linejoin="round"></line>
                        <path d="M116.593201,98.1891155 C116.593201,95.7444489 114.612027,93.7629091 112.166629,93.7629091 C109.724886,93.7629091 107.740057,95.7444489 107.740057,98.1891155 C107.740057,100.633782 109.724886,102.615322 112.166629,102.615322 C114.612027,102.615322 116.593201,100.633782 116.593201,98.1891155 Z" id="Path" fill="#F86041"></path>
                        <path d="M25.9636174,98.3360587 C25.9636174,95.891392 23.9824432,93.9098523 21.5370455,93.9098523 C19.095303,93.9098523 17.1141288,95.891392 17.1141288,98.3360587 C17.1141288,100.780725 19.095303,102.762265 21.5370455,102.762265 C23.9824432,102.762265 25.9636174,100.780725 25.9636174,98.3360587 Z" id="Path" fill="#04724F" fill-rule="nonzero"></path>
                    </g>
                    <g id="Group" transform="translate(0.000000, 42.035985)">
                        <path d="M81.2745663,51.9835265 L373.067538,51.9835265 C378.784432,51.9835265 383.419356,56.4543277 383.419356,61.9690833 L383.419356,268.666235 C383.419356,274.180991 378.784432,278.651426 373.067538,278.651426 L81.2745663,278.651426 C75.5580379,278.651426 70.9234792,274.180991 70.9234792,268.666235 L70.9234792,61.9690833 C70.9234792,56.4543277 75.5580379,51.9835265 81.2745663,51.9835265 Z" id="Path" fill="#C9EAF0"></path>
                        <path d="M238.181008,74.0666742 L345.583314,74.0666742 C350.273068,74.0666742 354.074583,77.869286 354.074583,82.5601364 L354.074583,250.745015 C354.074583,255.435866 350.273068,259.238477 345.583314,259.238477 L238.181008,259.238477 C233.490157,259.238477 229.687545,255.435866 229.687545,250.745015 L229.687545,82.5601364 C229.687545,77.869286 233.490157,74.0666742 238.181008,74.0666742 Z" id="Path" fill="#76CC8C"></path>
                        <g transform="translate(22.662879, 0.000000)">
                            <polygon id="Path" fill="#59B771" points="0.0906515152 65.2880985 61.6466856 6.45307197 123.20272 65.2880985"></polygon>
                            <polygon id="Path" fill="#76CC8C" points="0.0906515152 65.0848636 123.20272 65.0848636 123.20272 147.783536 0.0906515152 147.783536"></polygon>
                            <g transform="translate(9.869318, 0.000000)">
                                <path d="M17.557517,0.3498125 L76.4660152,0.3498125 C82.0001439,0.3498125 86.4862973,7.13332386 86.4862973,15.5010436 L86.4862973,128.071583 L17.557517,128.071583 L17.557517,0.3498125 Z" id="Path" fill="#C9EAF0"></path>
                                <path d="M5.66133333,0.3498125 C12.1944564,0.3498125 17.4898939,5.64525 17.4898939,12.1780076 L23.1972841,12.1780076 L23.1972841,0.3498125 L5.66133333,0.3498125 Z" id="Path" fill="#C9EAF0"></path>
                                <path d="M0.14475,9.02128788 C0.14475,4.23210985 4.02704735,0.3498125 8.81622538,0.3498125 C13.6057689,0.3498125 17.4880663,4.23210985 17.4880663,9.02128788" id="Path" fill="#59B771"></path>
                                <g transform="translate(43.863636, 8.772727)">
                                    <path d="M0.0500776515,9.2362197 C0.0500776515,4.14876894 4.17435606,0.024125 9.26217235,0.024125 C14.3496231,0.024125 18.474267,4.14876894 18.474267,9.2362197 C18.474267,14.324036 14.3496231,18.4483144 9.26217235,18.4483144 C4.17435606,18.4483144 0.0500776515,14.324036 0.0500776515,9.2362197 Z" id="Path" fill="#FFC734"></path>
                                    <path d="M9.32577462,12.5855739 C9.61344697,12.5534072 9.85835227,12.5004053 10.0604905,12.4258371 C10.2626288,12.3512689 10.4263864,12.2595208 10.5513977,12.1502273 C10.6764091,12.0412992 10.7681572,11.9203087 10.8270076,11.7872557 C10.8854924,11.6542027 10.9147348,11.5101837 10.9147348,11.3559299 C10.9147348,11.0525398 10.8175038,10.8076345 10.6234072,10.6215795 C10.4289451,10.4351591 10.1164167,10.2728636 9.68509091,10.1343277 L9.32577462,12.5855739 Z M9.99652273,8.10673106 C10.3532803,8.23430114 10.7111345,8.37393371 11.0704508,8.52562879 C11.429767,8.67732386 11.754358,8.86520644 12.0442235,9.08854545 C12.3344545,9.31225 12.5698561,9.58237689 12.7507936,9.89892614 C12.9317311,10.2158409 13.0223826,10.6003788 13.0223826,11.0525398 C13.0223826,11.5690341 12.9225928,12.0200985 12.7230133,12.405733 C12.5234337,12.791733 12.2478239,13.1163239 11.8965492,13.3798712 C11.5452746,13.6434186 11.1303977,13.8470189 10.6511875,13.9906723 C10.1723428,14.1343258 9.65073106,14.222053 9.08635227,14.2538542 L8.79100379,16.2500152 L7.3859053,16.2500152 L7.67321212,14.2381364 C6.92826136,14.1902519 6.20451136,14.070358 5.50196212,13.8788201 L5.50196212,12.0105947 C5.87955492,12.1330473 6.27761742,12.2459962 6.69541856,12.3498068 C7.1132197,12.4536174 7.52151705,12.527089 7.92067614,12.5694905 L8.34396023,9.67960795 C7.99816856,9.56227273 7.6560322,9.42812311 7.31791667,9.27642803 C6.98016667,9.12473295 6.67787311,8.9383125 6.41176705,8.7175322 C6.14566098,8.49638636 5.93036364,8.22772159 5.76514394,7.91117235 C5.60028977,7.59425758 5.51767992,7.21264394 5.51767992,6.76560038 C5.51767992,6.39275947 5.58968939,6.03892614 5.7333428,5.70373485 C5.87699621,5.36817803 6.09923864,5.06880871 6.40007008,4.80562689 C6.70053598,4.54207955 7.08397727,4.32495455 7.54966288,4.15461742 C8.01534848,3.98464583 8.57022348,3.88339394 9.21428788,3.85122727 L9.46175189,2.22278977 L10.8668504,2.22278977 L10.6193864,3.92323674 C10.9012102,3.94992045 11.1793788,3.98464583 11.4535265,4.02704735 C11.7276742,4.06944886 11.9897595,4.12025758 12.2397822,4.17874242 L12.2397822,5.89527273 C11.9524754,5.80462121 11.6479886,5.72493561 11.3259564,5.65585038 C11.0039242,5.58639962 10.6859129,5.53595644 10.3719223,5.5041553 L9.99652273,8.10673106 Z M8.96682386,5.48807197 C8.46092992,5.54143939 8.10563447,5.66498864 7.9009375,5.85945076 C7.695875,6.05354735 7.59352652,6.29954924 7.59352652,6.59782197 C7.59352652,6.83724432 7.6838125,7.03938258 7.86511553,7.20460227 C8.04605303,7.36945644 8.30923485,7.5185928 8.65539205,7.65164583 L8.96682386,5.48807197 Z" id="Shape" fill="#FFFFFF" fill-rule="nonzero"></path>
                                </g>
                                <path d="M27.3160795,35.596072 L76.6473182,35.596072 C76.735411,35.596072 76.8070549,35.6479773 76.8070549,35.7115795 L76.8070549,37.8166686 C76.8070549,37.8806364 76.735411,37.9325417 76.6473182,37.9325417 L27.3160795,37.9325417 C27.2279867,37.9325417 27.1567083,37.8806364 27.1567083,37.8166686 L27.1567083,35.7115795 C27.1567083,35.6479773 27.2279867,35.596072 27.3160795,35.596072 Z" id="Path" fill="#76CC8C"></path>
                                <path d="M27.3160795,47.152678 L76.6473182,47.152678 C76.735411,47.152678 76.8070549,47.2045833 76.8070549,47.2685511 L76.8070549,49.3732746 C76.8070549,49.4372424 76.735411,49.4891477 76.6473182,49.4891477 L27.3160795,49.4891477 C27.2279867,49.4891477 27.1567083,49.4372424 27.1567083,49.3732746 L27.1567083,47.2685511 C27.1567083,47.2045833 27.2279867,47.152678 27.3160795,47.152678 Z" id="Path" fill="#FFFFFF" fill-rule="nonzero"></path>
                                <path d="M27.3160795,58.7092841 L76.6473182,58.7092841 C76.735411,58.7092841 76.8070549,58.7611894 76.8070549,58.8251572 L76.8070549,60.9302462 C76.8070549,60.994214 76.735411,61.0457538 76.6473182,61.0457538 L27.3160795,61.0457538 C27.2279867,61.0457538 27.1567083,60.994214 27.1567083,60.9302462 L27.1567083,58.8251572 C27.1567083,58.7611894 27.2279867,58.7092841 27.3160795,58.7092841 Z" id="Path" fill="#FFFFFF" fill-rule="nonzero"></path>
                                <path d="M27.3160795,70.2662557 L76.6473182,70.2662557 C76.735411,70.2662557 76.8070549,70.3177955 76.8070549,70.3817633 L76.8070549,72.4868523 C76.8070549,72.5508201 76.735411,72.6027254 76.6473182,72.6027254 L27.3160795,72.6027254 C27.2279867,72.6027254 27.1567083,72.5508201 27.1567083,72.4868523 L27.1567083,70.3817633 C27.1567083,70.3177955 27.2279867,70.2662557 27.3160795,70.2662557 Z" id="Path" fill="#FFFFFF" fill-rule="nonzero"></path>
                                <path d="M27.2670985,81.8228617 L61.4675758,81.8228617 C61.5286193,81.8228617 61.5783314,81.874767 61.5783314,81.9387348 L61.5783314,84.0434583 C61.5783314,84.1074261 61.5286193,84.1593314 61.4675758,84.1593314 L27.2670985,84.1593314 C27.2060549,84.1593314 27.1567083,84.1074261 27.1567083,84.0434583 L27.1567083,81.9387348 C27.1567083,81.874767 27.2060549,81.8228617 27.2670985,81.8228617 Z" id="Path" fill="#76CC8C"></path>
                            </g>
                            <polygon id="Path" fill="#187E92" fill-rule="nonzero" points="0.0906515152 65.0848636 97.5848939 147.783536 0.0906515152 147.783536"></polygon>
                            <polygon id="Path" fill="#228B9F" fill-rule="nonzero" points="123.20272 65.0848636 25.7081117 147.783536 123.20272 147.783536"></polygon>
                        </g>
                        <g transform="translate(53.367424, 180.571970)" id="Path">
                            <path d="M4.78223295,6.85588636 L125.034027,6.85588636 C127.59018,6.85588636 129.662737,9.19637689 129.662737,12.0833352 L129.662737,100.517178 C129.662737,103.404502 127.59018,105.744992 125.034027,105.744992 L4.78223295,105.744992 C2.22607955,105.744992 0.153522727,103.404502 0.153522727,100.517178 L0.153522727,12.0833352 C0.153522727,9.19637689 2.22607955,6.85588636 4.78223295,6.85588636 Z" fill="#76CC8C"></path>
                            <g transform="translate(34.359848, 28.145833)" fill="#FFFFFF" fill-rule="nonzero">
                                <path d="M11.4315947,6.1120322 L59.3873428,6.1120322 C60.2174621,6.1120322 60.8692027,6.88074242 60.8428845,7.82892803 L60.2108826,28.9470758 C60.1845644,29.8956269 59.4926155,30.722822 58.6650549,30.795197 L12.574608,36.6933939 C11.7470473,36.7657689 11.0474223,36.0555436 11.0119659,35.1077235 L9.99286742,7.82819697 C9.95741098,6.88037689 10.6014754,6.1120322 11.4315947,6.1120322 Z"></path>
                                <g transform="translate(20.469697, 38.746212)">
                                    <path d="M0.0274147727,5.63538068 C0.0274147727,2.62999053 2.46367424,0.193731061 5.46906439,0.193731061 C8.47445455,0.193731061 10.9110795,2.62999053 10.9110795,5.63538068 C10.9110795,8.64077083 8.47445455,11.0770303 5.46906439,11.0770303 C2.46367424,11.0770303 0.0274147727,8.64077083 0.0274147727,5.63538068 Z"></path>
                                    <path d="M18.9849129,5.63538068 C18.9849129,2.62999053 21.4211723,0.193731061 24.4265625,0.193731061 C27.4319527,0.193731061 29.8682121,2.62999053 29.8682121,5.63538068 C29.8682121,8.64077083 27.4319527,11.0770303 24.4265625,11.0770303 C21.4211723,11.0770303 18.9849129,8.64077083 18.9849129,5.63538068 Z"></path>
                                </g>
                                <path d="M10.7253902,0.366626894 C10.4782917,0.347253788 10.2213239,0.386 9.9720322,0.492003788 L1.23439583,4.20798485 C0.417801136,4.55560417 0.0332632576,5.5005 0.380882576,6.3170947 C0.728501894,7.13368939 1.67339773,7.51822727 2.48999242,7.17060795 L9.21903977,4.30009848 L10.1646667,13.5231591 C10.2545871,14.4059148 11.0393807,15.0441307 11.9221364,14.9542102 C12.8052576,14.8642898 13.4515152,14.0794962 13.3615947,13.1967405 L12.1984773,1.80608523 C12.116233,0.998263258 11.4663201,0.424380682 10.7253902,0.366626894 Z"></path>
                            </g>
                            <path d="M119.944383,9.66242803 C119.944383,4.33701705 124.261295,0.0197386364 129.586706,0.0197386364 C134.912117,0.0197386364 139.229396,4.33701705 139.229396,9.66242803 C139.229396,14.987839 134.912117,19.3051174 129.586706,19.3051174 C124.261295,19.3051174 119.944383,14.987839 119.944383,9.66242803 Z" fill="#F86041"></path>
                        </g>
                        <path d="M73.9248485,266.645949 L170.006682,266.645949 C171.664362,266.645949 173.008051,267.989638 173.008051,269.647318 L173.008051,269.647318 C173.008051,271.304998 171.664362,272.648688 170.006682,272.648688 L73.9248485,272.648688 C72.2671686,272.648688 70.9234792,271.304998 70.9234792,269.647318 L70.9234792,269.647318 C70.9234792,267.989638 72.2671686,266.645949 73.9248485,266.645949 Z" id="Path" fill="#004C6F"></path>
                        <polygon id="Path" fill="#C9EAF0" points="74.0535152 269.8034 169.878381 269.8034 169.878381 335.732273 162.961451 327.390871 157.896663 335.732273 152.292718 327.175208 145.865598 335.732273 139.577015 327.50053 133.973436 335.732273 128.046362 327.284867 121.965765 335.732273 116.839203 327.822197 111.45092 335.732273 107.010458 327.752746 102.187652 335.732273 98.0154886 327.548049 93.0567045 335.732273 88.8929489 327.368939 84.3095644 335.732273 79.0777292 327.701572 74.0535152 335.732273"></polygon>
                        <polygon id="Path" fill="#FFC734" points="85.2869924 278.651426 158.644538 278.651426 158.644538 281.446271 85.2869924 281.446271"></polygon>
                        <polygon id="Path" fill="#FFFFFF" fill-rule="nonzero" points="85.2869924 289.105227 158.644538 289.105227 158.644538 291.899706 85.2869924 291.899706"></polygon>
                        <polygon id="Path" fill="#FFFFFF" fill-rule="nonzero" points="85.2869924 299.559394 158.644538 299.559394 158.644538 302.352045 85.2869924 302.352045"></polygon>
                        <polygon id="Path" fill="#FFFFFF" fill-rule="nonzero" points="85.2869924 310.013561 130.227847 310.013561 130.227847 312.806212 85.2869924 312.806212"></polygon>
                        <path d="M194.898199,217.44886 L174.34114,234.923036 C173.606059,235.547727 173.606059,236.560612 174.34114,237.185303 L194.898199,254.659845 C195.63328,255.284536 196.229095,255.008926 196.229095,254.044292 L196.229095,246.762928 C196.229095,245.798659 197.010964,245.016424 197.975598,245.016424 L205.126102,245.016424 C206.090371,245.016424 206.872606,244.234555 206.872606,243.26992 L206.872606,228.838784 C206.872606,227.87415 206.090371,227.091915 205.126102,227.091915 L197.975598,227.091915 C197.010964,227.091915 196.229095,226.310045 196.229095,225.345411 L196.229095,218.064413 C196.229095,217.099778 195.63328,216.824169 194.898199,217.44886 Z" id="Path" fill="#FFC734"></path>
                        <polygon id="Path" fill="#FFDACD" fill-rule="nonzero" points="316.560208 116.968966 337.530682 116.968966 337.530682 160.31757 316.560208 160.31757"></polygon>
                        <path d="M316.560208,150.961091 C316.560208,150.961091 336.854451,136.688595 337.530682,118.98121 L316.560208,144.096797 L316.560208,150.961091 Z" id="Path" fill="#FFBAA2" fill-rule="nonzero"></path>
                        <path d="M11.9736761,145.669309 L32.5311004,128.195133 C33.2661818,127.570441 33.2661818,126.557557 32.5311004,125.9325 L11.9736761,108.458324 C11.2385947,107.833633 10.6427803,108.109242 10.6427803,109.073877 L10.6427803,116.354875 C10.6427803,117.319509 9.86091098,118.101744 8.89627652,118.101744 L1.74613826,118.101744 C0.781503788,118.101744 -0.000365530303,118.883614 -0.000365530303,119.848248 L-0.000365530303,134.279384 C-0.000365530303,135.244019 0.781503788,136.026254 1.74613826,136.026254 L8.89627652,136.026254 C9.86091098,136.026254 10.6427803,136.808123 10.6427803,137.772758 L10.6427803,145.053756 C10.6427803,146.01839 11.2385947,146.294 11.9736761,145.669309 Z" id="Path" fill="#0D9066" fill-rule="nonzero"></path>
                        <path d="M283.350318,38.6636023 L319.817083,38.6636023 C320.785739,38.6636023 321.567973,39.510536 321.567973,40.5555871 L321.567973,61.5267917 C321.567973,62.5718428 320.785739,63.4187765 319.817083,63.4187765 L283.350318,63.4187765 C282.383856,63.4187765 281.600525,62.5718428 281.600525,61.5267917 L281.600525,40.5555871 C281.600525,39.510536 282.383856,38.6636023 283.350318,38.6636023 Z" id="Path" fill="#F86041"></path>
                        <polygon id="Path" fill="#FFFFFF" fill-rule="nonzero" points="285.258752 55.7320398 317.145057 55.7320398 317.145057 57.2943163 285.258752 57.2943163"></polygon>
                        <path d="M311.168636,44.9843523 C311.168636,43.2999886 312.532064,41.9343674 314.217159,41.9343674 C315.902254,41.9343674 317.265682,43.2999886 317.265682,44.9843523 C317.265682,46.6683504 315.902254,48.0339716 314.217159,48.0339716 C312.532064,48.0339716 311.168636,46.6683504 311.168636,44.9843523 Z" id="Path" fill="#FFC734"></path>
                        <path d="M295.586811,118.98121 C295.586811,105.110066 304.976188,93.8656231 316.560208,93.8656231 C328.140208,93.8656231 337.530682,105.110066 337.530682,118.98121 C337.530682,132.851989 328.140208,144.096797 316.560208,144.096797 C304.976188,144.096797 295.586811,132.851989 295.586811,118.98121 Z" id="Path" fill="#FFDACD" fill-rule="nonzero"></path>
                        <path d="M387.480398,107.005706 C387.480398,107.005706 368.319299,82.4661951 348.368655,70.0081913 C336.83983,62.809803 324.437386,65.2614148 316.900152,64.8421515 C307.175583,64.3011667 308.502458,57.2573977 312.173845,57.3220966 C332.424223,57.6777576 329.372045,52.7865966 325.793504,50.0202633 C320.475038,45.9076818 310.075335,41.1956307 303.847795,41.2621572 C300.226487,41.3009034 295.518091,39.076286 304.018133,36.5263466 C312.517443,33.9760417 327.043617,41.4237216 327.043617,41.4237216 C327.043617,41.4237216 306.405411,31.9411345 304.904909,29.5001231 C303.404773,27.0594773 313.760246,26.7520663 318.274545,30.6599508 C319.722045,31.9133542 311.420852,21.5995511 314.820284,22.8836591 C316.739318,23.6092367 319.740322,25.5651894 323.39197,27.6585814 C324.609186,28.3567443 318.643731,20.9390379 320.047367,20.3596723 C324.448352,18.5440833 333.001761,24.0961231 356.169072,40.0248371 C365.563201,46.4830265 407.822159,92.3062708 409.492633,100.678377 L387.480398,107.005706 Z" id="Path" fill="#FFDACD" fill-rule="nonzero"></path>
                        <path d="M293.546055,103.071504 C293.546055,103.071504 304.24403,121.822843 328.165795,114.851449 L332.080625,125.508119 L337.530682,130.837917 C337.530682,130.837917 348.478314,112.447356 336.339053,93.5757576 C331.11928,85.4620814 305.926932,87.9264867 307.369314,82.8777822 C308.811697,77.8294432 294.507765,88.1666402 298.834913,91.8928561 C303.162426,95.619072 288.497716,89.2486098 291.142328,86.4841042 C293.786574,83.719233 280.203833,97.422233 293.546055,103.071504 Z" id="Path" fill="#004C6F"></path>
                        <path d="M294.019782,160.31757 L359.118902,160.31757 C362.679167,160.31757 365.563201,163.201604 365.563201,166.758945 L365.563201,252.797102 C365.563201,256.354443 362.679167,259.238477 359.118902,259.238477 L294.019782,259.238477 C290.462441,259.238477 287.578407,256.354443 287.578407,252.797102 L287.578407,166.758945 C287.578407,163.201604 290.462441,160.31757 294.019782,160.31757 Z" id="Path" fill="#002A3E"></path>
                        <path d="M359.118902,160.31757 C359.118902,160.31757 387.736269,128.96165 379.36197,99.6395398 L410.271212,90.7553258 C410.271212,90.7553258 421.94625,138.06372 409.613258,160.31757 C397.280265,182.571786 355.978996,223.100689 355.978996,223.100689 L359.118902,160.31757 Z" id="Path" fill="#002A3E"></path>
                        <path d="M313.994186,154.727881 L337.596477,154.727881 C338.601686,154.727881 339.416818,155.542282 339.416818,156.547125 L339.416818,163.498049 C339.416818,164.502892 338.601686,165.317659 337.596477,165.317659 L313.994186,165.317659 C312.988977,165.317659 312.173845,164.502892 312.173845,163.498049 L312.173845,156.547125 C312.173845,155.542282 312.988977,154.727881 313.994186,154.727881 Z" id="Path" fill="#002A3E"></path>
                        <g transform="translate(341.770833, 181.303030)" id="Path">
                            <path d="M82.9571023,0.165585227 L82.9571023,106.657356 C82.9571023,115.222462 76.0120265,122.167538 67.4476515,122.167538 L0.343598485,122.167538 L0.343598485,15.6743049 C0.343598485,7.10919886 7.28501894,0.165585227 15.8493939,0.165585227 L82.9571023,0.165585227 Z" fill="#004C6F"></path>
                            <path d="M14.2081629,15.1168712 L69.0925379,15.1168712 C70.1416098,15.1168712 70.9932955,16.0511667 70.9932955,17.2033182 L70.9932955,39.7112121 C70.9932955,40.8633636 70.1416098,41.7976591 69.0925379,41.7976591 L14.2081629,41.7976591 C13.1554356,41.7976591 12.30375,40.8633636 12.30375,39.7112121 L12.30375,17.2033182 C12.30375,16.0511667 13.1554356,15.1168712 14.2081629,15.1168712 Z" fill="#FFFFFF" fill-rule="nonzero"></path>
                            <g transform="translate(12.062500, 52.636364)" fill="#228B9F" fill-rule="nonzero">
                                <path d="M0.24125,5.78671023 C0.24125,2.61500379 2.81458333,0.0438636364 5.98738636,0.0438636364 C9.15653409,0.0438636364 11.7298674,2.61500379 11.7298674,5.78671023 C11.7298674,8.95841667 9.15653409,11.5295568 5.98738636,11.5295568 C2.81458333,11.5295568 0.24125,8.95841667 0.24125,5.78671023 Z"></path>
                                <path d="M23.8179545,5.78671023 C23.8179545,2.61500379 26.3876326,0.0438636364 29.5604356,0.0438636364 C32.7332386,0.0438636364 35.3029167,2.61500379 35.3029167,5.78671023 C35.3029167,8.95841667 32.7332386,11.5295568 29.5604356,11.5295568 C26.3876326,11.5295568 23.8179545,8.95841667 23.8179545,5.78671023 Z"></path>
                                <path d="M47.4458333,5.78671023 C47.4458333,2.61500379 50.0155114,0.0438636364 53.1883144,0.0438636364 C56.3611174,0.0438636364 58.9307955,2.61500379 58.9307955,5.78671023 C58.9307955,8.95841667 56.3611174,11.5295568 53.1883144,11.5295568 C50.0155114,11.5295568 47.4458333,8.95841667 47.4458333,5.78671023 Z"></path>
                            </g>
                            <g transform="translate(12.062500, 72.009470)" fill="#228B9F" fill-rule="nonzero">
                                <path d="M0.24125,5.92597727 C0.24125,2.75427083 2.81458333,0.183130682 5.98738636,0.183130682 C9.15653409,0.183130682 11.7298674,2.75427083 11.7298674,5.92597727 C11.7298674,9.09768371 9.15653409,11.6688239 5.98738636,11.6688239 C2.81458333,11.6688239 0.24125,9.09768371 0.24125,5.92597727 Z"></path>
                                <path d="M23.8179545,5.92597727 C23.8179545,2.75427083 26.3876326,0.183130682 29.5604356,0.183130682 C32.7332386,0.183130682 35.3029167,2.75427083 35.3029167,5.92597727 C35.3029167,9.09768371 32.7332386,11.6688239 29.5604356,11.6688239 C26.3876326,11.6688239 23.8179545,9.09768371 23.8179545,5.92597727 Z"></path>
                                <path d="M47.4458333,5.92597727 C47.4458333,2.75427083 50.0155114,0.183130682 53.1883144,0.183130682 C56.3611174,0.183130682 58.9307955,2.75427083 58.9307955,5.92597727 C58.9307955,9.09768371 56.3611174,11.6688239 53.1883144,11.6688239 C50.0155114,11.6688239 47.4458333,9.09768371 47.4458333,5.92597727 Z"></path>
                            </g>
                            <g transform="translate(12.062500, 91.382576)" fill="#228B9F" fill-rule="nonzero">
                                <path d="M0.24125,6.06487879 C0.24125,2.89353788 2.81458333,0.322397727 5.98738636,0.322397727 C9.15653409,0.322397727 11.7298674,2.89353788 11.7298674,6.06487879 C11.7298674,9.23658523 9.15653409,11.8077254 5.98738636,11.8077254 C2.81458333,11.8077254 0.24125,9.23658523 0.24125,6.06487879 Z"></path>
                                <path d="M23.8435417,6.06487879 C23.8435417,2.89353788 26.416875,0.322397727 29.5860227,0.322397727 C32.7588258,0.322397727 35.3285038,2.89353788 35.3285038,6.06487879 C35.3285038,9.23658523 32.7588258,11.8077254 29.5860227,11.8077254 C26.416875,11.8077254 23.8435417,9.23658523 23.8435417,6.06487879 Z"></path>
                                <path d="M47.4458333,6.06487879 C47.4458333,2.89353788 50.0155114,0.322397727 53.1883144,0.322397727 C56.3611174,0.322397727 58.9307955,2.89353788 58.9307955,6.06487879 C58.9307955,9.23658523 56.3611174,11.8077254 53.1883144,11.8077254 C50.0155114,11.8077254 47.4458333,9.23658523 47.4458333,6.06487879 Z"></path>
                            </g>
                            <polygon fill="#228B9F" fill-rule="nonzero" points="17.2457197 33.7468542 30.5327462 33.7468542 30.5327462 35.9754924 17.2457197 35.9754924"></polygon>
                            <polygon fill="#228B9F" fill-rule="nonzero" points="34.8131061 33.7468542 48.1001326 33.7468542 48.1001326 35.9754924 34.8131061 35.9754924"></polygon>
                            <polygon fill="#228B9F" fill-rule="nonzero" points="52.3804924 33.7468542 65.6711742 33.7468542 65.6711742 35.9754924 52.3804924 35.9754924"></polygon>
                        </g>
                        <path d="M294.864523,160.31757 C294.864523,160.31757 278.530436,158.928555 272.128172,187.738191 C265.726275,216.547462 256.478723,259.238477 256.478723,259.238477 L300.226487,259.238477 L294.864523,160.31757 Z" id="Path" fill="#002A3E"></path>
                        <path d="M285.662663,42.4278333 L295.1829,42.4278333 C295.405873,42.4278333 295.586811,42.6087708 295.586811,42.8317443 L295.586811,47.1164905 C295.586811,47.339464 295.405873,47.5204015 295.1829,47.5204015 L285.662663,47.5204015 C285.439689,47.5204015 285.258752,47.339464 285.258752,47.1164905 L285.258752,42.8317443 C285.258752,42.6087708 285.439689,42.4278333 285.662663,42.4278333 Z" id="Path" fill="#FFC734"></path>
                        <polygon id="Path" fill="#000C12" points="297.392896 216.932366 290.932513 247.366053 288.412182 259.238477 296.034585 259.238477"></polygon>
                        <path d="M328.831061,126.469002 C328.831061,123.368574 331.342254,120.855188 334.445606,120.855188 C337.545303,120.855188 340.056496,123.368574 340.056496,126.469002 C340.056496,129.56943 337.545303,132.082816 334.445606,132.082816 C331.342254,132.082816 328.831061,129.56943 328.831061,126.469002 Z" id="Path" fill="#FFDACD" fill-rule="nonzero"></path>
                        <polyline id="Path" stroke="#FFF2E5" stroke-width="0.5" stroke-linecap="round" stroke-linejoin="round" points="317.156023 158.970956 318.069848 164.202792 324.155928 158.970956 327.365284 164.202792 332.011174 158.970956 334.778239 164.202792 337.32233 158.970956"></polyline>
                    </g>
                    <path d="M27.5174867,312.602977 C32.7317765,312.602977 37.0644072,316.363188 37.9647083,321.317951 C39.9824356,319.769564 42.4987462,318.841483 45.2387614,318.841483 C51.8515701,318.841483 57.2102443,324.199792 57.2102443,330.8126 C57.2102443,336.532784 53.1967216,341.310265 47.834392,342.498239 L45.2387614,342.790663 L12.6948674,342.790663 C7.29379167,342.790663 2.91437311,338.41161 2.91437311,333.009437 C2.91437311,327.607996 7.29379167,323.228943 12.6948674,323.228943 C14.2271705,323.228943 15.6542008,323.61275 16.9452538,324.240731 C16.9134527,323.906636 16.8973693,323.57108 16.8973693,323.228943 C16.8973693,317.361816 21.6503598,312.602977 27.5174867,312.602977 Z" id="Path" fill="#F86041"></path>
                </g>
                <g id="Group-43" transform="translate(120.000000, 150.000000)"></g>
            </g>
        </g>
    </g>
</svg>