<?xml version="1.0" encoding="UTF-8"?>
<svg width="550px" height="650px" viewBox="0 0 493 384" version="1.1" xmlns="http://www.w3.org/2000/svg" xmlns:xlink="http://www.w3.org/1999/xlink">
    <title>E37FA0C1-0698-49FB-8967-FED0A6A35F89</title>
    <defs>
        <path d="M100.843237,0.11891081 L2.81462878,0.11891081 C1.39005015,0.11891081 0.235016491,1.35855601 0.235016491,2.88767471 L0.235016491,49.7860983 C0.235016491,51.315217 1.39005015,52.5548622 2.81462878,52.5548622 L100.843237,52.5548622 C102.267816,52.5548622 103.42285,51.315217 103.42285,49.7860983 L103.42285,2.88767471 C103.42285,1.35855601 102.267816,0.11891081 100.843237,0.11891081 Z" id="path-1"></path>
    </defs>
    <g id="Solutions" stroke="none" stroke-width="1" fill="none" fill-rule="evenodd">
        <g id="BiznetGio---SOLUTIONS-Versi-2" transform="translate(-824.000000, -164.000000)">
            <g id="Group-29" transform="translate(0.000000, 100.000000)">
                <g id="Solutions" transform="translate(824.000000, 64.000000)">
                    <g id="Group" transform="translate(164.499305, 54.127938)">
                        <path d="M2.73109211,0.146408935 L75.9838389,0.146408935 C77.434778,0.146408935 78.6109742,1.32399755 78.6109742,2.77619582 L78.6109742,77.9419486 C78.6109742,79.3941468 77.434778,80.5713639 75.9838389,80.5713639 L2.73109211,80.5713639 C1.28015302,80.5713639 0.103956742,79.3941468 0.103956742,77.9419486 L0.103956742,2.77619582 C0.103956742,1.32399755 1.28015302,0.146408935 2.73109211,0.146408935 Z" id="Path" fill="#76CC8C"></path>
                        <polygon id="Path" fill="#FFFFFF" fill-rule="nonzero" points="6.51697388 10.1954872 72.1979571 10.1954872 72.1979571 10.8089927 6.51697388 10.8089927"></polygon>
                        <path d="M6.58083302,5.34355454 C6.58083302,4.30494293 7.42214008,3.46327735 8.45947985,3.46327735 C9.49681963,3.46327735 10.3381267,4.30494293 10.3381267,5.34355454 C10.3381267,6.38179455 9.49681963,7.22346013 8.45947985,7.22346013 C7.42214008,7.22346013 6.58083302,6.38179455 6.58083302,5.34355454 Z" id="Path" fill="#FFFFFF" fill-rule="nonzero"></path>
                        <path d="M13.0068448,5.34355454 C13.0068448,4.30494293 13.8477805,3.46327735 14.8854916,3.46327735 C15.9228314,3.46327735 16.7637671,4.30494293 16.7637671,5.34355454 C16.7637671,6.38179455 15.9228314,7.22346013 14.8854916,7.22346013 C13.8477805,7.22346013 13.0068448,6.38179455 13.0068448,5.34355454 Z" id="Path" fill="#FFFFFF" fill-rule="nonzero"></path>
                        <path d="M19.4324852,5.34355454 C19.4324852,4.30494293 20.2737923,3.46327735 21.311132,3.46327735 C22.3484718,3.46327735 23.1897789,4.30494293 23.1897789,5.34355454 C23.1897789,6.38179455 22.3484718,7.22346013 21.311132,7.22346013 C20.2737923,7.22346013 19.4324852,6.38179455 19.4324852,5.34355454 Z" id="Path" fill="#FFFFFF" fill-rule="nonzero"></path>
                    </g>
                    <g id="Group-28" transform="translate(328.871586, 114.588018)">
                        <g id="Group">
                            <path d="M2.26105913,0.207350725 L130.647635,0.207350725 C131.824574,0.207350725 132.778748,1.16235317 132.778748,2.33994179 L132.778748,91.3041793 C132.778748,92.4821395 131.824574,93.4367703 130.647635,93.4367703 L2.26105913,93.4367703 C1.08412031,93.4367703 0.130317201,92.4821395 0.130317201,91.3041793 L0.130317201,2.33994179 C0.130317201,1.16235317 1.08412031,0.207350725 2.26105913,0.207350725 Z" id="Path" fill="#C9EAF0"></path>
                            <polygon id="Path" fill="#004C6F" points="7.02970338 11.856151 125.880476 11.856151 125.880476 12.5670147 7.02970338 12.5670147"></polygon>
                            <path d="M7.38501267,6.23166965 C7.38501267,5.0276977 8.3599784,4.05225746 9.56253514,4.05225746 C10.7650919,4.05225746 11.7400576,5.0276977 11.7400576,6.23166965 C11.7400576,7.43527001 10.7650919,8.41108184 9.56253514,8.41108184 C8.3599784,8.41108184 7.38501267,7.43527001 7.38501267,6.23166965 Z" id="Path" fill="#004C6F"></path>
                            <path d="M14.8338845,6.23166965 C14.8338845,5.0276977 15.8088502,4.05225746 17.011407,4.05225746 C18.2139637,4.05225746 19.1889294,5.0276977 19.1889294,6.23166965 C19.1889294,7.43527001 18.2139637,8.41108184 17.011407,8.41108184 C15.8088502,8.41108184 14.8338845,7.43527001 14.8338845,6.23166965 Z" id="Path" fill="#FFB129" fill-rule="nonzero"></path>
                            <path d="M22.2827563,6.23166965 C22.2827563,5.0276977 23.257722,4.05225746 24.4602788,4.05225746 C25.6628355,4.05225746 26.6378012,5.0276977 26.6378012,6.23166965 C26.6378012,7.43527001 25.6628355,8.41108184 24.4602788,8.41108184 C23.257722,8.41108184 22.2827563,7.43527001 22.2827563,6.23166965 Z" id="Path" fill="#04724F" fill-rule="nonzero"></path>
                            <path d="M61.9285161,30.0959545 C61.9285161,27.5936251 63.9556726,25.565081 66.4543471,25.565081 C68.9530217,25.565081 70.9801781,27.5936251 70.9801781,30.0959545 C70.9801781,32.5982838 68.9530217,34.6268279 66.4543471,34.6268279 C63.9556726,34.6268279 61.9285161,32.5982838 61.9285161,30.0959545 Z" id="Path" fill="#FE6150" fill-rule="nonzero"></path>
                            <g transform="translate(30.073200, 53.881461)" id="Path">
                                <polygon fill="#FFFFFF" fill-rule="nonzero" points="0.232417572 0.146037339 72.528391 0.146037339 72.528391 9.97698858 0.232417572 9.97698858"></polygon>
                                <polygon fill="#228B9F" points="9.92415609 4.55354084 62.8381376 4.55354084 62.8381376 5.56948508 9.92415609 5.56948508"></polygon>
                            </g>
                            <g transform="translate(30.073200, 65.772542)" id="Path">
                                <polygon fill="#FFFFFF" fill-rule="nonzero" points="0.232417572 0.322545573 72.528391 0.322545573 72.528391 10.1534968 0.232417572 10.1534968"></polygon>
                                <polygon fill="#228B9F" points="9.92415609 4.73004907 62.8381376 4.73004907 62.8381376 5.74599331 9.92415609 5.74599331"></polygon>
                            </g>
                        </g>
                        <g id="Group" transform="translate(53.324961, 20.378109)">
                            <path d="M0,14.556313 C0,6.51727015 6.51138617,0 14.5431711,0 C22.5749561,0 29.0863422,6.51727015 29.0863422,14.556313 C29.0863422,22.5953558 22.5749561,29.1115844 14.5431711,29.1115844 C6.51138617,29.1115844 0,22.5953558 0,14.556313 Z" id="Path" fill="#228B9F"></path>
                            <g id="Group-23" transform="translate(5.817268, 6.822317)" fill="#FFFFFF">
                                <path d="M9.66499215,0 C13.4131879,0 16.4518053,3.04125447 16.4518053,6.79270302 C16.4518053,10.5441516 13.4131879,13.585406 9.66499215,13.585406 C5.91687673,13.585406 2.87817896,10.5440712 2.87817896,6.79270302 C2.87817896,3.04125447 5.91687673,0 9.66499215,0 Z M9.66499519,1.9407321 C6.98776275,1.9407321 4.8173086,4.11306984 4.8173086,6.79269998 C4.8173086,9.47225581 6.98776275,11.6445936 9.66499519,11.6445936 C12.3423019,11.6445936 14.512756,9.47225581 14.512756,6.79269998 C14.512756,4.11306984 12.3423019,1.9407321 9.66499519,1.9407321 Z" id="Shape"></path>
                                <polygon id="Path" fill-rule="nonzero" points="5.81726845 12.0079493 4.44501426 10.6446338 0 15.1036351 1.37225418 16.4669506"></polygon>
                            </g>
                        </g>
                    </g>
                    <g id="Group" transform="translate(231.013880, 0.198313)">
                        <path d="M4.29863283,0.772073104 L99.288052,0.772073104 C101.169497,0.772073104 102.692871,2.30615725 102.692871,4.19848921 L102.692871,102.147361 C102.692871,104.039693 101.169497,105.573777 99.288052,105.573777 L4.29863283,105.573777 C2.41718775,105.573777 0.890673046,104.039693 0.890673046,102.147361 L0.890673046,4.19848921 C0.890673046,2.30615725 2.41718775,0.772073104 4.29863283,0.772073104 Z" id="Path" fill="#C9EAF0"></path>
                        <g transform="translate(8.647031, 36.676361)" id="Path">
                            <polygon fill="#228B9F" points="0.294297227 0.0905127678 25.3471313 0.0905127678 25.3471313 20.2045312 0.294297227 20.2045312"></polygon>
                            <polygon fill="#76CC8C" points="0.294297227 2.72074442 25.3471313 2.72074442 25.3471313 20.2045312 0.294297227 20.2045312"></polygon>
                            <polygon fill="#76CC8C" points="0.294297227 0.0905127678 11.5089001 0.0905127678 13.2652909 2.72074442 0.294297227 2.72074442"></polygon>
                            <polygon fill="#228B9F" points="2.10704291 17.3469139 23.5375165 17.3469139 23.5375165 17.8515147 2.10704291 17.8515147"></polygon>
                        </g>
                        <g transform="translate(39.672463, 36.676361)" id="Path">
                            <polygon fill="#FE6150" fill-rule="nonzero" points="0.234811617 0.0905127678 25.2876457 0.0905127678 25.2876457 20.2045312 0.234811617 20.2045312"></polygon>
                            <polygon fill="#004C6F" points="0.234811617 2.72074442 25.2876457 2.72074442 25.2876457 20.2045312 0.234811617 20.2045312"></polygon>
                            <polygon fill="#004C6F" points="0.234811617 0.0905127678 11.4494144 0.0905127678 13.2058053 2.72074442 0.234811617 2.72074442"></polygon>
                            <polygon fill="#FE6150" fill-rule="nonzero" points="2.0475573 17.3469139 23.4749001 17.3469139 23.4749001 17.8515147 2.0475573 17.8515147"></polygon>
                        </g>
                        <g transform="translate(70.697894, 36.676361)" id="Path">
                            <polygon fill="#FFC734" points="0.172195186 0.0905127678 25.2250293 0.0905127678 25.2250293 20.2045312 0.172195186 20.2045312"></polygon>
                            <polygon fill="#228B9F" points="0.172195186 2.72074442 25.2250293 2.72074442 25.2250293 20.2045312 0.172195186 20.2045312"></polygon>
                            <polygon fill="#228B9F" points="0.172195186 0.0905127678 11.386798 0.0905127678 13.1431889 2.72074442 0.172195186 2.72074442"></polygon>
                            <polygon fill="#FFC734" points="1.98494087 17.3469139 23.4154144 17.3469139 23.4154144 17.8515147 1.98494087 17.8515147"></polygon>
                        </g>
                        <g transform="translate(8.647031, 66.758331)">
                            <polygon id="Path" fill="#FFC734" points="0.294466753 0.293360973 25.3617322 0.293360973 25.3617322 20.3469259 0.294466753 20.3469259"></polygon>
                            <g id="Path-2" transform="translate(0.294467, 2.915687)" fill="#228B9F">
                                <polygon id="Path" points="1.88910112e-14 3.26717315e-13 25.0672655 3.26717315e-13 25.0672655 17.4312386 1.88910112e-14 17.4312386"></polygon>
                            </g>
                            <polygon id="Path" fill="#228B9F" points="0.294466753 0.293360973 11.5155296 0.293360973 13.2729322 2.91568735 0.294466753 2.91568735"></polygon>
                            <polygon id="Path" fill="#FFC734" fill-rule="nonzero" points="2.10825664 17.4978972 23.551075 17.4978972 23.551075 18.0009814 2.10825664 18.0009814"></polygon>
                        </g>
                        <g transform="translate(39.672463, 66.758331)" id="Path">
                            <polygon fill="#002A3E" points="0.234811617 0.294245339 25.2876457 0.294245339 25.2876457 20.4082638 0.234811617 20.4082638"></polygon>
                            <polygon fill="#76CC8C" points="0.234811617 2.92447699 25.2876457 2.92447699 25.2876457 20.4082638 0.234811617 20.4082638"></polygon>
                            <polygon fill="#76CC8C" points="0.234811617 0.294245339 11.4494144 0.294245339 13.2058053 2.92447699 0.234811617 2.92447699"></polygon>
                            <polygon fill="#002A3E" points="2.0475573 17.5506464 23.4749001 17.5506464 23.4749001 18.0552472 2.0475573 18.0552472"></polygon>
                        </g>
                        <g transform="translate(70.697894, 66.758331)" id="Path">
                            <polygon fill="#228B9F" points="0.172195186 0.294245339 25.2250293 0.294245339 25.2250293 20.4082638 0.172195186 20.4082638"></polygon>
                            <polygon fill="#FFC734" points="0.172195186 2.92447699 25.2250293 2.92447699 25.2250293 20.4082638 0.172195186 20.4082638"></polygon>
                            <polygon fill="#FFC734" points="0.172195186 0.294245339 11.386798 0.294245339 13.1431889 2.92447699 0.172195186 2.92447699"></polygon>
                            <polygon fill="#228B9F" points="1.98494087 17.5506464 23.4154144 17.5506464 23.4154144 18.0552472 1.98494087 18.0552472"></polygon>
                        </g>
                        <polygon id="Path" fill="#004C6F" points="9.61657571 14.3574791 94.9365129 14.3574791 94.9365129 15.3278653 9.61657571 15.3278653"></polygon>
                        <path d="M9.61657571,8.0501256 C9.61657571,6.71006556 10.7042661,5.62400383 12.0420003,5.62400383 C13.3797345,5.62400383 14.4642994,6.71006556 14.4642994,8.0501256 C14.4642994,9.38987283 13.3797345,10.4759346 12.0420003,10.4759346 C10.7042661,10.4759346 9.61657571,9.38987283 9.61657571,8.0501256 Z" id="Path" fill="#004C6F"></path>
                        <path d="M18.3424784,8.0501256 C18.3424784,6.71006556 19.4270433,5.62400383 20.767903,5.62400383 C22.1056372,5.62400383 23.1902021,6.71006556 23.1902021,8.0501256 C23.1902021,9.38987283 22.1056372,10.4759346 20.767903,10.4759346 C19.4270433,10.4759346 18.3424784,9.38987283 18.3424784,8.0501256 Z" id="Path" fill="#228B9F"></path>
                        <path d="M27.0683811,8.0501256 C27.0683811,6.71006556 28.1529459,5.62400383 29.4938057,5.62400383 C30.8315399,5.62400383 31.9161048,6.71006556 31.9161048,8.0501256 C31.9161048,9.38987283 30.8315399,10.4759346 29.4938057,10.4759346 C28.1529459,10.4759346 27.0683811,9.38987283 27.0683811,8.0501256 Z" id="Path" fill="#F86041"></path>
                    </g>
                    <g id="Group" transform="translate(129.970816, 73.079348)">
                        <polygon id="Path" fill="#C9EAF0" points="0.342314699 5.69285504 0.342314699 33.7528335 70.7232565 33.7528335 78.0002284 42.2709351 78.0002284 33.7528335 78.0002284 28.8343851 78.0002284 5.69285504"></polygon>
                        <polygon id="Path" fill="#FFFFFF" fill-rule="nonzero" points="10.0318256 11.8223357 68.3107175 11.8223357 68.3107175 12.7268011 10.0318256 12.7268011"></polygon>
                        <polygon id="Path" fill="#FFFFFF" fill-rule="nonzero" points="10.0318256 18.8774627 68.3107175 18.8774627 68.3107175 19.7822997 10.0318256 19.7822997"></polygon>
                        <polygon id="Path" fill="#FFFFFF" fill-rule="nonzero" points="10.0318256 26.8716135 68.3107175 26.8716135 68.3107175 27.7760789 10.0318256 27.7760789"></polygon>
                        <path d="M71.8935123,5.37365383 C71.8935123,2.50567373 74.2165742,0.180595793 77.0820676,0.180595793 C79.9475609,0.180595793 82.2706228,2.50567373 82.2706228,5.37365383 C82.2706228,8.24163394 79.9475609,10.5663403 77.0820676,10.5663403 C74.2165742,10.5663403 71.8935123,8.24163394 71.8935123,5.37365383 Z" id="Path" fill="#228B9F"></path>
                    </g>
                    <g id="Group" transform="translate(66.144437, 11.147978)">
                        <g transform="translate(0.000000, 23.038969)" id="Path">
                            <path d="M0.401347278,11.8264233 L24.8697941,0.0583406163 L49.3382409,11.8264233 C49.3382409,11.8264233 50.6421554,23.0976817 44.5250437,37.2231712 C38.407932,51.3486606 24.8697941,54.1898858 24.8697941,54.1898858 C24.8697941,54.1898858 11.0910705,51.3486606 4.97395881,37.2231712 C-1.14315288,23.0976817 0.401347278,11.8264233 0.401347278,11.8264233 Z" fill="#F86041"></path>
                            <path d="M6.06290568,15.370337 L24.8631111,6.32828468 L43.6633166,15.370337 C43.6633166,15.370337 44.6650141,24.0303884 39.9650555,34.883601 C35.2647257,45.7368136 24.8631111,47.9195701 24.8631111,47.9195701 C24.8631111,47.9195701 14.2762308,45.7368136 9.57627228,34.883601 C4.87631373,24.0303884 6.06290568,15.370337 6.06290568,15.370337 Z" fill="#FFC734"></path>
                            <path d="M24.841206,19.525155 C22.8259303,19.525155 21.1934382,21.1590639 21.1934382,23.1760885 C21.1934382,24.2652372 21.6786934,25.2317591 22.4342361,25.9010041 L21.2461591,34.7230714 L28.4284561,34.7230714 L27.2400078,25.908436 C28.0003771,25.2391911 28.4886025,24.2689532 28.4886025,23.1760885 C28.4886025,21.1590639 26.8561104,19.525155 24.841206,19.525155 Z" fill="#F86041"></path>
                        </g>
                        <path d="M24.1807094,0.109249307 C13.5711814,0.109249307 4.97247372,8.7150476 4.97247372,19.333783 L4.97247372,28.0280212 C4.97247372,29.2736119 5.9767701,30.2862118 7.22128081,30.2862118 C8.46579151,30.2862118 9.47751337,29.2736119 9.47751337,28.0280212 L9.47751337,19.333783 C9.47751337,11.2062291 16.0598315,4.617827 24.1807094,4.617827 L25.5043015,4.617827 C33.6251794,4.617827 40.2074975,11.2062291 40.2074975,19.333783 L40.2074975,27.4033678 C40.2074975,28.648587 41.2121651,29.6615584 42.4563046,29.6615584 C43.7008153,29.6615584 44.7125371,28.648587 44.7125371,27.4033678 L44.7125371,19.333783 C44.7125371,8.7150476 36.1138295,0.109249307 25.5043015,0.109249307 L24.1807094,0.109249307 Z" id="Path" fill="#F86041"></path>
                    </g>
                    <g id="Group" transform="translate(394.841464, 224.899240)">
                        <path d="M17.9399634,11.2991281 L16.5959513,18.0116434 C15.9462216,18.212677 15.3076302,18.4497554 14.680177,18.733655 L8.82889756,14.8255769 L2.65460965,20.9985343 L6.55670021,26.8563781 C6.3376485,27.3394533 6.1557242,27.8355343 5.98493813,28.3331017 L0.126233186,29.5032584 L0.126233186,38.2398586 L6.20027709,39.4512625 C6.31537206,39.7459383 6.41190332,40.041729 6.54184924,40.3308309 L2.56179113,46.3131594 L8.73607904,52.4861169 L14.7061662,48.5033479 C15.3039175,48.7734984 15.9165197,48.9979426 16.5402601,49.1922874 L17.9399634,56.2031945 L26.668617,56.2031945 L28.0794585,49.1588438 C28.2465318,49.0949292 28.4098924,49.0128064 28.5769657,48.9433179 L34.5693293,52.9424371 L40.7361918,46.7613045 L36.9491962,41.0691927 C37.1533969,40.6489173 37.3575977,40.223068 37.5283837,39.783098 L45.2545973,38.2398586 L45.2545973,29.5032584 L37.5283837,27.9600191 C37.3056193,27.3862744 37.0494402,26.8322243 36.7672719,26.2922949 L40.461449,20.7413897 L34.287161,14.5598855 L28.1945534,18.6255204 C28.172277,18.6169737 28.1500005,18.6091702 28.1277241,18.6006235 L26.668617,11.2991281 L17.9399634,11.2991281 Z M22.3544122,24.2578053 C27.4000269,24.2578053 31.4988927,28.3568839 31.4951825,33.4079921 C31.4951825,38.459472 27.4000269,42.558179 22.3544122,42.558179 C17.3087975,42.558179 13.2136444,38.459472 13.2136444,33.4079921 C13.2136444,28.3568839 17.3087975,24.2578053 22.3544122,24.2578053 Z" id="Shape" fill="#004C6F"></path>
                        <path d="M61.958218,30.8517813 L60.2243681,39.518893 C59.3890014,39.7782672 58.5610602,40.0844625 57.7516827,40.4508565 L50.1962553,35.4049506 L42.2212881,43.3756908 L47.2631901,50.9391615 C46.9810218,51.5630717 46.7434063,52.2033321 46.5243546,52.8461937 L38.9577889,54.3567325 L38.9577889,65.6376525 L46.8028102,67.2020728 C46.9476071,67.5822158 47.0738403,67.9642168 47.2409136,68.3376711 L42.1024804,76.062043 L50.0774476,84.0327832 L57.7850974,78.8902623 C58.5573475,79.2388196 59.3481613,79.5286647 60.1501133,79.7794922 L61.958218,88.8323208 L73.230099,88.8323208 L75.049342,79.736387 C75.2683937,79.653521 75.4763072,79.5479877 75.6916462,79.4580614 L83.4327107,84.6217633 L91.3965396,76.6402468 L86.5031473,69.2911871 C86.7704646,68.748285 87.0340692,68.1983225 87.2531209,67.6305233 L97.2292554,65.6376525 L97.2292554,54.3567325 L87.2531209,52.3638617 C86.9672399,51.6232703 86.6330932,50.9079474 86.2692446,50.2104612 L91.0438293,43.0434837 L83.0688621,35.0619672 L75.2015644,40.3115079 C75.1718625,40.30036 75.1421605,40.2903269 75.1161713,40.2795506 L73.230099,30.8517813 L61.958218,30.8517813 Z M67.6609879,47.5836471 C74.1768479,47.5836471 79.4637908,52.876293 79.4637908,59.3985509 C79.4637908,65.9208088 74.1768479,71.2138263 67.6609879,71.2138263 C61.1451278,71.2138263 55.8544722,65.9208088 55.8544722,59.3985509 C55.8544722,52.876293 61.1451278,47.5836471 67.6609879,47.5836471 Z" id="Shape" fill="#002A3E"></path>
                        <path d="M51.4734381,0.30879651 L50.5675293,4.82554932 C50.1331387,4.96081037 49.7024607,5.12022517 49.2792083,5.31122566 L45.3437031,2.68143877 L41.1854334,6.83551361 L43.8140539,10.7770354 C43.6655442,11.1021821 43.5430238,11.4358756 43.4279288,11.7710554 L39.4849981,12.5580964 L39.4849981,18.4374927 L43.5727257,19.2524034 C43.6506933,19.4508358 43.7138099,19.6496398 43.8029157,19.8443563 L41.1260296,23.8698588 L45.2805865,28.023562 L49.297772,25.3436096 C49.698748,25.5253202 50.1108622,25.6765599 50.5304019,25.8069902 L51.4734381,30.5247766 L57.346994,30.5247766 L58.2937429,25.7846944 C58.4088379,25.7415892 58.5165073,25.686593 58.6316023,25.6397719 L62.6636388,28.3308721 L66.814483,24.1712234 L64.2638301,20.3411805 C64.4049142,20.0583957 64.5385729,19.771895 64.6536678,19.4757327 L69.8552177,18.4374927 L69.8552177,12.5580964 L64.6536678,11.5198563 C64.5051582,11.1337678 64.3306594,10.7610567 64.1413096,10.3976356 L66.6288459,6.66234974 L62.474289,2.50307256 L58.3717104,5.23876438 C58.3568595,5.23281884 58.3420085,5.2276165 58.3271576,5.22204255 L57.346994,0.30879651 L51.4734381,0.30879651 Z M54.4436307,9.02867487 C57.8407885,9.02867487 60.5956422,11.7866625 60.5956422,15.1860253 C60.5956422,18.5850165 57.8407885,21.3430041 54.4436307,21.3430041 C51.0464729,21.3430041 48.2916192,18.5850165 48.2916192,15.1860253 C48.2916192,11.7866625 51.0464729,9.02867487 54.4436307,9.02867487 Z" id="Shape" fill="#228B9F"></path>
                    </g>
                    <g id="Group" transform="translate(106.707513, 118.389065)">
                        <path d="M65.4756686,197.112133 L60.1920672,229.100256 L23.2076,220.843386 C23.2076,220.843386 28.6200335,212.718434 40.0890611,210.009868 C51.5580886,207.301303 52.0737883,194.274624 52.0737883,194.274624 L65.4756686,197.112133 Z" id="Path" fill="#FFC734"></path>
                        <path d="M116.817676,79.4833299 L70.6011073,79.4833299 C69.2489271,79.4833299 68.1525547,80.215003 68.1525547,81.1172388 L68.1525547,83.2509446 C68.1525547,84.1531804 69.2489271,84.8848535 70.6011073,84.8848535 L116.817676,84.8848535 C118.170227,84.8848535 119.266228,84.1531804 119.266228,83.2509446 L119.266228,81.1172388 C119.266228,80.215003 118.170227,79.4833299 116.817676,79.4833299 Z" id="Path" fill="#66C6A2" fill-rule="nonzero"></path>
                        <path d="M156.317896,36.1726685 C154.87067,35.9106931 153.634698,37.0663575 153.347703,39.2383378 C153.046971,41.5125071 154.147799,43.2545504 155.760985,43.5116951 C157.409442,43.7744136 158.725608,42.359375 158.742687,39.8767402 C158.756424,37.9124823 157.713887,36.4249824 156.317896,36.1726685 Z M156.248468,36.5323737 C157.453252,36.7505007 158.384036,38.0823018 158.371413,39.8767402 C158.355819,42.1501663 157.220463,43.3634281 155.819275,43.1400988 C154.417715,42.9167694 153.443492,41.3705573 153.718978,39.2847873 C153.980726,37.3052939 155.032545,36.3127603 156.248468,36.5323737 Z" id="Shape" fill="#004C6F"></path>
                        <path d="M178.762157,42.7190802 C181.519609,35.8649868 178.746563,28.4155961 172.568191,26.0804851 C166.390191,23.745374 158.799492,28.5891316 157.23123,35.8092473 C154.986136,46.1470559 159.912572,54.0687454 164.596194,52.529222 C170.871097,50.4672343 176.004704,49.572802 178.762157,42.7190802 Z" id="Path" fill="#FFDACD" fill-rule="nonzero"></path>
                        <path d="M103.811574,97.5789541 C103.811574,97.5789541 94.0051113,90.735637 87.4376441,90.6453391 C80.870177,90.5554128 76.101904,91.3658643 77.6311819,92.5363925 C79.1608311,93.7069208 84.9185495,93.887145 84.9185495,93.887145 C84.9185495,93.887145 82.4893032,100.009937 83.4791199,101.270763 C84.4685653,102.531218 99.8530493,107.213702 99.8530493,107.213702 L103.811574,97.5789541 Z" id="Path" fill="#C77850" fill-rule="nonzero"></path>
                        <polygon id="Path" fill="#FFDACD" fill-rule="nonzero" points="177.398467 40.6946236 165.14271 40.6946236 165.14271 56.4109168 177.398467 56.4109168"></polygon>
                        <polygon id="Path" fill="#FFC734" points="233.422611 76.2195998 11.3049244 76.2195998 11.3049244 121.097654 233.422611 121.097654"></polygon>
                        <polygon id="Path" fill="#002A3E" points="101.544574 68.4301985 86.3639195 68.4301985 80.9310659 80.0488995 106.492544 80.137711"></polygon>
                        <polygon id="Path" fill="#FFFFFF" fill-rule="nonzero" points="177.432253 88.8899182 101.006598 88.8899182 111.536302 109.797783 191.019028 109.967603"></polygon>
                        <path d="M142.99881,0.336666232 L44.383217,0.336666232 C41.137539,0.336666232 38.5063197,2.96979749 38.5063197,6.21829218 L38.5063197,67.9746215 C38.5063197,71.2231162 41.137539,73.8562474 44.383217,73.8562474 L142.99881,73.8562474 C146.244488,73.8562474 148.875336,71.2231162 148.875336,67.9746215 L148.875336,6.21829218 C148.875336,2.96979749 146.244488,0.336666232 142.99881,0.336666232 Z" id="Path" fill="#002A3E"></path>
                        <path d="M95.9231132,65.0873184 C95.9231132,63.9015546 94.9013669,62.9402351 93.6408914,62.9402351 C92.3804159,62.9402351 91.3582984,63.9015546 91.3582984,65.0873184 C91.3582984,66.2734537 92.3804159,67.2347733 93.6408914,67.2347733 C94.9013669,67.2347733 95.9231132,66.2734537 95.9231132,65.0873184 Z" id="Path" fill="#FFFFFF" fill-rule="nonzero"></path>
                        <polyline id="Path" stroke="#228B9F" stroke-width="0.5" stroke-linecap="round" stroke-linejoin="round" points="32.2191644 213.612866 36.6800225 216.65178 36.7449954 211.83069 41.1494198 215.499832 43.1238554 209.667257 46.9446369 212.739615 46.9594879 207.459603 51.3501751 208.215058 48.8975385 204.08105 54.0712428 202.174389 51.8569642 198.425726"></polyline>
                        <line x1="28.0371332" y1="218.06013" x2="59.2961829" y2="224.793455" id="Path" stroke="#228B9F" stroke-width="0.5" stroke-linecap="round" stroke-linejoin="round"></line>
                        <g transform="translate(41.953971, 3.715963)">
                            <g id="Mask-link" fill="#CAE3DB" fill-rule="nonzero">
                                <path d="M100.843237,0.11891081 L2.81462878,0.11891081 C1.39005015,0.11891081 0.235016491,1.35855601 0.235016491,2.88767471 L0.235016491,49.7860983 C0.235016491,51.315217 1.39005015,52.5548622 2.81462878,52.5548622 L100.843237,52.5548622 C102.267816,52.5548622 103.42285,51.315217 103.42285,49.7860983 L103.42285,2.88767471 C103.42285,1.35855601 102.267816,0.11891081 100.843237,0.11891081 Z" id="Mask"></path>
                            </g>
                            <g id="Clipped">
                                <mask id="mask-2" fill="white">
                                    <use xlink:href="#path-1"></use>
                                </mask>
                                <use id="Mask" fill="#228B9F" xlink:href="#path-1"></use>
                                <polygon id="Path" fill="#04724F" fill-rule="nonzero" mask="url(#mask-2)" points="107.113685 55.5599613 -3.22711428 55.5599613 -3.22711428 70.8816192 107.113685 70.8816192"></polygon>
                            </g>
                        </g>
                        <polygon id="Path" fill="#59B771" points="27.0595686 121.805545 46.8985989 259.073212 40.4291481 260.797419 23.3936083 129.575624 7.00482802 258.64216 0.320038255 258.207393 18.8651784 120.72643"></polygon>
                        <polygon id="Path" fill="#59B771" points="35.2539587 193.244931 9.59260834 193.244931 9.59260834 199.719624 35.2539587 199.719624"></polygon>
                        <path d="M11.4270736,107.945376 L233.300462,107.945376 C233.368034,107.945376 233.422611,108.000372 233.422611,108.068002 L233.422611,120.975399 C233.422611,121.04303 233.368034,121.097654 233.300462,121.097654 L11.4270736,121.097654 C11.3595017,121.097654 11.3049244,121.04303 11.3049244,120.975399 L11.3049244,108.068002 C11.3049244,108.000372 11.3595017,107.945376 11.4270736,107.945376 Z" id="Path" fill="#187E92"></path>
                        <path d="M182.271068,55.767312 L163.125206,56.4469616 L163.396979,63.5139797 C163.396979,63.5139797 152.398356,68.1344079 146.016154,85.6659489 C139.634324,103.19749 136.511538,103.877139 136.511538,103.877139 L103.787069,95.5868264 L99.0347612,108.361935 C99.0347612,108.361935 126.191604,139.483495 144.930178,127.52404 C163.66838,115.564586 156.471975,122.087958 156.471975,122.087958 L158.237012,128.747335 L198.021999,129.562618 C198.021999,129.562618 203.82687,93.8202577 201.009271,77.1039989 C198.191672,60.3881118 186.751975,62.6983259 186.751975,62.6983259 L182.271068,55.767312 Z" id="Path" fill="#76CC8C"></path>
                        <g transform="translate(200.116728, 120.025599)" fill="#59B771" id="Path">
                            <polygon points="26.842002 1.34852291 46.6802898 138.616561 40.2126953 140.340768 23.176413 9.11822957 6.78763268 138.181793 0.102471645 137.750742 18.6476118 0.269407304"></polygon>
                            <polygon points="35.0371347 72.7875365 9.37504173 72.7875365 9.37504173 79.2622302 35.0371347 79.2622302"></polygon>
                        </g>
                        <g transform="translate(139.970327, 183.940160)" fill="#F86041" id="Path">
                            <polygon points="27.0606824 0.804505951 46.8997127 79.7668579 40.4302619 80.75902 23.3947222 5.27406603 7.00594184 79.5178884 0.321152077 79.2689189 18.8662922 0.18394016"></polygon>
                            <polygon points="35.2550726 41.9011968 9.59372216 41.9011968 9.59372216 45.6245915 35.2550726 45.6245915"></polygon>
                        </g>
                        <path d="M160.464656,26.4602565 C157.655225,28.9105623 155.435006,32.3931627 157.410927,34.9103559 C159.386848,37.4271775 162.620274,38.3260689 167.201053,41.0231148 C168.287401,41.662632 174.377781,50.0529044 170.156395,60.3007867 C165.93538,70.5486689 171.59174,75.5499833 177.234735,79.4610342 C184.855878,84.7425321 196.298174,85.1464573 202.65253,78.1730815 C209.006885,71.199334 205.782741,56.6732638 202.65253,51.5671593 C195.01208,39.1045631 188.979619,43.9275113 184.51245,30.7763473 C181.72381,22.5666706 164.897669,22.5945403 160.464656,26.4602565 Z" id="Path" fill="#004C6F"></path>
                        <path d="M181.292487,23.6111453 C181.292487,19.7452319 177.710729,16.6109349 173.292285,16.6109349 C168.874245,16.6109349 165.292487,19.7452319 165.292487,23.6111453 C165.292487,27.4766379 168.874245,30.6109349 173.292285,30.6109349 C177.710729,30.6109349 181.292487,27.4766379 181.292487,23.6111453 Z" id="Path" fill="#004C6F"></path>
                        <path d="M85.4498427,231.679134 L86.2228354,263.275966 L48.8518718,262.633104 C48.8518718,262.633104 49.2387394,254.379951 60.4497315,249.08842 C71.6610948,243.800605 70.75927,231.935535 70.75927,231.935535 L85.4498427,231.679134 Z" id="Path" fill="#FFC734"></path>
                        <path d="M152.668272,178.626704 C149.82654,184.137477 95.1241314,178.804699 95.1241314,178.804699 L86.598936,232.489214 L63.5101437,233.555695 L64.7531693,178.804699 C64.7531693,178.804699 65.9965662,137.5642 79.4946065,139.697163 C92.9926469,141.830497 152.135494,151.251578 152.135494,151.251578 C152.135494,151.251578 155.510004,173.116303 152.668272,178.626704 Z" id="Path" fill="#187E92"></path>
                        <path d="M168.637884,41.6522273 C168.637884,39.6664167 167.250804,38.05629 165.53923,38.05629 C163.828028,38.05629 162.440577,39.6664167 162.440577,41.6522273 C162.440577,43.6380378 163.828028,45.2477929 165.53923,45.2477929 C167.250804,45.2477929 168.637884,43.6380378 168.637884,41.6522273 Z" id="Path" fill="#FFDACD" fill-rule="nonzero"></path>
                        <path d="M157.818957,127.787502 L143.07752,143.430219 C143.07752,143.430219 89.6626897,122.468845 78.4290499,125.120927 C69.9799658,127.115656 65.1084786,132.942286 60.4905716,153.918153 C55.8730359,174.89402 49.479325,195.513897 49.479325,195.513897 L65.2859476,199.069331 L78.9618282,158.71769 L132.243742,181.648897 C132.243742,181.648897 191.74524,197.032611 197.95814,155.873492 C201.687588,131.164941 198.135609,127.787502 198.135609,127.787502 L157.818957,127.787502 Z" id="Path" fill="#228B9F"></path>
                        <path d="M190.747998,83.0030899 C190.747998,83.0030899 222.600343,68.0292461 222.117687,121.484858 C221.635031,174.940098 213.269854,211.00649 111.59979,183.473806 C111.59979,183.473806 124.951919,182.185482 151.817312,160.932404 C178.682704,139.678955 177.234735,89.7657707 190.747998,83.0030899 Z" id="Path" fill="#C9EAF0"></path>
                        <path d="M162.884992,39.3312369 L152.767773,39.9581198 C152.665302,39.9644369 152.587334,40.0532485 152.593646,40.1554374 C152.599957,40.257998 152.688692,40.3364048 152.790792,40.3297161 L162.908011,39.7028332 C163.010483,39.696516 163.08845,39.6077045 163.082138,39.5051439 C163.075827,39.402955 162.987092,39.3245481 162.884992,39.3312369 Z" id="Path" fill="#004C6F"></path>
                        <g transform="translate(30.444474, 87.325126)" id="Path">
                            <path d="M7.23576049,4.78876129 C7.23576049,4.78876129 0.127347009,3.49523463 0.167815883,9.51843876 C0.208284757,15.5416429 7.27622937,14.8140574 7.27622937,14.8140574" stroke="#F86041" stroke-width="1.5" stroke-linecap="round" stroke-linejoin="round"></path>
                            <path d="M25.354678,1.6391112 C25.354678,1.6391112 29.9313736,20.9435381 16.0379263,20.6161617 C2.14447907,20.289157 7.04789581,1.47560884 7.04789581,1.47560884 L25.354678,1.6391112 Z" fill="#FE6150" fill-rule="nonzero"></path>
                            <path d="M25.3442823,1.61793021 C25.3442823,0.740219794 21.2361347,0.0286129137 16.1682435,0.0286129137 C11.1003524,0.0286129137 6.9922047,0.740219794 6.9922047,1.61793021 C6.9922047,2.49601223 11.1003524,3.20761911 16.1682435,3.20761911 C21.2361347,3.20761911 25.3442823,2.49601223 25.3442823,1.61793021 Z" fill="#CF1501" fill-rule="nonzero"></path>
                        </g>
                        <polyline id="Path" stroke="#228B9F" stroke-width="0.5" stroke-linecap="round" stroke-linejoin="round" points="56.2465376 251.358873 62.4204543 253.547575 61.6088491 249.378265 66.1640108 250.329551 64.9670232 246.398063 70.866197 246.557849 68.3894276 242.696964 72.716627 240.07721 70.3078008 237.494616 73.43727 235.04208"></polyline>
                        <line x1="51.6932323" y1="258.201447" x2="84.0081855" y2="258.272793" id="Path" stroke="#228B9F" stroke-width="0.5" stroke-linecap="round" stroke-linejoin="round"></line>
                        <line x1="66.6901062" y1="227.888852" x2="84.8843923" y2="227.532119" id="Path" stroke="#FFFFFF" stroke-width="0.5" stroke-linecap="round" stroke-linejoin="round"></line>
                        <line x1="53.2158273" y1="191.571261" x2="64.5742152" y2="194.080651" id="Path" stroke="#FFFFFF" stroke-width="0.5" stroke-linecap="round" stroke-linejoin="round"></line>
                        <path d="M99.0347612,108.361935 C99.0347612,108.361935 93.758214,98.408357 88.1360107,99.0006815 C82.5141786,99.5930059 81.5522075,96.4834883 87.4376441,90.6453391 C93.3227095,84.8071899 103.787069,95.5868264 103.787069,95.5868264 C101.16736,102.629319 99.0347612,108.361935 99.0347612,108.361935 Z" id="Path" fill="#FFDACD" fill-rule="nonzero"></path>
                    </g>
                    <g id="Group" transform="translate(113.000000, 133.000000)">
                        <g id="Path">
                            <path d="M0.495153936,16.6312456 L38.5042857,16.6312456 C38.613676,16.6312456 38.7024197,16.7222281 38.7024197,16.8343781 L38.7024197,37.2293319 C38.7024197,37.3414819 38.613676,37.4324645 38.5042857,37.4324645 L0.495153936,37.4324645 C0.385763674,37.4324645 0.297019918,37.3414819 0.297019918,37.2293319 L0.297019918,16.8343781 C0.297019918,16.7222281 0.385763674,16.6312456 0.495153936,16.6312456 Z" fill="#0D9066"></path>
                            <path d="M6.84667133,11.1444385 L44.8558031,11.1444385 C44.9651934,11.1444385 45.0539371,11.2354211 45.0539371,11.3475711 L45.0539371,31.7425249 C45.0539371,31.8546748 44.9651934,31.9456574 44.8558031,31.9456574 L6.84667133,31.9456574 C6.73728106,31.9456574 6.64853731,31.8546748 6.64853731,31.7425249 L6.64853731,11.3475711 C6.64853731,11.2354211 6.73728106,11.1444385 6.84667133,11.1444385 Z" fill="#FE6150"></path>
                            <path d="M15.2497995,5.65770576 L53.2589313,5.65770576 C53.3683215,5.65770576 53.4570653,5.74872548 53.4570653,5.86094972 L53.4570653,26.2557178 C53.4570653,26.3678678 53.3683215,26.4588504 53.2589313,26.4588504 L15.2497995,26.4588504 C15.1404092,26.4588504 15.0516654,26.3678678 15.0516654,26.2557178 L15.0516654,5.86094972 C15.0516654,5.74872548 15.1404092,5.65770576 15.2497995,5.65770576 Z" fill="#FFB129"></path>
                            <path d="M23.6547387,0.171010128 L61.6638705,0.171010128 C61.7732608,0.171010128 61.8620045,0.261992715 61.8620045,0.374254087 L61.8620045,20.7689108 C61.8620045,20.8814321 61.7732608,20.9724147 61.6638705,20.9724147 L23.6547387,20.9724147 C23.5453484,20.9724147 23.4566047,20.8814321 23.4566047,20.7689108 L23.4566047,0.374254087 C23.4566047,0.261992715 23.5453484,0.171010128 23.6547387,0.171010128 Z" fill="#CAE3DB"></path>
                        </g>
                        <g transform="translate(42.000000, 10.000000)" id="Path">
                            <line x1="0.29205167" y1="1.33823927" x2="50.4216432" y2="1.72982791" stroke="#FFFFFF" stroke-linecap="round" stroke-linejoin="round"></line>
                            <polyline stroke="#FFFFFF" stroke-linecap="round" stroke-linejoin="round" points="28.038075 1.46903677 36.9151824 8.93117869 50.8823863 9.33491939"></polyline>
                            <path d="M50.3213201,1.6026514 C50.3213201,0.725646953 51.0533071,0.0144839711 51.9524993,0.0144839711 C52.8516915,0.0144839711 53.5836785,0.725646953 53.5836785,1.6026514 C53.5836785,2.47965586 52.8516915,3.19045674 51.9524993,3.19045674 C51.0533071,3.19045674 50.3213201,2.47965586 50.3213201,1.6026514 Z" fill="#76CC8C"></path>
                            <path d="M50.3138888,9.31862492 C50.3138888,8.44125837 51.0421601,7.73045749 51.945068,7.73045749 C52.8442601,7.73045749 53.5725315,8.44125837 53.5725315,9.31862492 C53.5725315,10.1956294 52.8442601,10.9064303 51.945068,10.9064303 C51.0421601,10.9064303 50.3138888,10.1956294 50.3138888,9.31862492 Z" fill="#FFC734"></path>
                        </g>
                        <g id="Path">
                            <path d="M0.495153936,16.6312456 L38.5042857,16.6312456 C38.613676,16.6312456 38.7024197,16.7222281 38.7024197,16.8343781 L38.7024197,37.2293319 C38.7024197,37.3414819 38.613676,37.4324645 38.5042857,37.4324645 L0.495153936,37.4324645 C0.385763674,37.4324645 0.297019918,37.3414819 0.297019918,37.2293319 L0.297019918,16.8343781 C0.297019918,16.7222281 0.385763674,16.6312456 0.495153936,16.6312456 Z" fill="#76CC8C"></path>
                            <path d="M6.84667133,11.1444385 L44.8558031,11.1444385 C44.9651934,11.1444385 45.0539371,11.2354211 45.0539371,11.3475711 L45.0539371,31.7425249 C45.0539371,31.8546748 44.9651934,31.9456574 44.8558031,31.9456574 L6.84667133,31.9456574 C6.73728106,31.9456574 6.64853731,31.8546748 6.64853731,31.7425249 L6.64853731,11.3475711 C6.64853731,11.2354211 6.73728106,11.1444385 6.84667133,11.1444385 Z" fill="#228B9F"></path>
                            <path d="M15.2497995,5.65770576 L53.2589313,5.65770576 C53.3683215,5.65770576 53.4570653,5.74872548 53.4570653,5.86094972 L53.4570653,26.2557178 C53.4570653,26.3678678 53.3683215,26.4588504 53.2589313,26.4588504 L15.2497995,26.4588504 C15.1404092,26.4588504 15.0516654,26.3678678 15.0516654,26.2557178 L15.0516654,5.86094972 C15.0516654,5.74872548 15.1404092,5.65770576 15.2497995,5.65770576 Z" fill="#FFC734"></path>
                            <path d="M23.6547387,0.171010128 L61.6638705,0.171010128 C61.7732608,0.171010128 61.8620045,0.261992715 61.8620045,0.374254087 L61.8620045,20.7689108 C61.8620045,20.8814321 61.7732608,20.9724147 61.6638705,20.9724147 L23.6547387,20.9724147 C23.5453484,20.9724147 23.4566047,20.8814321 23.4566047,20.7689108 L23.4566047,0.374254087 C23.4566047,0.261992715 23.5453484,0.171010128 23.6547387,0.171010128 Z" fill="#C9EAF0"></path>
                        </g>
                    </g>
                    <g id="Group" transform="translate(0.523246, 105.423628)">
                        <g transform="translate(0.446298, 0.134776)" id="Path">
                            <path d="M3.76821108,0.0919440873 L70.3784286,0.0919440873 C72.3583844,0.0919440873 73.9632688,1.71879646 73.9632688,3.72555501 L73.9632688,34.7279368 C73.9632688,36.7346953 72.3583844,38.3615477 70.3784286,38.3615477 L3.76821108,38.3615477 C1.78825529,38.3615477 0.183179421,36.7346953 0.183179421,34.7279368 L0.183179421,3.72555501 C0.183179421,1.71879646 1.78825529,0.0919440873 3.76821108,0.0919440873 Z" fill="#76CC8C"></path>
                            <polygon fill="#FFFFFF" fill-rule="nonzero" points="6.21000496 9.65534215 67.9365151 9.65534215 67.9365151 10.2390294 6.21000496 10.2390294"></polygon>
                            <path d="M6.27032277,5.03751708 C6.27032277,4.04942139 7.06072533,3.24836762 8.03571952,3.24836762 C9.01073764,3.24836762 9.80116414,4.04942139 9.80116414,5.03751708 C9.80116414,6.02585537 9.01073764,6.82690913 8.03571952,6.82690913 C7.06072533,6.82690913 6.27032277,6.02585537 6.27032277,5.03751708 Z" fill="#FFFFFF" fill-rule="nonzero"></path>
                            <path d="M12.3091401,5.03751708 C12.3091401,4.04942139 13.0997341,3.24836762 14.0746326,3.24836762 C15.0497704,3.24836762 15.8401251,4.04942139 15.8401251,5.03751708 C15.8401251,6.02585537 15.0497704,6.82690913 14.0746326,6.82690913 C13.0997341,6.82690913 12.3091401,6.02585537 12.3091401,5.03751708 Z" fill="#FFFFFF" fill-rule="nonzero"></path>
                            <path d="M18.348101,5.03751708 C18.348101,4.04942139 19.138695,3.24836762 20.1135935,3.24836762 C21.0884919,3.24836762 21.879086,4.04942139 21.879086,5.03751708 C21.879086,6.02585537 21.0884919,6.82690913 20.1135935,6.82690913 C19.138695,6.82690913 18.348101,6.02585537 18.348101,5.03751708 Z" fill="#FFFFFF" fill-rule="nonzero"></path>
                        </g>
                        <g transform="translate(1.415843, 16.631340)" id="Path">
                            <polygon fill="#C9EAF0" points="7.23806426 0.200994263 47.2107478 0.200994263 63.6751146 13.5804086 63.6751146 75.5606668 7.23806426 75.5606668"></polygon>
                            <g transform="translate(16.001053, 22.279459)" fill="#FFFFFF" fill-rule="nonzero">
                                <polygon points="0.0967227814 0.144936268 38.8142551 0.144936268 38.8142551 3.28035094 0.0967227814 3.28035094"></polygon>
                                <polygon points="0.0967227814 10.7322312 38.8142551 10.7322312 38.8142551 13.8678854 0.0967227814 13.8678854"></polygon>
                                <polygon points="0.0967227814 21.3197657 38.8142551 21.3197657 38.8142551 24.45542 0.0967227814 24.45542"></polygon>
                                <polygon points="0.0967227814 31.9073002 28.2774425 31.9073002 28.2774425 35.0427149 0.0967227814 35.0427149"></polygon>
                            </g>
                            <polygon fill="#228B9F" points="47.2107478 0.200994263 47.2107478 13.5804086 63.6751146 13.5804086"></polygon>
                            <g transform="translate(0.000000, 25.633357)">
                                <path d="M0.111458079,19.886933 C0.111458079,10.0961886 8.02369207,2.15943062 17.7840954,2.15943062 C27.5442599,2.15943062 35.4566611,10.0961886 35.4566611,19.886933 C35.4566611,29.6774378 27.5442599,37.6144353 17.7840954,37.6144353 C8.02369207,37.6144353 0.111458079,29.6774378 0.111458079,19.886933 Z" fill="#004C6F"></path>
                                <path d="M17.7855283,0.0943882474 C28.6824841,0.0943882474 37.5145875,8.95993615 37.5145875,19.890766 L17.7855283,19.890766 L17.7855283,0.0943882474 Z" fill="#FFB129"></path>
                                <path d="M17.7855283,37.6221013 C27.5459317,37.6221013 35.4566611,29.6812708 35.4566611,19.890766 L17.7855283,19.890766 L17.7855283,37.6221013 Z" fill="#228B9F"></path>
                                <path d="M17.7824237,37.6144353 C8.02202032,37.6144353 0.111458079,29.6736047 0.111458079,19.8830999 L17.7824237,19.8830999 L17.7824237,37.6144353 Z" fill="#187E92"></path>
                            </g>
                        </g>
                    </g>
                </g>
            </g>
        </g>
    </g>
</svg>