<svg height="512" viewBox="0 0 64 64" width="512" xmlns="http://www.w3.org/2000/svg"><g id="Website"><path d="m25 57h-22v2a2.006 2.006 0 0 0 2 2h54a2.006 2.006 0 0 0 2-2v-2z" fill="#003f8a"/><path d="m43.879 35.979-9.179-2.135 1.638 7.156.47 2.05 2.121-2.121 7.071 7.071 2.828-2.828-4.171-4.172h-1.997 1.997l-2.9-2.9z" fill="none"/><path d="m55 15h-46a2.006 2.006 0 0 0 -2 2v28h50v-28a2.006 2.006 0 0 0 -2-2z" fill="#2488ff"/><path d="m57 45h-50l-4 12h58z" fill="#005ece"/><path d="m11 11v4 26h42v-26-4z" fill="#ffcd00"/><path d="m16 41h37v-30c0 16.582-16.549 30-37 30z" fill="#ddb200"/><path d="m51 3h-38a2 2 0 0 0 -2 2v6h42v-6a2 2 0 0 0 -2-2z" fill="#d80027"/><path d="m38 53h-12l-1 4h14z" fill="#ffcd00"/><path d="m38.929 40.929 7.071 7.071 2.828-2.828-7.071-7.072 2.122-2.121-9.179-2.135 1.638 7.156h.002-.002l.47 2.05z" fill="#ed1c24"/><path d="m23.447 22.105a1 1 0 0 0 -1.342.448l-1.105 2.211-1.1-2.211a1.042 1.042 0 0 0 -1.79 0l-1.11 2.211-1.1-2.211a1 1 0 0 0 -1.79.894l2 4a1.042 1.042 0 0 0 1.79 0l1.1-2.211 1.105 2.211a1 1 0 0 0 1.79 0l2-4a1 1 0 0 0 -.448-1.342z" fill="#006df0"/><path d="m33.9 27.447 2-4a1 1 0 0 0 -1.79-.894l-1.11 2.211-1.1-2.211a1.042 1.042 0 0 0 -1.79 0l-1.11 2.211-1.1-2.211a1 1 0 0 0 -1.79.894l2 4a1.042 1.042 0 0 0 1.79 0l1.1-2.211 1.1 2.211a1 1 0 0 0 1.79 0z" fill="#006df0"/><path d="m40.1 27.447a1.042 1.042 0 0 0 1.79 0l1.11-2.211 1.1 2.211a1 1 0 0 0 1.79 0l2-4a1 1 0 0 0 -1.79-.894l-1.1 2.211-1.1-2.211a1.042 1.042 0 0 0 -1.79 0l-1.11 2.211-1.1-2.211a1 1 0 0 0 -1.79.894z" fill="#006df0"/><g fill="#f1f2f2"><path d="m37 48h2v2h-2z"/><path d="m9 48h2v2h-2z"/><path d="m13 48h2v2h-2z"/><path d="m17 48h2v2h-2z"/><path d="m21 48h2v2h-2z"/><path d="m41 48h2v2h-2z"/><path d="m49 48h2v2h-2z"/><path d="m25 48h2v2h-2z"/><path d="m29 48h2v2h-2z"/><path d="m33 48h2v2h-2z"/><path d="m53 48h2v2h-2z"/><path d="m41 52h6v2h-6z"/><path d="m49 52h2v2h-2z"/><path d="m53 52h2v2h-2z"/><path d="m9 52h2v2h-2z"/><path d="m13 52h2v2h-2z"/><path d="m17 52h6v2h-6z"/><path d="m49 6h-18a1 1 0 0 0 0 2h18a1 1 0 0 0 0-2z"/><path d="m16 6h-1a1 1 0 0 0 0 2h1a1 1 0 0 0 0-2z"/><path d="m20 6h-1a1 1 0 0 0 0 2h1a1 1 0 0 0 0-2z"/><path d="m24 6h-1a1 1 0 0 0 0 2h1a1 1 0 0 0 0-2z"/></g><circle cx="25" cy="27" fill="#005ece" r="1"/><circle cx="37" cy="27" fill="#005ece" r="1"/><circle cx="49" cy="27" fill="#005ece" r="1"/></g></svg>