<svg id="eqPNIH5BFTg1" xmlns="http://www.w3.org/2000/svg" xmlns:xlink="http://www.w3.org/1999/xlink" viewBox="0 0 500 500" shape-rendering="geometricPrecision" text-rendering="geometricPrecision">
<style><![CDATA[
#eqPNIH5BFTg2_to {animation: eqPNIH5BFTg2_to__to 7000ms linear infinite normal forwards}@keyframes eqPNIH5BFTg2_to__to { 0% {offset-distance: 0%;animation-timing-function: cubic-bezier(0.42,0,0.58,1)} 28.571429% {offset-distance: 99.06474%;animation-timing-function: cubic-bezier(0.42,0,0.58,1)} 98.285714% {offset-distance: 100%} 100% {offset-distance: 100%}} #eqPNIH5BFTg2_tr {animation: eqPNIH5BFTg2_tr__tr 7000ms linear infinite normal forwards}@keyframes eqPNIH5BFTg2_tr__tr { 0% {transform: rotate(0deg)} 28.571429% {transform: rotate(0deg);animation-timing-function: cubic-bezier(0.42,0,0.58,1)} 35.714286% {transform: rotate(8.367653deg);animation-timing-function: cubic-bezier(0.42,0,0.58,1)} 42.857143% {transform: rotate(-5.550324deg);animation-timing-function: cubic-bezier(0.42,0,0.58,1)} 50% {transform: rotate(-21.987089deg);animation-timing-function: cubic-bezier(0.42,0,0.58,1)} 57.142857% {transform: rotate(-14.376387deg);animation-timing-function: cubic-bezier(0.42,0,0.58,1)} 64.285714% {transform: rotate(-2.847932deg);animation-timing-function: cubic-bezier(0.42,0,0.58,1)} 71.428571% {transform: rotate(-13.12657deg);animation-timing-function: cubic-bezier(0.42,0,0.58,1)} 78.571429% {transform: rotate(-24.089242deg);animation-timing-function: cubic-bezier(0.42,0,0.58,1)} 85.714286% {transform: rotate(-16.76558deg);animation-timing-function: cubic-bezier(0.42,0,0.58,1)} 92.857143% {transform: rotate(-25.969852deg);animation-timing-function: cubic-bezier(0.42,0,0.58,1)} 100% {transform: rotate(-38.16427deg)}} #eqPNIH5BFTg110_to {animation: eqPNIH5BFTg110_to__to 7000ms linear infinite normal forwards}@keyframes eqPNIH5BFTg110_to__to { 0% {transform: translate(91.81px,425.487192px)} 28.571429% {transform: translate(91.81px,425.487192px);animation-timing-function: cubic-bezier(0.42,0,0.58,1)} 35.714286% {transform: translate(91.81px,404.969385px);animation-timing-function: cubic-bezier(0.42,0,0.58,1)} 42.857143% {transform: translate(91.81px,425.487188px);animation-timing-function: cubic-bezier(0.42,0,0.58,1)} 50% {transform: translate(91.810001px,446.661823px);animation-timing-function: cubic-bezier(0.42,0,0.58,1)} 57.142857% {transform: translate(91.810001px,431.445887px);animation-timing-function: cubic-bezier(0.42,0,0.58,1)} 64.285714% {transform: translate(91.810001px,411.955222px);animation-timing-function: cubic-bezier(0.42,0,0.58,1)} 71.428571% {transform: translate(91.810001px,434.389268px);animation-timing-function: cubic-bezier(0.42,0,0.58,1)} 78.571429% {transform: translate(91.810001px,448.126067px);animation-timing-function: cubic-bezier(0.42,0,0.58,1)} 85.714286% {transform: translate(91.810001px,439.502578px);animation-timing-function: cubic-bezier(0.42,0,0.58,1)} 92.857143% {transform: translate(91.810001px,426.49238px);animation-timing-function: cubic-bezier(0.42,0,0.58,1)} 100% {transform: translate(91.810001px,439.502578px)}} #eqPNIH5BFTg110_ts {animation: eqPNIH5BFTg110_ts__ts 7000ms linear infinite normal forwards}@keyframes eqPNIH5BFTg110_ts__ts { 0% {transform: scale(0.003369,0.003369);animation-timing-function: cubic-bezier(0.42,0,0.58,1)} 28.571429% {transform: scale(1.386492,1.386492)} 100% {transform: scale(1.386492,1.386492)}} #eqPNIH5BFTg118_to {animation: eqPNIH5BFTg118_to__to 7000ms linear infinite normal forwards}@keyframes eqPNIH5BFTg118_to__to { 0% {transform: translate(372.320002px,424.861265px)} 28.571429% {transform: translate(372.320002px,424.861265px);animation-timing-function: cubic-bezier(0.42,0,0.58,1)} 35.714286% {transform: translate(372.320003px,404.343461px);animation-timing-function: cubic-bezier(0.42,0,0.58,1)} 42.857143% {transform: translate(372.320003px,424.861265px);animation-timing-function: cubic-bezier(0.42,0,0.58,1)} 50% {transform: translate(372.320004px,446.0359px);animation-timing-function: cubic-bezier(0.42,0,0.58,1)} 57.142857% {transform: translate(372.320004px,430.819964px);animation-timing-function: cubic-bezier(0.42,0,0.58,1)} 64.285714% {transform: translate(372.320004px,411.329299px);animation-timing-function: cubic-bezier(0.42,0,0.58,1)} 71.428571% {transform: translate(372.320004px,433.763345px);animation-timing-function: cubic-bezier(0.42,0,0.58,1)} 78.571429% {transform: translate(372.320004px,447.500144px);animation-timing-function: cubic-bezier(0.42,0,0.58,1)} 85.714286% {transform: translate(372.320004px,438.876655px);animation-timing-function: cubic-bezier(0.42,0,0.58,1)} 92.857143% {transform: translate(372.320004px,425.866457px);animation-timing-function: cubic-bezier(0.42,0,0.58,1)} 100% {transform: translate(372.320004px,438.876655px)}} #eqPNIH5BFTg118_ts {animation: eqPNIH5BFTg118_ts__ts 7000ms linear infinite normal forwards}@keyframes eqPNIH5BFTg118_ts__ts { 0% {transform: scale(0.003847,0.003847);animation-timing-function: cubic-bezier(0.42,0,0.58,1)} 28.571429% {transform: scale(2.03602,2.03602)} 100% {transform: scale(2.03602,2.03602)}}
]]></style>
<g id="eqPNIH5BFTg2_to" style="offset-path:path('M135.483333,174.572682C102.959981,173.200472,53.62613,178.480251,60.133445,88.529861L58.835804,88.529861');offset-rotate:0deg"><g id="eqPNIH5BFTg2_tr" transform="rotate(0)"><g transform="translate(-95.229404,-65.215)"><path d="M100.92,100.08l-32.24-17c-1.070445-.563281-1.872542-1.529616-2.22906-2.685485s-.23811-2.406125.32906-3.474515L90.34,32.26c1.181259-2.225329,3.938067-3.078733,6.17-1.91L117,41.15l7.21,24.67-17.12,32.35c-1.181259,2.225329-3.938067,3.078733-6.17,1.91Z" fill="#fdd639"/><g opacity="0.3"><path d="M117,41.15l-6.64,12.56c-1.088815,2.074525-.298048,4.638933,1.77,5.74l12.08,6.37Z" fill="#fff"/></g><g opacity="0.2"><path d="M109.91,54.9c-1.020569,1.96818-.533767,4.381384,1.17,5.8l.35.29c1.43,1.12,10.83,8.45,11,8.21s1.78-3.38,1.78-3.38l-12.08-6.37c0,0-3-1.7-2.22-4.55Z" fill="#fff"/></g><path d="M107.89,51.77c-.09.16-3.49-1.47-7.61-3.65s-7.39-4.06-7.28-4.23s3.5,1.47,7.62,3.65s7.38,4.07,7.27,4.23Z" fill="#31544e"/><path d="M113.77,64c-.08.16-5.65-2.61-12.43-6.19s-12.2-6.65-12.12-6.81s5.65,2.61,12.43,6.19s12.21,6.61,12.12,6.81Z" fill="#31544e"/><path d="M112.85,71.06c-.08.16-6.14-2.87-13.53-6.78s-13.32-7.19-13.23-7.35s6.15,2.87,13.54,6.77s13.31,7.2,13.22,7.36Z" fill="#31544e"/><path d="M109.9,76.65c-.09.16-6.15-2.87-13.54-6.77s-13.31-7.2-13.22-7.36s6.14,2.87,13.53,6.77s13.33,7.2,13.23,7.36Z" fill="#31544e"/><path d="M106.94,82.25c-.08.16-6.14-2.87-13.53-6.78s-13.31-7.19-13.23-7.35s6.15,2.88,13.54,6.77s13.28,7.2,13.22,7.36Z" fill="#31544e"/><path d="M104,87.84c-.09.16-6.15-2.87-13.53-6.77s-13.32-7.2-13.23-7.36s6.14,2.87,13.53,6.77s13.31,7.2,13.23,7.36Z" fill="#31544e"/></g></g></g><g transform="matrix(.922832 0 0 0.922832-5.820165 21.368181)"><path d="M452.43,345.3l-41.07-15.64c-2.839013-1.082359-4.266086-4.258603-3.19-7.1l21.65-56.84c1.082359-2.839013,4.258603-4.266086,7.1-3.19L463,272.45l12.25,28.46-15.7,41.21c-.5172,1.369973-1.560275,2.47655-2.897328,3.073718s-2.85727.63543-4.222672.106282Z" fill="#ebebeb"/><path d="M463,272.45l-6.1,16c-.479166,1.272929-.432149,2.684205.130676,3.92242s1.595199,2.201601,2.869324,2.67758l15.39,5.86Z" fill="#e0e0e0"/><path d="M453.68,286.49c-.08.2-4.4-1.25-9.64-3.25s-9.44-3.78-9.36-4s4.39,1.25,9.64,3.25s9.44,3.79,9.36,4Z" fill="#fff"/><path d="M462.51,300.21c-.08.2-7.15-2.3-15.78-5.59s-15.58-6.12-15.5-6.32s7.14,2.29,15.78,5.58s15.57,6.12,15.5,6.33Z" fill="#fff"/><path d="M462.44,308.83c-.07.21-7.77-2.53-17.18-6.12s-17-6.65-16.9-6.86s7.77,2.53,17.18,6.12s16.98,6.66,16.9,6.86Z" fill="#fff"/><path d="M459.73,316c-.08.21-7.77-2.53-17.18-6.12s-17-6.66-16.91-6.86s7.77,2.53,17.19,6.12s16.98,6.61,16.9,6.86Z" fill="#fff"/><path d="M457,323.09c-.08.2-7.78-2.54-17.19-6.12s-17-6.66-16.9-6.87s7.77,2.54,17.18,6.12s17,6.66,16.91,6.87Z" fill="#fff"/><path d="M454.3,330.21c-.08.21-7.77-2.53-17.18-6.11s-17-6.66-16.91-6.87s7.77,2.53,17.19,6.12s16.98,6.65,16.9,6.86Z" fill="#fff"/><path d="M258,162.9c-.12-1.26-.26-2.5-.43-3.73s-.37-2.61-.59-3.91c.22,1.3.42,2.6.59,3.91s.26,2.47.43,3.73Z" fill="#f5f5f5"/><path d="M247.94,178.36c-1.08-2.44-1.32-5.14-2-7.71-.244653-1.426051-1.084649-2.680591-2.31-3.45-.91146-.272219-1.840232-.482696-2.78-.63-3.26-1-4.14-5.52-7.23-6.93-.993774-.374742-2.039396-.593985-3.1-.65-4.13-.49-8.41-1.92-11-5.16-.744195-1.128327-1.598368-2.180133-2.55-3.14-1.06-.85-2.7-1.22-3.73-.35q1.31,2.63,2.58,5.22c.681127,1.618327,1.665476,3.091455,2.9,4.34c1.290762,1.244259,3.182851,1.633578,4.86,1c.48463-.335662,1.051657-.532738,1.64-.57.42511.088168.802632.330351,1.06.68c2.25,2.49,1.52,6.62-.68,9.17s-5.42,3.85-8.54,5.09c-1.080699.537323-2.286626.772289-3.49.68-2.16-.4-3.31-2.76-3.94-4.87-1.41-4.67-2.09-9.74-5-13.68-1.050378-1.144567-1.93561-2.430341-2.63-3.82-.6-1.57-.46-3.4-1.4-4.77s-3.05-2.29-3.19-4c.051496-1.254773.834399-2.362581,2-2.83c1.12-.54,2.37-.69,3.52-1.16.45-.2,1-.53,1-1c0-.74-1-1-1.28-1.71s.51-1.49.84-2.23c.72-1.71-1.06-3.44-2.79-4.14s-3.78-1.2-4.58-2.87c-.293084-.805876-.481295-1.646103-.56-2.5-.324276-2.185262-1.935675-3.958591-4.08-4.49-2.14-.35-4.51,1.55-4.17,3.68.21,1.16,1.09,2.07,1.56,3.15s.34,2.69-.77,3c-1.83.56-3.59-2.79-5.13-1.63.63,2.14,1.24,4.28,1.87,6.45-2.41,1.22-5.28-1-6.31-3.51s-1.07-5.35-2.29-7.76-4.51-4.21-6.6-2.51c-.11,3.11,4,4.36,5.8,6.87c1.31,1.82,1.12,4.76-.82,5.91s-5-.85-4.23-3c.26-.73.87-1.34.94-2.13.07-1-.75-1.76-1.5-2.39l-3.5-2.94c-.71909-.686366-1.569433-1.220381-2.5-1.57-2.4-.7-4.81,1.25-6.08,3.4s-2,4.69-3.75,6.48c-2.53,2.62-7.32,2.77-9.69,0s-1.17-7.87,2.33-8.86c1.33-.36,3-.33,3.7-1.5c1.22-2.07-2.27-4.72-1.06-6.81.92-1.61,3.36-.88,5.14-1.42s2.75-2.31,3.8-3.85s2.65-3,4.46-2.65c-.245035-1.052766-.179028-2.154039.19-3.17.218069-.489655.623562-.871283,1.12553-1.059286s1.058392-.166644,1.54447.059286c-.89,1.47.18,3.51,1.73,4.24c1.624335.585862,3.37918.710466,5.07.36c1.71-.2,3.85-.83,4-2.54c0-.56-.16-1.15,0-1.67.75-2,4.52.76,6-.88.83-.85-.09-2.37-1.26-2.65s-2.35.14-3.54.18-2.63-.58-2.68-1.76s1.25-2,1.39-3.16c.23-2-3.08-2.45-4.25-.87s-.75,3.77-.4,5.7.54,4.22-.89,5.58c-.61.92-2.2.44-2.72-.54-.39699-1.038809-.570761-2.149579-.51-3.26-.08-1.12-.57-2.37-1.65-2.67-.782897-.066067-1.571149.022271-2.32.26-3,.37-5.14-3.55-4.19-6.45s3.7-4.77,6.37-6.25c2-1.08,4.37-2.1,6.31-1c.9.51,1.53,1.38,2.42,1.9c1.54.91,3.44.58,5.2.61c2.797098.095596,5.475086,1.155486,7.58,3c.78.71,1.52,1.9.91,2.75s-2.57,1.1-2.24,2.16c1.03117.290295,2.137089.129425,3.042821-.442617s1.52621-1.501527,1.707179-2.557383c1.022115.477324,1.717397,1.457558,1.83,2.58c1.162386-1.065891,2.716781-1.598466,4.288596-1.46938s3.018494.908126,3.991404,2.14938c.386578.752619.904749,1.429966,1.53,2c.7.46,1.92.23,2-.59.007865-.263646-.039835-.525996-.14-.77-.42-1.18-.86-2.35-1.28-3.52c1.63-.87,3.54.49,4.64,2c4.08,5.45,7,2.17,12.74,3.06c3.89.6,5.6,3.09,7.8,6.1c6.73,9.28,15.62,16.88,21.74,26.57.64,1,1.23,2,1.79,3.09-.1-.26-.19-.53-.3-.79-2.387071-6.290113-5.363656-12.340382-8.89-18.07-.75-1.22-1.51-2.43-2.3-3.61-.49-.74-1-1.48-1.5-2.2-.64-.94-1.32-1.85-2-2.75-.54-.74-1.08-1.45-1.64-2.15-.38-.49-.78-1-1.19-1.46-.424401-.570027-.878355-1.117443-1.36-1.64L230.93,101c-.14-.18-.3-.35-.47-.53-.51-.59-1.05-1.16-1.59-1.74-.032559-.069947-.084651-.128985-.15-.17-.14-.16-.3-.32-.46-.47-.43-.49-.9-1-1.36-1.43-.75-.77-1.51-1.54-2.3-2.27-.64-.64-1.3-1.25-2-1.86s-1.19-1.09-1.8-1.61-1.19-1-1.8-1.53-1.48-1.24-2.25-1.85v0c-2.11-1.69-4.29-3.29-6.52-4.79-.56-.39-1.1-.75-1.66-1.12s-1.13-.73-1.69-1.08-1.13-.72-1.71-1.05-1.15-.69-1.72-1-.93-.54-1.4-.78c-.227872-.148374-.465026-.281982-.71-.4-1-.56-2-1.1-3-1.6-.5-.27-1-.53-1.53-.77s-1.31-.65-2-.94c-.09402-.058536-.194744-.105541-.3-.14-.59-.28-1.18-.56-1.79-.82-.86-.37-1.71-.73-2.57-1.08s-1.95-.8-2.94-1.17-2.2-.82-3.32-1.19-2.24-.75-3.38-1.09-2.26-.67-3.41-1q-3.41-.91-6.89-1.62c0,0-.09,0-.12,0-.89-.17-1.78-.34-2.67-.48-.056444-.007111-.113556-.007111-.17,0-.39-.07-.79-.14-1.19-.19-1.65-.28-3.33-.51-5-.7l-.61-.07c-.49-.07-1-.1-1.48-.15-1.12-.11-2.23-.2-3.37-.27s-2.35-.14-3.53-.17-2.48-.07-3.72-.07c-3.27,0-6.52.14-9.73.44-.76,0-1.51.12-2.26.2l-2.35.28c-.79.11-1.57.21-2.34.33l-2.34.39c-.66.1-1.34.22-2,.36q-2.46.48-4.86,1c-.75.17-1.5.37-2.25.58s-1.5.4-2.24.61c-1.23.34-2.44.73-3.64,1.11v0c-1,.33-2,.66-2.92,1c0,0-.06,0-.07,0-1,.35-2,.71-2.93,1.1h-.16c-.89.35-1.78.72-2.65,1.08-1.1.45-2.18.94-3.24,1.43-.91.42-1.8.84-2.67,1.27s-1.88.94-2.81,1.43l-.1.06c-.89.47-1.78,1-2.65,1.46s-1.8,1-2.69,1.59v0c-.84.5-1.66,1-2.48,1.53-.31.19-.61.4-.92.61-.87.56-1.71,1.13-2.56,1.73-1,.71-2.06,1.46-3.07,2.21s-1.76,1.34-2.62,2c-4.930911,3.932563-9.514468,8.281923-13.7,13-1.48,1.64-2.88,3.31-4.24,5q-1.72,2.19-3.33,4.48c-1,1.33-1.88,2.69-2.77,4.07.89-1.38,1.82-2.74,2.77-4.07l.84-.09c1.579639.037628,3.152656-.216631,4.64-.75c1.31-.64,2.23-1.81,3.42-2.65c3-2.16,8-2.56,8.82-6.19.28-1.22-.06-2.54.4-3.71.85-2.18,3.76-2.49,6.1-2.46c1,0,2.16.14,2.61,1c.243147.652048.206977,1.375459-.1,2-1.45798,4.098539-4.283072,7.569872-8,9.83-3,1.85-7,3.28-7.83,6.73.42,1.17,2.55,1.08,2.72,2.3.12,1-1.13,1.48-1.59,2.35-.66,1.28.86,2.83,2.3,2.76s2.65-1.12,3.72-2.09c3.17-3,6.5-6.12,7.65-10.31.49-1.72.66-3.75,2.06-4.9.872211-.615014,1.982585-.784801,2.998727-.458534s1.820124,1.11072,2.171273,2.118534c1.38-.77,3.53-1.34,4.24.09.161293.53366.261928,1.083799.3,1.64.45,2.23,3.5,3.24,3.82,5.49.36,2.59-3,3.94-5.57,4.34l-7.06,1.11c-1.034092.077404-2.034955.3996-2.92.94-.899077.594342-1.264872,1.733295-.88,2.74.351582.470043.76154.893443,1.22,1.26c2,2,.35,6-2.4,6.06-.94,0-1.87-.31-2.81-.35-2.79-.12-5,2.34-6.33,4.8s-2.31,5.26-4.55,6.94c-3.59,2.7-9.78,2.07-11.52,6.22-.7,1.67-.33,3.56,0,5.35s.4,3.77-.65,5.25-3.71,1.78-4.48.14c-.258497-.747104-.293252-1.553424-.1-2.32.42-2.58.82-5.16,1.22-7.74.3-1.92.56-4.06-.58-5.63-1.58-2.2-5.14-2-7.2-.23s-2.89,4.52-3.46,7.15c-.395937,2.382916-1.067094,4.71183-2,6.94v0c-.37,2.16-.67,4.36-.89,6.57s-.39,4.52-.47,6.82c.312025-.263267.609151-.543701.89-.84c1.1-1.13,3.31-5.93,5.3-3.57.493521.642872.493521,1.537128,0,2.18-.61.78-1.83,1-2.3,1.81-.57,1,.23,2.26,1.17,2.93s2.09,1.09,2.75,2.05c1.28,1.83.06,4.61,1.29,6.47c1.07,1.61,3.33,1.71,5.27,1.92l.66.1c.54-3.83,2.34-6.95,7.57-8.14c7.21-1.64,16.7,4.34,20.76,9.78c4.53,6.09,6.67,14.7,13.61,17.75c5,2.18,12,1.39,14.45,6.26c2.17,4.36-1.6,9.25-2.18,14.08-.36,3.19.68,6.37.93,9.56s-.72,6.93-3.63,8.28c-1.62.73-3.66.64-5,1.86-2.31,2.2-.41,6.73-2.73,8.93-.92325.653341-1.932935,1.175011-3,1.55-5.21,2.63-5.07,10.3-2.65,15.62.09.19.18.36.26.56c33.088063,19.803239,74.121886,20.865211,108.19,2.8v0c3.344152-1.790155,6.595024-3.749356,9.74-5.87c4.84697-3.254697,9.424991-6.893037,13.69-10.88c2.947968-2.751132,5.739034-5.665725,8.36-8.73c1.85-2.13,3.6-4.34,5.27-6.61.85-1.17,1.69-2.34,2.47-3.54c2.414984-3.529447,4.612399-7.202937,6.58-11c2.872643-5.511471,5.258377-11.26333,7.13-17.19c1.950399-6.086602,3.355929-12.334519,4.2-18.67.33-2.47.59-5,.76-7.51-1.149907,1.2263-2.739777,1.945698-4.42,2-2.59-.08-4.78-2.28-5.84-4.72Z" fill="#f5f5f5"/><path d="M52.59,202.76c-.34-3.15.7-6.31.75-9.5c0-2.19-.12-4.51-.15-6.73-1.887396-.079423-3.762739-.340632-5.6-.78-.382035-.056843-.73406-.239896-1-.52-.190398-.358626-.267132-.76671-.22-1.17-.14-2.48-2.53-4.11-4.67-5.35-1.07286-.674869-2.212165-1.23782-3.4-1.68c0,.27,0,.51,0,.77.415788,11.953313,2.780218,23.758574,7,34.95c1.863799,4.976324,4.103599,9.803595,6.7,14.44c1.08,2,2.27,4,3.5,5.91c1.54,2.39,3.14,4.72,4.87,7s3.31,4.27,5.11,6.29c2.453295,2.802615,5.05362,5.473038,7.79,8c2.42,2.27,4.95,4.41,7.58,6.45-6-16.14-11.68-32.61-22-46.35-2.65-3.6-5.75-7.26-6.26-11.73Z" fill="#f5f5f5"/><path d="M38.25,171.82c0,.67,0,1.33,0,2s0,1.07,0,1.61c0-.54,0-1.07,0-1.61s-.01-1.33,0-2Z" fill="#f5f5f5"/><g opacity="0.6"><path d="M87,265.3c.92.62,1.86,1.23,2.81,1.83l2,1.22-2-1.22c-.91-.6-1.81-1.21-2.81-1.83Z" fill="#f5f5f5"/></g><path d="M180.33,258.39c-.689333.002055-1.3768-.071722-2.05-.22-2.114538-.380581-3.920281-1.747893-4.86-3.68-.595338-1.528785-.884154-3.159743-.85-4.8-.016029-1.101741-.133188-2.199684-.35-3.28-.55397-1.887546-1.426537-3.666502-2.58-5.26-2.615775-3.585764-3.841631-7.998846-3.45-12.42v-.68c-.58-19.37-6-35.1-15.62-45.48-1.234818-1.534418-2.872723-2.694457-4.73-3.35-2.260459-.559179-4.638363.263489-6.07,2.1-.33816.47454-.642256.972455-.91,1.49-.401613.838925-.93882,1.605881-1.59,2.27-1.06905.915507-2.501612,1.284724-3.88,1-2.025425-.348821-3.795219-1.570126-4.84-3.34-1.71-3-1.4-6.72-1.15-9.71l1-12c.16-1.86.37-4.4,1.87-6.14c1.248057-1.219572,2.786545-2.100674,4.47-2.56c1.219902-.38208,2.37845-.937779,3.44-1.65c1.93-1.45,2.79-3.73,3.7-6.14.464458-1.382245,1.050065-2.720776,1.75-4c1.488096-2.328047,4.147854-3.634798,6.9-3.39c1.07496.098966,2.026941.734874,2.53,1.69.857699-1.936434,2.485464-3.426437,4.49-4.11c4-1.15,8.84,2,13.53,5.05c4.29,2.79,8.33,5.41,11.51,4.83.80934-.156511,1.610342-.353424,2.4-.59c1.655396-.592851,3.41607-.834646,5.17-.71c4.63.65,7,5.67,8.53,10l7.53,21c.94,2.62,2.15,5.49,4.64,6.46c1.013341.328866,2.07491.484382,3.14.46c1.111318-.017921,2.218433.140721,3.28.47c1.855645.654862,3.190572,2.290726,3.46,4.24.64,3.48-1.1,8-4.05,10.58v0c-1.411172,1.165427-2.88684,2.250477-4.42,3.25-3.4,2.32-6.62,4.51-8,8.11-.637561,1.986918-.951567,4.063409-.93,6.15.041338,2.256109-.32103,4.501437-1.07,6.63-.842243,1.746369-1.944813,3.354705-3.27,4.77-.785224.885296-1.516542,1.816974-2.19,2.79-2.41,3.63-3.08,8.14-3.73,12.49-.08.56-.16,1.12-.25,1.67-.75,4.86-2.05,10.27-6,13.65-1.824495,1.521751-4.124185,2.356716-6.5,2.36Z" fill="#ebebeb"/><g opacity="0.6"><path d="M38.32,169.22v0c0,.21,0,.4,0,.61c0,.66,0,1.33,0,2c0-.66,0-1.33,0-2-.04-.21-.02-.4,0-.61Z" fill="#f5f5f5"/></g><g opacity="0.6"><path d="M38.24,175.42c0,.54,0,1.08,0,1.61v0c.01-.53.01-1.03,0-1.61Z" fill="#f5f5f5"/></g><path d="M53.38,182.26l-.66-.1c-1.94-.21-4.2-.31-5.27-1.92-1.23-1.86,0-4.64-1.29-6.47-.66-1-1.81-1.37-2.75-2.05s-1.75-1.92-1.17-2.93c.47-.86,1.69-1,2.3-1.81.493521-.642872.493521-1.537128,0-2.18-2-2.36-4.2,2.44-5.3,3.57-.280849.296299-.577975.576733-.89.84v0c0,.21,0,.4,0,.61c0,.66,0,1.33,0,2s0,1.33,0,2s0,1.07,0,1.61s0,1.08,0,1.61c1.185499.440238,2.321684,1.003303,3.39,1.68c2.15,1.23,4.54,2.87,4.68,5.35-.047132.40329.029602.811374.22,1.17.26594.280104.617965.463157,1,.52c1.837261.439368,3.712604.700577,5.6.78" fill="#ebebeb"/><path d="M53.19,186.53c0,2.22.19,4.54.15,6.73-.05,3.19-1.09,6.35-.74,9.5.5,4.47,3.6,8.13,6.31,11.72c10.28,13.74,16,30.21,22,46.35v0c1.11.89,2.25,1.73,3.4,2.55.9.65,1.82,1.29,2.75,1.92s1.86,1.23,2.81,1.83l2,1.22c-.08-.2-.17-.37-.26-.56-2.42-5.32-2.56-13,2.65-15.62c1.067065-.374989,2.07675-.896659,3-1.55c2.32-2.2.42-6.73,2.73-8.93c1.31-1.22,3.35-1.13,5-1.86c2.91-1.35,3.86-5.08,3.63-8.28s-1.29-6.37-.93-9.56c.58-4.83,4.35-9.72,2.18-14.08-2.42-4.87-9.48-4.08-14.45-6.26-7.04-3.05-9.18-11.65-13.71-17.75-4.06-5.44-13.55-11.42-20.76-9.78-5.23,1.19-7,4.31-7.57,8.14" fill="#ebebeb"/><path d="M45.13,141.73c2.06-1.76,5.62-2,7.2.23c1.14,1.57.88,3.71.58,5.63-.4,2.58-.8,5.16-1.22,7.74-.193252.766576-.158497,1.572896.1,2.32.77,1.64,3.45,1.32,4.48-.14s.93-3.47.65-5.25-.65-3.68,0-5.35c1.74-4.15,7.93-3.52,11.52-6.22c2.24-1.68,3.23-4.48,4.55-6.94s3.54-4.92,6.33-4.8c.94,0,1.87.39,2.81.35c2.75-.08,4.36-4.11,2.4-6.06-.439619-.363529-.832601-.780022-1.17-1.24-.384872-1.006705-.019077-2.145658.88-2.74.885045-.5404,1.885908-.862596,2.92-.94l7.06-1.11c2.6-.4,5.93-1.75,5.57-4.34-.32-2.25-3.37-3.26-3.82-5.49-.038072-.556201-.138707-1.10634-.3-1.64-.71-1.43-2.86-.86-4.24-.09-.353371-1.006093-1.158284-1.788121-2.174149-2.112333s-2.124989-.153047-2.995851.462333c-1.4,1.15-1.57,3.18-2.06,4.9-1.15,4.19-4.48,7.36-7.65,10.31-1.07,1-2.27,2-3.72,2.09s-3-1.48-2.3-2.76c.46-.87,1.71-1.37,1.59-2.35-.17-1.22-2.3-1.13-2.72-2.3.84-3.45,4.79-4.88,7.83-6.73c3.716928-2.260128,6.54202-5.731461,8-9.83.306977-.624541.343147-1.347952.1-2-.45-.87-1.62-1-2.61-1-2.34,0-5.25.28-6.1,2.46-.46,1.17-.12,2.49-.4,3.71-.82,3.63-5.79,4-8.82,6.19-1.19.84-2.11,2-3.42,2.65-1.487344.533369-3.060361.787628-4.64.75l-.84.09c-1,1.33-1.88,2.69-2.77,4.07s-1.73,2.75-2.58,4.14c-3.93325,6.739407-7.134773,13.879977-9.55,21.3-.85,2.61-1.61,5.26-2.26,7.95s-1.21,5.42-1.66,8.18c.932906-2.22817,1.604063-4.557084,2-6.94.56-2.63,1.41-5.39,3.45-7.15Z" fill="#ebebeb"/><path d="M137.54,90.64c1-1.37.73-3.33,1.41-4.91c1.12-2.62,4.61-3.56,5.82-6.15.46-1,.58-2.21,1.39-2.94s1.68-.75,2.4-1.3c1.63-1.25.95-4.08-.77-5.18-4.32-2.76-12.27.43-16,3.14-4.8,3.47-9.49,7.65-15.88,7.24-1.76-.11-3.59-.59-5.24,0s-2.67,3.1-1.25,4.14c.79.59,1.91.42,2.81.84c1.64.76,1.81,3.14,1,4.77s-2.23,2.87-3.23,4.42c-.914806,1.49887-1.328138,3.250275-1.18,5c.035854,1.240457.573542,2.413267,1.49,3.25c2,1.58,5,.22,6.69-1.68s2.85-4.37,5-5.68c1.122517-.594858,2.330033-1.013104,3.58-1.24l8.33-2c1.369484-.14707,2.648886-.753288,3.63-1.72Z" fill="#ebebeb"/><g opacity="0.6"><path d="M258.46,172.29c0-1.58-.06-3.16-.15-4.72.09,1.56.14,3.14.15,4.72c0,.51,0,1,0,1.52c0,2.44-.09,4.84-.23,7.25.14-2.41.23-4.81.23-7.25.03-.51.03-1.01,0-1.52Z" fill="#f5f5f5"/></g><g opacity="0.6"><path d="M251.57,135.34c.52,1.39,1,2.79,1.48,4.21-.46-1.42-1-2.82-1.48-4.21c0,0,0,0,0,0v0Z" fill="#f5f5f5"/></g><path d="M258.46,172.29c0-1.58-.06-3.16-.15-4.72s-.2-3.12-.36-4.67c-.12-1.26-.26-2.5-.43-3.73s-.37-2.61-.59-3.91c-.645903-3.857641-1.50387-7.676763-2.57-11.44-.41-1.43-.85-2.86-1.31-4.27s-1-2.82-1.48-4.21v0v0c-.56-1-1.15-2.08-1.79-3.09-6.12-9.69-15-17.29-21.74-26.57-2.2-3-3.91-5.5-7.8-6.1-5.75-.89-8.66,2.39-12.74-3.06-1.1-1.47-3-2.83-4.64-2c.42,1.17.86,2.34,1.28,3.52.100165.244004.147865.506354.14.77-.09.82-1.31,1-2,.59-.625251-.570034-1.143422-1.247381-1.53-2-.97291-1.241254-2.419589-2.020294-3.991404-2.14938s-3.12621.403489-4.288596,1.46938c-.112603-1.122442-.807885-2.102676-1.83-2.58-.180969,1.055856-.801447,1.985342-1.707179,2.557383s-2.011651.732912-3.042821.442617c-.33-1.06,1.57-1.25,2.24-2.16s-.13-2-.91-2.75c-2.104914-1.844514-4.782902-2.904404-7.58-3-1.76,0-3.66.3-5.2-.61-.89-.52-1.52-1.39-2.42-1.9-1.94-1.1-4.36-.08-6.31,1-2.67,1.48-5.42,3.34-6.37,6.25s1.16,6.82,4.19,6.45c.748851-.237729,1.537103-.326067,2.32-.26c1.08.3,1.57,1.55,1.65,2.67-.060761,1.110421.11301,2.221191.51,3.26.52,1,2.11,1.46,2.72.54c1.43-1.36,1.25-3.64.89-5.58s-.75-4.11.4-5.7s4.48-1.08,4.25.87c-.14,1.15-1.44,2-1.39,3.16s1.5,1.81,2.68,1.76s2.39-.47,3.54-.18s2.09,1.8,1.26,2.65c-1.45,1.64-5.22-1.16-6,.88-.21.52,0,1.11,0,1.67-.14,1.71-2.28,2.34-4,2.54-1.69082.350466-3.445665.225862-5.07-.36-1.55-.73-2.62-2.77-1.73-4.24-.486078-.22593-1.042503-.247289-1.54447-.059286s-.907461.569631-1.12553,1.059286c-.369028,1.015961-.435035,2.117234-.19,3.17-1.81-.4-3.43,1.13-4.46,2.65s-2,3.31-3.8,3.85-4.22-.19-5.14,1.42c-1.21,2.09,2.28,4.74,1.06,6.81-.7,1.17-2.37,1.14-3.7,1.5-3.5,1-4.72,6.12-2.33,8.86s7.16,2.58,9.69,0c1.76-1.79,2.48-4.32,3.75-6.48s3.68-4.1,6.08-3.4c.930567.349619,1.78091.883634,2.5,1.57l3.5,2.94c.75.63,1.57,1.41,1.5,2.39-.07.79-.68,1.4-.94,2.13-.73,2.11,2.32,4.11,4.23,3s2.13-4.09.82-5.91c-1.81-2.51-5.91-3.76-5.8-6.87c2.09-1.7,5.38.09,6.6,2.51s1.26,5.27,2.29,7.76s3.9,4.73,6.31,3.51c-.63-2.17-1.24-4.31-1.87-6.45c1.54-1.16,3.3,2.19,5.13,1.63c1.11-.34,1.25-2,.77-3s-1.35-2-1.56-3.15c-.34-2.13,2-4,4.17-3.68c2.144325.531409,3.755724,2.304738,4.08,4.49.078705.853897.266916,1.694124.56,2.5.8,1.67,2.87,2.18,4.58,2.87s3.51,2.43,2.79,4.14c-.33.74-1.11,1.46-.84,2.23s1.28,1,1.28,1.71c0,.48-.53.81-1,1-1.15.47-2.4.62-3.52,1.16-1.165601.467419-1.948504,1.575227-2,2.83.14,1.74,2.21,2.58,3.19,4s.8,3.2,1.4,4.77c.69439,1.389659,1.579622,2.675433,2.63,3.82c2.89,3.94,3.57,9,5,13.68.63,2.11,1.78,4.47,3.94,4.87c1.203374.092289,2.409301-.142677,3.49-.68c3.12-1.24,6.36-2.56,8.54-5.09s2.93-6.68.68-9.17c-.257368-.349649-.63489-.591832-1.06-.68-.588343.037262-1.15537.234338-1.64.57-1.677149.633578-3.569238.244259-4.86-1-1.234524-1.248545-2.218873-2.721673-2.9-4.34q-1.28-2.59-2.58-5.22c1-.87,2.67-.5,3.73.35.951632.959867,1.805805,2.011673,2.55,3.14c2.59,3.24,6.87,4.67,11,5.16c1.060604.056015,2.106226.275258,3.1.65c3.09,1.41,4,6,7.23,6.93.939768.147304,1.86854.357781,2.78.63c1.225351.769409,2.065347,2.023949,2.31,3.45.72,2.57,1,5.27,2,7.71s3.25,4.65,5.9,4.69c1.680223-.054302,3.270093-.7737,4.42-2v0c.14-2.41.23-4.81.23-7.25-.02-.48-.02-.98-.05-1.49Z" fill="#ebebeb"/><path d="M213.87,218c-1.64.32-2,1.28-2.86,2.5-1.16,1.58-2.82,3.17-3.88,4.73-1.79,2.65-.18,6.77-2.54,9-.48.46-1.1.75-1.53,1.25-.88425,1.225863-.631515,2.932938.57,3.85c1.232185.830091,2.836371.861392,4.1.08c1.228387-.804164,2.123674-2.026302,2.52-3.44.157843-1.038346.597066-2.013628,1.27-2.82c1.35-1.18,3.45-.3,5.22-.55c7.56-1.04,4.31-16-2.87-14.6Z" fill="#ebebeb"/><path d="M211.68,442.9l-39.34,12.3c-2.71993.846964-5.611631-.670507-6.46-3.39l-17-54.45c-.846964-2.71993.670507-5.611631,3.39-6.46l24.94-7.8L202.72,397l12.34,39.47c.828419,2.707677-.679931,5.577112-3.38,6.43Z" fill="#ebebeb"/><path d="M163.19,429.07h51.53v15c0,3.015475-2.444525,5.46-5.46,5.46h-40.73c-2.943678,0-5.33-2.386322-5.33-5.33v-15.13Z" transform="matrix(.954449-.298375 0.298375 0.954449-122.48 76.4)" fill="#e0e0e0"/><path d="M182.34,436.74l2.49,7.95-1.77.56-1-3.27-3.46,1.09l1,3.26-1.76.55-2.48-7.95l1.76-.55l1,3.13l3.46-1.08-1-3.14Z" fill="#fff"/><path d="M190.2,442.69c-.324597.397612-.765001.684224-1.26.82-.577597.259197-1.242299.238412-1.802574-.056367s-.953889-.830808-1.067426-1.453633l-.79-2.51-.9.28-.43-1.36.91-.28-.47-1.49l1.7-.53.46,1.49l1.46-.46.43,1.36-1.44.5.78,2.49c.028565.224535.161054.422568.357697.534654s.434548.125179.642303.035346c.250281-.067173.467286-.223701.61-.44Z" fill="#fff"/><path d="M200.05,436.09l1.09,3.5-1.69.53-1-3.22c-.31-1-.88-1.31-1.56-1.1s-1.14.92-.8,2l1,3.07-1.7.53-1-3.23c-.31-1-.86-1.32-1.56-1.1s-1.13.92-.79,2l1,3.06-1.7.53-1.91-6.11l1.62-.5.22.7c.298825-.671189.88201-1.173681,1.59-1.37.764412-.277537,1.618889-.124952,2.24.4.302935-.807383.970782-1.423286,1.8-1.66c1.3-.42,2.57.11,3.15,1.97Z" fill="#fff"/><path d="M200,430.69l1.7-.53l2.63,8.42-1.7.53Z" fill="#fff"/><path d="M174.41,409.75l-5.67,4.82l7.4.7.88,2.84-10.63-1.19-.92-2.95l8.06-7Z" fill="#fff"/><path d="M178.82,399.15l2.72-.85.21,23.42-2.73.85Z" fill="#fff"/><path d="M194.28,405l.92,3-8.06,7-.89-2.84l5.68-4.79-7.4-.73-.88-2.81Z" fill="#fff"/><g opacity="0.3"><path d="M177.18,383.1l4.8,15.33c.790452,2.523369,3.476138,3.928879,6,3.14l14.74-4.6Z" fill="#fff"/></g><path d="M182.6,399.71c.764756,2.383901,3.08816,3.912018,5.58,3.67.173192.009913.346808.009913.52,0c2-.26,15.4-2,15.31-2.25L202.72,397L188,401.58c0,0-3.73,1.02-5.4-1.87Z" fill="#e0e0e0"/></g><g><rect width="298.69" height="224.44" rx="0" ry="0" transform="matrix(1 0 0 1.921413 95.87 30.723892)" fill="#fff"/><path d="M394.56,354.08c0,0,0-.36,0-1.05s0-1.72,0-3.07c0-2.7,0-6.7-.05-11.93c0-10.44-.06-25.78-.11-45.36-.05-39.1-.13-95.16-.22-163l.43.43-298.66.09v0l.52-.52c0,80.7,0,157.11,0,224.44l-.47-.47l215.58.23l61.23.13l16.25.06h4.19h1.07v0h-1.05-4.13l-16.16.06-61.12.13-215.89.23h-.57v-.47c0-67.33,0-143.74-.05-224.44v-.52h.55l298.66.1h.44v.42c-.09,68-.16,124.14-.22,163.3-.05,19.54-.08,34.84-.11,45.26c0,5.19,0,9.17,0,11.85c0,1.33,0,2.34,0,3s-.11,1.1-.11,1.1Z" transform="matrix(1 0 0 1.916299 0-217.529034)" fill="#263238"/><path d="M393.06,157.13c-.248732.032094-.499209.048792-.75.05h-2.22l-8.52.09c-7.39.06-18.1.09-31.32.08-26.46,0-63-.19-103.36-.52L143.53,156l-31.33-.25-8.51-.1-2.22-.06c-.249183.028589-.500817.028589-.75,0c.247269-.045264.498911-.062041.75-.05h2.22l8.51-.09c7.4-.06,18.1-.09,31.33-.09c26.45,0,63,.2,103.37.53l103.35.83l31.33.24l8.51.11h2.22c.251414-.006399.502801.013712.75.06Z" transform="translate(0-95.171627)" fill="#263238"/><path d="M115.38,141c.004044,1.425519-.852091,2.712736-2.168329,3.260128s-2.832674.246872-3.840673-.761126-1.308518-2.524435-.761126-3.840673s1.834609-2.172373,3.260128-2.168329c1.93624.005493,3.504507,1.57376,3.51,3.51Z" transform="translate(0-95.171627)" fill="#263238"/><path d="M129.45,141c.004047,1.42461-.851002,2.711196-2.166011,3.259177s-2.83066.249299-3.839448-.756623-1.311781-2.520718-.767543-3.83728s1.828386-2.175268,3.253002-2.175274c1.940144-.000008,3.514488,1.569864,3.52,3.51Z" transform="translate(0-95.171628)" fill="#263238"/><circle r="3.52" transform="translate(140 45.868373)" fill="#263238"/><rect width="61.38" height="45.95" rx="0" ry="0" transform="translate(118.384066 288.044155)" fill="#ebebeb"/><rect width="61.38" height="45.95" rx="0" ry="0" transform="translate(213.618612 288.044155)" fill="#ebebeb"/><rect width="61.38" height="45.95" rx="0" ry="0" transform="translate(308.853158 288.044155)" fill="#ebebeb"/></g><g transform="matrix(1.209041 0 0 1.209042-90.621365-20.62296)"><path d="M460.81,177.91c-1.87-34.64-38.07-52.07-56.59-54.32L389.4,141c11.93-1.79,41.6,14.77,43.05,26.75s-7.68,27.29-19.7,28.39c-9.44.87-25.18-7.51-31.17-.17-15.14-13.48-41-12.37-54.92,2.36-10.894951-3.899789-22.975419-2.599996-32.791415,3.528179s-16.288322,16.410985-17.568585,27.911821l55.75,32.36c0,0,23.23,20.82,39.07,8c5.41-4.38,7.47-10.67,8-16.74c1.05648.134499,2.128907.066624,3.16-.2c4-1.08,7-4.68,8.32-8.63.17-.51.3-1,.42-1.55c13.54,3,32-.4,42.89-7.2c15.8-9.81,27.9-39.27,26.9-57.9Z" fill="#fff"/><path d="M385.52,202.71c0,0-.08-.08-.21-.27l-.55-.82c-.24-.37-.54-.82-.93-1.32s-.81-1.11-1.36-1.72c-3.007245-3.584657-6.686234-6.546871-10.83-8.72-2.833518-1.502818-5.862654-2.603405-9-3.27-3.611612-.790545-7.331561-.959634-11-.5-8.464087,1.056998-16.269189,5.112103-22,11.43-.83.9-1.56,1.88-2.25,2.78l-.13.18-.19-.1c-8.958738-4.379721-19.35724-4.743305-28.6-1-1.552824.668006-3.065389,1.425958-4.53,2.27-2.643801,1.495806-5.092398,3.312939-7.29,5.41-3.200806,3.008891-5.688177,6.695531-7.28,10.79-.3.72-.5,1.37-.68,1.94-.160873.476159-.297712.960103-.41,1.45l-.24.9c-.017211.104671-.050966.205937-.1.3s0-.11.05-.31l.19-.91c.091318-.497507.214912-.988544.37-1.47.16-.58.35-1.24.63-2c1.540968-4.166938,4.009969-7.928574,7.22-11c2.201707-2.137832,4.664514-3.989137,7.33-5.51c1.474117-.866682,3.000356-1.64149,4.57-2.32c1.682856-.698967,3.418242-1.264054,5.19-1.69c7.997626-1.927027,16.416752-1.007677,23.81,2.6l-.33.08c5.851655-8.006504,14.771546-13.216416,24.62-14.38c3.716924-.457475,7.484749-.274833,11.14.54c3.183307.693941,6.253319,1.83173,9.12,3.38c4.16451,2.214832,7.8408,5.244966,10.81,8.91.473993.562856.917944,1.15034,1.33,1.76.32536.432567.625846.883295.9,1.35.21.36.38.64.51.85.050953.126374.091097.256841.12.39Z" fill="#263238"/><path d="M396.29,195.47c-.06.08-.78-.45-2.1-.94-.769764-.279694-1.567861-.474189-2.38-.58-.996454-.119092-2.003546-.119092-3,0-.994771.151658-1.968169.420182-2.9.8-.755485.319693-1.473201.722151-2.14,1.2-1.14.83-1.69,1.53-1.76,1.47s.09-.21.33-.54c.352751-.453893.759025-.863525,1.21-1.22.659441-.545387,1.389335-.999469,2.17-1.35c1.928845-.869897,4.067651-1.165024,6.16-.85.848524.128841,1.675912.371003,2.46.72.531659.221245,1.032478.510308,1.49.86.32.26.48.41.46.43Z" fill="#263238"/><path d="M412,216.54c0,0-.57-.28-1.64-.66-1.522386-.540176-3.137206-.771351-4.75-.68-2.424197.120876-4.745198,1.018424-6.62,2.56-2.330369,1.926014-3.836464,4.669897-4.21,7.67l-.05.42-.34-.23c-1.151608-.736356-2.382756-1.340189-3.67-1.8-3.313813-1.183201-6.89401-1.40848-10.33-.65-2.798031.662043-5.403483,1.966481-7.61,3.81-1.488879,1.243648-2.783219,2.703151-3.84,4.33-.74,1.16-1.06,1.86-1.1,1.83.043276-.181447.110534-.356319.2-.52.212143-.488729.455996-.963073.73-1.42c2.540786-4.260922,6.688841-7.320608,11.51-8.49c4.934717-1.15181,10.125525-.257217,14.39,2.48l-.4.19c.384615-3.139838,1.972784-6.007865,4.43-8c1.960984-1.578641,4.383696-2.473991,6.9-2.55c1.651073-.061525,3.296643.224662,4.83.84.411138.16602.808966.363262,1.19.59.139357.074756.267317.169043.38.28Z" fill="#263238"/><path d="M455.22,157.67c.155401.221843.292519.455947.41.7.24.47.62,1.16,1.05,2.07c1.179063,2.591453,2.116374,5.286221,2.8,8.05.990032,4.096955,1.500127,8.295168,1.52,12.51.018293,2.491936-.108589,4.982821-.38,7.46-.278247,2.661856-.705585,5.306009-1.28,7.92-1.978159,9.199843-5.51587,17.99339-10.46,26-1.492854,2.424244-3.199661,4.710028-5.1,6.83-.69.73-1.24,1.29-1.64,1.64-.190408.191844-.397936.3659-.62.52.168537-.213076.352355-.413606.55-.6.38-.37.89-.95,1.56-1.7c1.830033-2.155952,3.48212-4.456834,4.94-6.88c4.820291-8.010734,8.286783-16.761429,10.26-25.9.573503-2.593966,1.000843-5.2181,1.28-7.86.280918-2.459902.417819-4.934122.41-7.41.004518-4.192269-.461737-8.371789-1.39-12.46-.653967-2.734797-1.533649-5.410637-2.63-8-.39-.92-.75-1.61-1-2.1-.114809-.255222-.208457-.519444-.28-.79Z" fill="#263238"/><path d="M427.56,159c.354276.289231.667194.625702.93,1c.781362.933779,1.474337,1.938089,2.07,3c4.105652,7.172735,3.819392,16.046783-.74,22.94-.660754,1.017175-1.413946,1.971219-2.25,2.85-.295391.339651-.631218.641895-1,.9c1.050275-1.260438,2.0285-2.579206,2.93-3.95c4.285028-6.840809,4.563815-15.45648.73-22.56-.799492-1.449119-1.691331-2.845332-2.67-4.18Z" fill="#263238"/><path d="M390.9,132.17c2.562833,3.915468,5.876763,7.283779,9.75,9.91c1.134884.75772,2.62732.704142,3.70495-.133005s1.498598-2.269985,1.04505-3.556995v-.08c4.541494,3.481568,9.308594,6.658521,14.27,9.51c1.422197.834301,3.215399.684065,4.478947-.37525s1.724386-2.79879,1.151053-4.34475c-4.969617-13.602687-14.705163-24.940689-27.4-31.91Z" fill="#fdd639"/><g opacity="0.3"><path d="M396.66,132.65c.399587.691956.933362,1.297128,1.57,1.78.653467.485023,1.531226.539883,2.24.14c1-.67.95-2.3,2-2.92s2.41.27,3.33,1.14l2.9,2.77c.71.68,1.67,1.41,2.58,1s1.07-1.82.85-2.88c-1.084494-5.01978-4.564261-9.187277-9.31-11.15Z" fill="#fff"/></g><path d="M435.16,156.47c.068163,1.901885,1.64747,3.398527,3.550271,3.36444s3.42749-1.586334,3.42749-3.48944-1.52469-3.455353-3.42749-3.48944-3.482108,1.462555-3.550271,3.36444" fill="#fdd639"/><path d="M251.3,35.81c-2.82,4.39,3.35,19.73,17.49,39.37c8.327557,11.594636,18.455387,21.783233,30,30.18l81.54,52.31l13.78-21.48l8-12.46l13.78-21.48-74-47.47C334.654136,50.1306,326.989046,46.185874,319,43c-7.986323-3.226929-16.219618-5.805268-24.62-7.71-23.55-5.17-40.27-3.87-43.08.52" fill="#f5f5f5"/><path d="M364.75,69.47l.3-.1c17.551082-5.890896,36.827719-3.492352,52.4,6.52l9.77,6.27-25.93,10.75Z" fill="#fdd639"/><path d="M364.75,69.47l.19.12.53.33l2,1.29L375.08,76l26.29,16.76h-.14L424.86,83l2.29-1v.3l-5.75-3.7c-1.9-1.2-3.74-2.44-5.61-3.53-3.571412-2.142983-7.3507-3.918712-11.28-5.3-3.547813-1.254624-7.207963-2.165476-10.93-2.72-1.74-.31-3.44-.41-5.07-.58s-3.2-.18-4.7-.12c-4.718578.031688-9.417223.615663-14,1.74-1.64.35-2.86.79-3.71,1l-1.29.37.32-.12L366,69c.84-.25,2.06-.71,3.7-1.08c4.595241-1.179714,9.315999-1.800866,14.06-1.85c1.5-.07,3.08,0,4.72.1s3.34.26,5.09.56c3.744546.5463,7.428073,1.450438,11,2.7c3.95295,1.382156,7.7557,3.16124,11.35,5.31c1.89,1.1,3.72,2.33,5.62,3.54L427.31,82l.28.18-.31.13-2.29,1-23.64,9.79h-.08-.07l-26.31-17-7.5-4.86-2-1.29c-.21-.14-.38-.24-.5-.33Z" fill="#263238"/><path d="M329.2,124.9c0,0,0,.15,0,.31c1.94055,18.153251,12.01552,34.444614,27.39,44.29l9.64,6.19-1-27.67Z" fill="#fdd639"/><path d="M329.2,124.9l.16.09.5.32l2,1.24l7.44,4.73l26.05,16.6.07.05v.07c.29,7.77.61,16.29.94,25.22c0,.84.06,1.68.09,2.45v.33l-.28-.18-5.68-3.64c-1.86-1.21-3.72-2.35-5.48-3.59-3.408162-2.337796-6.567976-5.018444-9.43-8-2.587683-2.681952-4.908592-5.609044-6.93-8.74-1-1.44-1.79-2.94-2.61-4.34s-1.47-2.81-2-4.19c-1.913152-4.258118-3.309752-8.729924-4.16-13.32-.33-1.62-.43-2.9-.55-3.76-.05-.42-.09-.74-.12-1s0-.33,0-.33c0,.19.08.55.2,1.3s.26,2.14.61,3.75c.88146,4.578715,2.294353,9.038894,4.21,13.29.57,1.37,1.32,2.72,2,4.17s1.62,2.87,2.61,4.3c2.026604,3.108654,4.347272,6.015348,6.93,8.68c2.854558,2.956204,6.000539,5.616383,9.39,7.94c1.75,1.22,3.62,2.36,5.48,3.57l5.68,3.64-.27.15c0-.77-.05-1.61-.09-2.44-.32-8.93-.63-17.46-.91-25.23l.07.13-25.84-16.68-7.43-4.82-2-1.29-.51-.34Z" fill="#263238"/><path d="M251.3,35.81c-2.31,3.31,1,13.34,9.12,26.76L282.35,33c-15.77-1.93-28.1-1.44-31.05,2.81Z" fill="#fdd639"/><line x1="367.37" y1="149.38" x2="402.24" y2="94.31" fill="#f5f5f5"/><path d="M402.24,94.31c.08.06-7.66,12.43-17.29,27.63s-17.5,27.5-17.58,27.44s7.63-12.38,17.29-27.62s17.5-27.5,17.58-27.45Z" fill="#263238"/><line x1="369.68" y1="151.21" x2="404.55" y2="96.15" fill="#f5f5f5"/><path d="M404.55,96.15c.08,0-7.66,12.42-17.29,27.62s-17.5,27.5-17.58,27.44s7.66-12.41,17.29-27.62s17.5-27.5,17.58-27.44Z" fill="#263238"/><line x1="372.32" y1="152.84" x2="407.19" y2="97.77" fill="#f5f5f5"/><path d="M407.19,97.77c.08.06-7.66,12.43-17.29,27.63s-17.5,27.5-17.58,27.44s7.66-12.41,17.29-27.62s17.5-27.5,17.58-27.45Z" fill="#263238"/><line x1="374.95" y1="154.47" x2="409.83" y2="99.4" fill="#f5f5f5"/><path d="M409.83,99.4c.08.06-7.67,12.43-17.29,27.63s-17.54,27.49-17.54,27.44s7.66-12.41,17.29-27.62s17.45-27.5,17.54-27.45Z" fill="#263238"/><line x1="377.59" y1="156.1" x2="412.46" y2="101.03" fill="#f5f5f5"/><path d="M412.46,101c.08,0-7.66,12.42-17.29,27.63s-17.5,27.49-17.58,27.44s7.66-12.41,17.29-27.62s17.5-27.45,17.58-27.45Z" fill="#263238"/><path d="M347.1,97.12c0,0,.15,0,.42.18s.65.36,1.15.64c1,.58,2.39,1.45,4.11,2.54c3.45,2.17,8.18,5.23,13.38,8.64s9.89,6.52,13.28,8.79l4,2.71l1.07.75c.132989.075313.254268.169642.36.28-.13904-.066284-.272769-.143178-.4-.23l-1.11-.69-4.06-2.62L366,109.4l-13.32-8.72-4-2.62c-.48-.3-.85-.56-1.11-.7Z" fill="#263238"/><path d="M364.75,69.47c.08.06-7.74,12.41-17.46,27.58s-17.67,27.45-17.75,27.4s7.74-12.4,17.46-27.58s17.67-27.45,17.75-27.4Z" fill="#263238"/><path d="M376.84,109.92c-.048698-.159704-.048698-.330296,0-.49.068824-.458901.295077-.87959.64-1.19.512612-.498327,1.252235-.685139,1.94-.49.88475.210402,1.536746.961658,1.62051,1.867215s-.419366,1.763663-1.25051,2.132785c-.640084.320892-1.402877.275124-2-.12-.387559-.231212-.689407-.582198-.86-1-.1-.3-.08-.49-.06-.49s.05.17.19.44c.186552.37598.48299.686368.85.89.535811.306987,1.194189.306987,1.73,0c.679875-.332922,1.082681-1.051926,1.011539-1.805588s-.601376-1.384591-1.331539-1.584412c-.584326-.184131-1.222429-.047394-1.68.36-.320702.258632-.557373.606678-.68,1-.09.31-.09.48-.12.48Z" fill="#263238"/><path d="M361.27,99.52c0,0-.07-.17,0-.49.068824-.458901.295077-.87959.64-1.19.512612-.498327,1.252235-.685139,1.94-.49.88475.210402,1.536746.961658,1.62051,1.867215s-.419366,1.763663-1.25051,2.132785c-.640084.320892-1.402877.275124-2-.12-.382433-.234499-.680175-.584784-.85-1-.064026-.154887-.088097-.323381-.07-.49s.06.17.2.44c.186552.37598.48299.686368.85.89.53217.307248,1.18783.307248,1.72,0c.680178-.331212,1.084533-1.048659,1.015639-1.80205s-.596669-1.385599-1.325639-1.58795c-.587525-.183821-1.228395-.047305-1.69.36-.315261.261598-.547976.608934-.67,1-.1.31-.1.48-.13.48Z" fill="#263238"/><path d="M331.28,92.28c-.040636-.160806-.040636-.329194,0-.49.076411-.456341.301396-.874671.64-1.19.524911-.520342,1.294006-.70877,2-.49.883576.213064,1.533024.965653,1.614496,1.870895s-.423163,1.761699-1.254496,2.129105c-.640084.320892-1.402877.275124-2-.12-.385263-.231179-.683908-.582526-.85-1-.11-.31-.09-.49-.07-.49.072071.142737.135518.289668.19.44.192438.371816.48742.680679.85.89.536871.302977,1.193129.302977,1.73,0c.643575-.370832,1.028631-1.067783,1-1.81-.102196-.742085-.624561-1.358008-1.34-1.58-.584326-.184131-1.222429-.047394-1.68.36-.320702.258632-.557373.606678-.68,1-.12.31-.12.48-.15.48Z" fill="#263238"/><path d="M317.93,89c.06-.07,5.78,3.08,12.78,7s12.62,7.25,12.56,7.33-5.78-3.08-12.78-7-12.61-7.22-12.56-7.33Z" fill="#263238"/><g opacity="0.3"><path d="M364.3,147.41c0,0-23.3-15.72-35.1-22.51c4.07,5.83,8.76,12.45,14.41,16.77c5.93909,4.427454,13.318757,6.474785,20.69,5.74Z" fill="#fff"/></g><circle r="19.72" transform="matrix(.281839-.959462 0.959462 0.281839 307.491695 72.432333)" fill="#fff"/><path d="M327.2,73.57c-.012782-.106284-.012782-.213716,0-.32c0-.24,0-.55,0-.94.009629-.508237-.020463-1.01645-.09-1.52-.052409-.689456-.15265-1.374438-.3-2.05-.367847-1.857236-1.008094-3.649928-1.9-5.32-1.173561-2.215672-2.758481-4.187488-4.67-5.81-5.044877-4.29622-11.928445-5.73171-18.27-3.81-1.801744.52478-3.511825,1.324167-5.07,2.37-.806615.533357-1.578198,1.11789-2.31,1.75-.709282.672279-1.377173,1.386922-2,2.14-5.434178,6.549449-5.965379,15.875885-1.31,23c.523468.815454,1.097946,1.597011,1.72,2.34.652523.714803,1.354235,1.3831,2.1,2c1.42965,1.219053,3.038505,2.210674,4.77,2.94c3.18974,1.36798,6.685399,1.864895,10.13,1.44c5.559274-.715352,10.548023-3.771916,13.71-8.4c1.077975-1.556497,1.917247-3.265376,2.49-5.07.221714-.654698.40207-1.322681.54-2c.125951-.49239.212887-.993944.26-1.5.05-.38.09-.69.13-.93.006708-.105468.026872-.209646.06-.31.008858.106483.008858.213517,0,.32c0,.24-.05.55-.08.93-.027082.511675-.097332,1.020149-.21,1.52-.120198.677431-.287266,1.345703-.5,2-.523222,1.848147-1.333062,3.602799-2.4,5.2-3.166866,4.75392-8.2282,7.913155-13.89,8.67-3.538709.46151-7.136452-.03223-10.42-1.43-1.777755-.74233-3.430487-1.754207-4.9-3-1.566638-1.263517-2.917572-2.773186-4-4.47-1.144191-1.738535-2.001775-3.64953-2.54-5.66-.545331-2.073617-.771261-4.218268-.67-6.36.253947-4.239779,1.851069-8.288623,4.56-11.56.641986-.783407,1.340524-1.518709,2.09-2.2.751882-.645527,1.54343-1.243362,2.37-1.79c1.600284-1.063824,3.353904-1.87656,5.2-2.41c3.419251-1.015783,7.047946-1.098646,10.51-.24c5.542609,1.394489,10.216934,5.106989,12.83,10.19.892589,1.701321,1.519835,3.529102,1.86,5.42.144658.684846.231629,1.380618.26,2.08.059003.507736.075727,1.019495.05,1.53c0,.39,0,.7,0,.94-.022997.110886-.059959.21841-.11.32Z" fill="#263238"/><path d="M251.3,35.81c.039775-.065696.083176-.129127.13-.19.126028-.19271.277382-.367608.45-.52.674605-.605873,1.454014-1.083684,2.3-1.41c3.296797-1.162558,6.764302-1.767512,10.26-1.79c5.545186-.170159,11.094845.127563,16.59.89c7.326699.96045,14.575231,2.444244,21.69,4.44q5.94,1.7,12.31,4c4.423492,1.608711,8.762415,3.441072,13,5.49c4.545843,2.214358,8.965908,4.67811,13.24,7.38l13.58,8.69L416,102l.22.14-.14.22c-5.71,8.89-11.69,18.21-17.77,27.71s-12.08,18.81-17.79,27.71l-.13.22-.22-.14L319,118.63l-13.56-8.72-6.44-4.16c-2.11-1.42-4.06-3-6-4.51-6.950798-5.754766-13.342516-12.15318-19.09-19.11-4.633884-5.764045-8.892655-11.819851-12.75-18.13-2.949515-4.694552-5.540218-9.605187-7.75-14.69-1.471849-3.159231-2.420868-6.536525-2.81-10-.070307-.903587.028032-1.812369.29-2.68.069285-.221554.16675-.433287.29-.63.032994-.070627.073208-.137651.12-.2-.149843.266247-.270541.547874-.36.84-.239362.86501-.320664,1.766115-.24,2.66.419536,3.465801,1.391869,6.841955,2.88,10c2.237396,5.06016,4.847925,9.946963,7.81,14.62c3.88215,6.264364,8.157384,12.276412,12.8,18c5.751134,6.920065,12.142834,13.281632,19.09,19c1.88,1.53,3.84,3.08,5.92,4.47l6.48,4.15l13.57,8.7l61.18,39.2-.36.08l17.78-27.71l17.77-27.71.08.36-61.13-39.25L341,54.51c-4.254939-2.702415-8.654879-5.169452-13.18-7.39-4.37-2.14-8.71-3.93-12.93-5.5s-8.32-2.93-12.27-4.06c-7.090339-2.012818-14.315388-3.516644-21.62-4.5-5.475849-.793513-11.008436-1.128011-16.54-1-3.479839.005607-6.935375.579841-10.23,1.7-.842442.312677-1.624088.769483-2.31,1.35-.223589.217779-.430818.451746-.62.7Z" fill="#263238"/></g><g transform="translate(.000001-19.502902)"><path d="M332.05,262.17h-173.67c-11.338406,0-20.53-9.191594-20.53-20.53v0c0-11.338406,9.191594-20.53,20.53-20.53h173.67c5.444895,0,10.66678,2.162976,14.516902,6.013098s6.013098,9.072007,6.013098,14.516902v0c0,5.444895-2.162976,10.66678-6.013098,14.516902s-9.072007,6.013098-14.516902,6.013098Z" fill="#31544e"/><path d="M332.05,262.17l1.22-.09c.503256-.008972,1.004933-.05914,1.5-.15.690899-.086483,1.375609-.216745,2.05-.39l1.22-.32c.42-.14.85-.31,1.31-.48l.7-.26.71-.35c.506868-.223089.997998-.480348,1.47-.77c2.309249-1.329081,4.331672-3.103375,5.95-5.22.483213-.603459.921077-1.241871,1.31-1.91.428108-.688429.805764-1.406978,1.13-2.15.350338-.775754.657475-1.570302.92-2.38.11-.42.22-.84.33-1.28l.17-.65.1-.67.21-1.37.06-1.4v-.72-.72c0-.49,0-1-.09-1.47-.247479-2.038575-.782808-4.031753-1.59-5.92-1.85401-4.180647-5.039686-7.630038-9.06-9.81-2.177849-1.163918-4.550217-1.919687-7-2.23-2.52-.28-5.17-.14-7.86-.17l-168.39.08c-2.030741.027759-4.048641.327081-6,.89-1.916673.620169-3.740061,1.498222-5.42,2.61-1.634724,1.12843-3.108249,2.474114-4.38,4-1.235719,1.553511-2.245704,3.273853-3,5.11-.728273,1.832963-1.199407,3.757884-1.4,5.72-.160739,1.948012-.059842,3.908776.3,5.83.753301,3.81191,2.590037,7.325664,5.29,10.12c2.646432,2.75394,6.02073,4.699449,9.73,5.61.908184.226343,1.830131.393363,2.76.5.94,0,1.86.13,2.81.11h27.5l75.71.06l51,.08l13.88.05h3.61h1.23-1.23-3.61-13.88l-51,.09-75.71.05h-27.5c-.94,0-1.91-.07-2.86-.11-.953172-.109966-1.898404-.280309-2.83-.51-3.810519-.925551-7.278946-2.916427-10-5.74-1.367347-1.426901-2.531623-3.035351-3.46-4.78-.91703-1.767552-1.589841-3.651423-2-5.6-.366676-1.977725-.467568-3.995563-.3-6c.380176-4.06575,1.948693-7.92966,4.51-11.11c2.597471-3.22646,6.101129-5.601704,10.06-6.82c1.992459-.581869,4.054514-.891346,6.13-.92l168.39.07c2.69,0,5.32-.1,7.9.2c2.504524.308098,4.929452,1.081362,7.15,2.28c4.078948,2.226865,7.304018,5.743844,9.17,10c.813604,1.913878,1.349035,3.934373,1.59,6c.05.5.05,1,.08,1.49v.73.72c0,.48-.05,1-.07,1.43s-.15.93-.22,1.38l-.1.68-.17.66c-.12.44-.23.87-.34,1.29-.33.82-.55,1.66-.94,2.41-.336377.749113-.723962,1.474162-1.16,2.17-.3981.667-.842525,1.305235-1.33,1.91-1.633911,2.126155-3.673247,3.907175-6,5.24-.482145.280849-.979584.534577-1.49.76l-.72.34-.7.26c-.47.17-.9.34-1.33.47l-1.22.31c-.680495.171606-1.372194.295243-2.07.37-.496128.080119-.997486.12357-1.5.13Z" fill="#263238"/><circle r="9.14" transform="matrix(.707107-.707107 0.707107 0.707107 324.176128 240.520518)" fill="#fff"/><path d="M324.17,250.15c-3.900833.004044-7.419627-2.343183-8.91428-5.94631s-.670531-7.751887,2.087776-10.510194s6.907067-3.582429,10.510194-2.087776s5.950354,5.013447,5.94631,8.91428c-.005512,5.316217-4.313783,9.624488-9.63,9.63Zm0-18.27c-3.495461-.004046-6.648986,2.098456-7.989445,5.32668s-.603728,6.946082,1.866506,9.419178s6.187235,3.214133,9.41701,1.877413s5.335927-4.487808,5.335929-7.983271c.000003-4.767838-3.862165-8.634482-8.63-8.64Z" fill="#263238"/><rect width="1" height="9.15" rx="0" ry="0" transform="matrix(.53391-.845541 0.845541 0.53391 331.272546 246.344858)" fill="#263238"/></g><g id="eqPNIH5BFTg110_to" transform="translate(91.81,425.487192)"><g id="eqPNIH5BFTg110_ts" transform="scale(0.003369,0.003369)"><g transform="translate(-296.678856,-410.007644)"><path d="M259.84,435.62c-2.840663-.40735-4.81433-3.038905-4.41-5.88L261.86,385c.421181-2.341758,2.656627-3.902099,5-3.49l4.2.61c1.673896.25843,3.351123-.444923,4.34-1.82l1.17-1.71c.988877-1.375077,2.666104-2.07843,4.34-1.82l20,2.87c1.528703.203485,2.84816,1.172344,3.5,2.57l.76,1.7c.649974,1.394928,1.965018,2.363313,3.49,2.57l25.45,3.66c2.362552.261808,4.067127,2.386934,3.81,4.75l-6.58,45.75c-.195508,1.363567-.925077,2.593476-2.027986,3.418782s-2.488673,1.1783-3.852014.981218Z" fill="#fff"/><g opacity="0.3"><path d="M259.84,435.62c-2.840663-.40735-4.81433-3.038905-4.41-5.88L261.86,385c.421181-2.341758,2.656627-3.902099,5-3.49l4.2.61c1.673896.25843,3.351123-.444923,4.34-1.82l1.17-1.71c.988877-1.375077,2.666104-2.07843,4.34-1.82l20,2.87c1.528703.203485,2.84816,1.172344,3.5,2.57l.76,1.7c.649974,1.394928,1.965018,2.363313,3.49,2.57l25.45,3.66c2.362552.261808,4.067127,2.386934,3.81,4.75l-6.58,45.75c-.195508,1.363567-.925077,2.593476-2.027986,3.418782s-2.488673,1.1783-3.852014.981218Z" fill="#fff"/></g><path d="M306.11,386.13l-16.18-2.37-1.06-2.91c-.741902-1.935901-2.484464-3.309992-4.54-3.58L268.51,375c-2.700445-.480479-5.28384,1.304251-5.79,4l-.26,1.85-7,48.57c-.333779,3.105255,1.897773,5.899158,5,6.26L324.77,445c3.080096.539288,6.016789-1.512375,6.57-4.59l6.6-45.88c.145595-.983198-.107236-1.983843-.702385-2.779879s-1.483392-1.321621-2.467615-1.460121Z" fill="#fdd639"/><rect width="38.65" height="16.26" rx="0" ry="0" transform="matrix(.989826 0.142283-.142283 0.989826 280.848214 400.590968)" fill="#fff"/><path d="M312.17,412.35c0,.14-5.92-.59-13.18-1.63s-13.13-2-13.1-2.15s5.92.59,13.18,1.63s13.12,2.01,13.1,2.15Z" fill="#263238"/><path d="M311.68,415.78c0,.14-5.92-.59-13.18-1.63s-13.13-2-13.11-2.15s5.92.59,13.18,1.63s13.13,2.01,13.11,2.15Z" fill="#263238"/></g></g></g><g id="eqPNIH5BFTg118_to" transform="translate(372.320002,424.861265)"><g id="eqPNIH5BFTg118_ts" transform="scale(0.003847,0.003847)"><g transform="translate(-389.069839,-390.79245)"><path d="M375.93,415.74c-.849949.320707-1.792571.290077-2.619906-.085132s-1.471398-1.064164-1.790094-1.914868l-10.6-27.7c-.245127-.708089-.198361-1.484622.129972-2.158175s.911236-1.188738,1.620028-1.431825l2.6-1c1.037042-.394475,1.771681-1.329121,1.91-2.43l.12-1.35c.125187-1.106315.864574-2.047,1.91-2.43l12.36-4.74c.943685-.364899,2.007728-.229544,2.83.36l1,.73c.819865.58604,1.879201.721274,2.82.36l15.76-6c1.441488-.602951,3.099283.071785,3.71,1.51l10.84,28.33c.3235.84977.294223,1.793547-.081325,2.621632s-1.066264,1.471891-1.918675,1.788368Z" fill="#fff"/><g opacity="0.3"><path d="M375.93,415.74c-.849949.320707-1.792571.290077-2.619906-.085132s-1.471398-1.064164-1.790094-1.914868l-10.6-27.7c-.245127-.708089-.198361-1.484622.129972-2.158175s.911236-1.188738,1.620028-1.431825l2.6-1c1.037042-.394475,1.771681-1.329121,1.91-2.43l.12-1.35c.125187-1.106315.864574-2.047,1.91-2.43l12.36-4.74c.943685-.364899,2.007728-.229544,2.83.36l1,.73c.819865.58604,1.879201.721274,2.82.36l15.76-6c1.441488-.602951,3.099283.071785,3.71,1.51l10.84,28.33c.3235.84977.294223,1.793547-.081325,2.621632s-1.066264,1.471891-1.918675,1.788368Z" fill="#fff"/></g><path d="M386.65,372.57l-10,3.82-1.54-1.33c-1.039161-.877599-2.47847-1.108504-3.74-.6l-9.8,3.75c-1.69992.603548-2.593433,2.466522-2,4.17l.44,1.14l11.51,30.08c.803935,1.891126,2.980111,2.783001,4.88,2l39.81-15.24c1.946217-.671689,2.980143-2.79325,2.31-4.74L407.64,367.2c-.488891-1.26738-1.912511-1.898608-3.18-1.41Z" fill="#fdd639"/><rect width="25.37" height="10.67" rx="0" ry="0" transform="matrix(.933893-.357553 0.357553 0.933893 376.783866 388.913089)" fill="#fff"/><path d="M398.5,385.67c-2.612438,1.282816-5.300774,2.404904-8.05,3.36-2.682345,1.123328-5.430795,2.081779-8.23,2.87c2.600692-1.271022,5.271686-2.39284,8-3.36c2.700714-1.119833,5.465587-2.078189,8.28-2.87Z" fill="#263238"/><path d="M399.31,387.8c-2.600144,1.26932-5.271233,2.387838-8,3.35-2.710502,1.115357-5.485489,2.067067-8.31,2.85c2.612438-1.282816,5.300774-2.404904,8.05-3.36c2.693469-1.112567,5.451853-2.06097,8.26-2.84Z" fill="#263238"/></g></g></g></svg>
